<?xml version="1.0" standalone="no"?>
<!DOCTYPE svg PUBLIC "-//W3C//DTD SVG 20010904//EN"
 "http://www.w3.org/TR/2001/REC-SVG-20010904/DTD/svg10.dtd">
<svg version="1.0" xmlns="http://www.w3.org/2000/svg"
 width="914.000000pt" height="586.000000pt" viewBox="0 0 914.000000 586.000000"
 preserveAspectRatio="xMidYMid meet">

<g transform="translate(0.000000,586.000000) scale(0.100000,-0.100000)"
fill="#000000" stroke="none">
<path d="M0 5839 c0 -18 2 -19 15 -9 8 7 15 16 15 21 0 5 -7 9 -15 9 -9 0 -15
-9 -15 -21z"/>
<path d="M131 5844 c0 -11 3 -14 6 -6 3 7 2 16 -1 19 -3 4 -6 -2 -5 -13z"/>
<path d="M290 5833 c0 -22 2 -25 10 -13 13 20 13 40 0 40 -5 0 -10 -12 -10
-27z"/>
<path d="M360 5841 c0 -46 -23 -82 -78 -119 -74 -49 -141 -88 -170 -97 -45
-14 -112 -66 -112 -87 0 -17 2 -18 15 -8 13 11 15 8 15 -16 0 -16 -7 -42 -15
-58 -27 -52 -19 -756 10 -784 3 -3 21 2 40 11 25 12 40 29 51 57 19 48 39 54
29 8 -4 -17 -20 -42 -36 -56 -16 -13 -27 -28 -24 -32 3 -5 -3 -14 -14 -19 -14
-8 -22 -7 -31 4 -7 8 -18 15 -24 15 -8 0 -8 -3 1 -8 6 -4 11 -14 11 -22 -1 -8
0 -40 0 -70 2 -59 12 -58 32 5 13 40 25 55 46 55 13 0 4 -70 -23 -174 -15 -59
-23 -72 -50 -89 l-33 -19 0 -159 c0 -87 2 -159 4 -159 2 0 37 14 77 31 41 17
103 41 139 54 36 12 99 37 140 55 41 18 89 37 106 44 18 6 38 16 45 22 8 6 34
16 59 24 25 7 77 28 115 45 39 18 81 36 95 40 14 4 39 15 55 25 17 10 75 34
130 53 120 41 230 83 345 130 47 19 137 54 200 77 127 46 242 93 280 116 14 8
39 20 55 26 38 14 357 177 369 189 6 5 16 9 24 9 10 0 8 -7 -7 -26 -12 -15
-21 -32 -21 -40 0 -7 -3 -14 -7 -16 -17 -7 -79 -125 -71 -133 5 -5 155 46 190
66 10 5 20 9 23 9 8 0 6 -81 -5 -145 -5 -33 -12 -93 -15 -134 -4 -54 -10 -78
-23 -87 -15 -11 -15 -13 -1 -19 12 -5 14 -14 8 -53 -5 -26 -15 -121 -24 -212
-9 -91 -20 -166 -25 -168 -6 -2 -10 -8 -10 -13 0 -17 -40 -49 -61 -49 -25 0
-53 -26 -44 -41 5 -7 12 -5 24 5 11 10 21 12 31 6 28 -18 40 -11 40 23 1 24 3
28 10 16 5 -9 7 -32 3 -52 -4 -29 -10 -36 -26 -34 -18 2 -23 -6 -31 -40 -5
-25 -15 -43 -22 -43 -8 0 -14 5 -14 11 0 5 -5 7 -11 3 -8 -5 -8 -8 0 -13 13
-8 -22 -51 -42 -51 -7 0 -21 -10 -31 -22 -17 -20 -17 -21 -1 -14 10 4 21 2 25
-4 4 -7 18 -8 33 -4 24 5 27 11 27 46 0 22 4 37 10 33 5 -3 7 -12 3 -20 -8
-21 15 -45 44 -45 23 0 24 -2 21 -60 -2 -34 -7 -59 -13 -58 -5 2 -10 14 -10
27 -1 45 -21 32 -23 -14 -1 -36 2 -45 15 -45 13 0 15 -8 9 -57 -12 -99 -15
-105 -47 -98 -15 4 -36 2 -45 -3 -16 -9 -15 -10 4 -16 12 -4 26 -4 32 -1 5 3
10 1 10 -5 0 -6 -12 -15 -27 -21 l-28 -11 25 -13 c31 -17 40 -11 40 26 0 16 4
29 8 29 21 0 -5 -258 -45 -447 -13 -65 -18 -73 -47 -87 -18 -8 -48 -18 -67
-21 -55 -8 -158 -31 -246 -54 -45 -11 -91 -21 -103 -21 -11 0 -34 -7 -49 -15
-37 -19 -623 -137 -678 -136 -24 0 -43 -3 -43 -7 0 -12 -56 -30 -170 -52 -58
-12 -136 -28 -175 -37 -38 -8 -79 -15 -90 -14 -10 0 -25 -4 -31 -10 -7 -6 -53
-11 -102 -13 -88 -3 -117 -10 -107 -26 4 -7 -58 -23 -213 -56 l-22 -4 0 -676
c0 -638 1 -675 17 -672 11 2 19 14 21 28 12 102 34 158 45 112 2 -9 7 6 12 33
10 66 22 87 43 80 14 -4 26 11 55 68 53 101 85 160 96 173 5 7 7 14 4 17 -4 5
44 105 57 117 3 3 17 26 30 53 14 26 28 47 32 47 5 0 8 6 8 14 0 7 7 19 15 26
22 18 18 38 -7 43 -20 4 -19 4 5 6 28 1 39 21 12 21 -8 0 -15 5 -15 10 0 6 -9
10 -21 10 -26 0 -20 24 8 28 14 2 23 13 27 33 6 32 23 38 40 13 13 -17 26 -16
216 26 101 22 182 38 243 47 37 6 37 5 37 -29 0 -19 -4 -38 -9 -43 -21 -22
-141 -269 -141 -291 0 -63 62 -2 181 178 79 119 100 178 64 178 -8 0 -15 7
-15 16 0 10 -6 14 -15 10 -17 -6 -19 2 -6 23 5 8 16 11 24 8 9 -3 18 -1 21 6
5 9 7 9 12 0 6 -15 55 -17 70 -5 20 18 133 42 212 44 45 2 82 3 82 2 0 -1 -20
-39 -44 -85 -45 -85 -64 -159 -51 -199 7 -21 8 -21 267 -18 l260 3 35 60 c46
76 62 95 83 95 14 0 15 -8 9 -67 -5 -38 -8 -131 -8 -207 -1 -148 -18 -397 -30
-443 -6 -24 -13 -28 -50 -31 -23 -2 -48 2 -56 8 -9 7 -110 10 -318 10 -334 -2
-317 1 -317 -60 0 -21 -11 -39 -41 -67 -68 -62 -69 -63 -69 -88 0 -18 -4 -22
-20 -18 -11 3 -20 0 -20 -6 0 -8 -37 -9 -124 -6 -69 3 -127 1 -130 -4 -3 -5
-77 -7 -163 -5 -171 4 -393 -9 -402 -25 -6 -8 -76 -14 -141 -12 -20 1 -22 3
-10 11 11 7 1 10 -35 10 -81 -1 -85 -8 -85 -144 l0 -116 33 -2 c17 0 59 -3 92
-4 33 -2 103 5 155 16 52 10 102 19 110 19 8 0 47 0 85 1 39 0 84 -3 100 -8
19 -5 53 -4 95 5 36 8 138 15 227 16 183 2 199 -3 184 -58 l-8 -30 -94 0 c-52
-1 -293 -2 -536 -3 l-443 -2 0 -80 0 -79 117 7 c65 4 147 7 183 7 59 0 65 -2
62 -20 -2 -11 -6 -22 -8 -24 -2 -2 -81 -9 -176 -16 -95 -8 -174 -14 -175 -14
-2 -1 -3 -77 -3 -170 l0 -168 43 -11 c101 -26 138 -31 241 -38 108 -7 108 -7
101 14 -9 31 11 28 39 -5 18 -21 28 -25 50 -19 15 4 24 10 21 15 -2 5 2 11 10
15 17 6 45 -2 45 -14 0 -4 23 -3 52 1 28 5 56 5 62 2 6 -4 24 -8 41 -10 81 -6
155 -20 168 -32 9 -7 18 -8 21 -3 3 6 22 12 41 14 35 4 41 -2 36 -40 -2 -9 58
-12 268 -12 264 0 270 0 273 20 4 25 24 22 21 -2 -3 -17 22 -18 396 -18 l398
0 11 128 c35 382 55 542 70 542 16 0 16 10 -13 -330 -25 -292 -27 -340 -16
-340 6 0 11 11 11 24 0 27 23 309 41 509 6 70 15 127 20 127 11 0 11 -43 -1
-155 -6 -49 -17 -166 -25 -260 -8 -93 -17 -187 -19 -207 -3 -27 0 -38 9 -38
16 0 19 25 45 300 33 358 33 356 49 346 4 -3 4 -36 0 -73 -7 -68 -23 -277 -35
-470 -4 -65 -3 -103 4 -103 5 0 12 57 16 133 9 162 14 197 32 197 9 0 12 -9 9
-27 -7 -40 -25 -241 -25 -275 0 -21 5 -28 20 -28 18 0 20 7 21 63 0 34 4 85 8
112 12 82 25 27 18 -81 l-5 -94 63 0 c58 0 64 2 67 23 2 16 11 23 31 25 26 3
27 5 27 69 0 63 -1 65 -18 50 -10 -10 -22 -17 -25 -17 -9 0 -8 106 2 157 4 23
5 62 1 87 -4 28 -3 46 3 46 5 0 4 7 -3 15 -8 9 -9 15 -2 15 6 0 9 9 7 20 -2
11 1 22 6 25 5 4 7 11 4 16 -11 17 18 9 31 -8 12 -17 13 -17 14 3 0 12 4 66
10 120 5 55 14 203 20 329 6 127 12 239 13 250 2 15 -3 19 -20 17 -16 -2 -23
2 -23 12 0 10 9 16 25 16 19 0 25 5 25 23 0 47 31 486 40 567 15 135 22 347
12 330 -5 -8 -12 -49 -16 -90 -22 -255 -27 -312 -31 -375 -3 -38 -7 -108 -10
-155 -4 -47 -9 -94 -12 -105 -12 -40 -19 14 -12 84 13 112 36 463 42 627 3 56
7 107 11 113 4 6 9 46 11 89 2 42 6 106 9 142 3 36 10 139 16 230 5 91 15 244
22 340 18 243 17 335 -2 335 -8 0 -15 7 -15 15 0 34 17 297 30 480 8 107 17
238 20 290 7 108 14 164 21 157 3 -2 -2 -105 -11 -228 -27 -377 -45 -693 -40
-698 16 -15 18 1 55 584 5 88 13 202 17 254 5 81 4 96 -11 106 -15 11 -15 31
-1 281 20 359 36 578 41 583 11 11 0 -209 -36 -714 -5 -81 -5 -134 1 -140 5
-5 9 -7 10 -5 3 24 8 108 18 285 6 116 16 278 21 360 14 208 13 295 -2 295 -7
0 -5 5 5 11 14 8 17 24 15 102 -1 51 -3 74 -5 52 -5 -53 -12 -73 -21 -58 -7
11 1 241 13 361 5 60 5 62 -18 62 -22 0 -25 -5 -30 -62 -4 -35 -10 -118 -13
-186 -4 -67 -11 -125 -16 -128 -4 -3 -40 20 -78 50 -82 64 -57 66 -248 -21
-67 -31 -125 -53 -128 -50 -3 3 1 88 10 189 9 101 16 190 16 196 0 7 -15 12
-39 12 l-38 0 -7 -72 c-4 -40 -13 -125 -21 -188 -8 -63 -17 -141 -20 -172 -4
-32 -10 -58 -15 -58 -4 0 -68 -28 -142 -63 -170 -81 -205 -97 -211 -97 -3 0
-48 -20 -99 -44 -182 -85 -234 -108 -281 -127 -26 -10 -58 -25 -70 -33 -20
-13 -122 -56 -220 -92 -21 -8 -71 -29 -110 -47 -137 -63 -212 -96 -332 -142
-66 -26 -142 -57 -170 -70 -56 -26 -95 -39 -95 -31 0 2 5 17 11 33 8 22 12 24
19 13 8 -12 10 -10 10 8 0 34 27 92 43 92 14 0 67 90 151 255 61 119 105 183
132 189 13 4 24 14 24 23 0 14 -2 14 -14 -3 -8 -10 -17 -16 -21 -12 -4 3 9 24
29 45 36 40 41 83 9 83 -11 0 -12 11 -7 52 5 37 4 49 -5 44 -6 -4 -11 -14 -11
-22 0 -8 -4 -14 -10 -14 -16 0 -12 14 11 39 23 25 23 26 -8 35 -21 7 -23 4
-23 -28 0 -41 -5 -43 -40 -20 -43 29 -47 39 -38 101 11 79 13 85 25 107 10 18
12 17 59 -6 47 -24 49 -26 49 -66 0 -23 2 -42 5 -42 2 0 56 25 120 56 138 68
218 105 285 134 28 12 102 48 165 79 l115 56 -338 3 -339 2 -71 -39 c-40 -21
-102 -55 -139 -76 -64 -35 -87 -35 -53 -1 20 20 85 105 85 111 0 3 -91 4 -202
4 -112 -1 -195 -3 -185 -6 32 -8 21 -66 -33 -171 -99 -193 -107 -206 -151
-230 -23 -12 -44 -20 -46 -18 -7 6 23 58 49 86 51 55 70 101 64 155 -7 55 -1
70 29 78 12 3 4 5 -18 6 -34 1 -37 3 -32 26 3 14 7 36 10 50 3 14 1 25 -5 25
-5 0 -10 -8 -10 -19z m516 -277 c4 -14 2 -30 -5 -37 -8 -8 -11 -6 -11 9 0 10
-4 25 -9 33 -7 12 -14 10 -36 -8 -38 -29 -56 -26 -22 4 38 34 75 33 83 -1z
m-73 -47 c3 -8 1 -20 -4 -28 -6 -10 -9 -7 -9 14 0 29 5 35 13 14z m2027 -117
c0 -5 7 -10 16 -10 8 0 35 -11 58 -25 l43 -25 2 -64 c1 -75 -32 -643 -54 -906
-8 -102 -17 -225 -20 -275 -3 -49 -9 -146 -15 -215 -5 -69 -17 -237 -25 -375
-9 -137 -19 -258 -22 -269 -3 -10 -6 -53 -8 -95 -1 -42 -6 -113 -10 -159 l-8
-83 -31 7 c-17 3 -64 17 -104 29 -68 22 -76 22 -132 9 -33 -8 -79 -16 -103
-18 -23 -2 -64 -12 -90 -21 -33 -12 -52 -14 -59 -7 -11 11 -1 142 32 437 34
300 52 467 61 580 11 141 24 296 43 515 8 96 23 273 32 393 10 120 23 225 29
233 6 9 38 19 79 24 37 4 69 10 70 12 1 1 40 66 86 143 46 77 87 142 92 143 4
2 8 10 8 18 0 8 7 14 15 14 8 0 15 -4 15 -10z m123 -29 c28 -23 20 -35 -10
-15 -32 20 -53 40 -53 48 0 7 37 -13 63 -33z m-2203 -1 c0 -5 -4 -10 -9 -10
-6 0 -13 5 -16 10 -3 6 1 10 9 10 9 0 16 -4 16 -10z m189 -59 c-15 -51 -44
-58 -34 -8 6 29 33 63 42 53 3 -2 -1 -22 -8 -45z m-86 -26 c15 -9 16 -18 8
-60 -6 -32 -18 -56 -32 -68 -23 -19 -23 -19 -33 10 l-10 28 -6 -30 c-6 -25 -8
-27 -15 -12 -4 10 -2 51 5 92 l12 73 27 -12 c14 -6 34 -16 44 -21z m-508 -57
c39 -16 55 -28 55 -42 0 -17 1 -17 25 -2 23 15 25 15 25 -1 0 -38 -13 -93 -21
-93 -5 0 -9 6 -9 14 0 24 -22 30 -37 11 -7 -11 -13 -31 -13 -47 0 -15 -5 -28
-11 -28 -6 0 -9 14 -7 33 4 38 -15 50 -20 12 -2 -16 -10 -25 -20 -25 -18 0
-61 26 -75 44 -15 22 22 146 44 146 5 0 33 -10 64 -22z m186 -146 c11 -152 14
-166 40 -158 10 3 29 9 42 12 21 5 21 5 -3 -17 l-25 -22 25 8 c24 7 24 7 5 -9
-23 -18 -45 -21 -45 -6 0 6 -5 10 -10 10 -7 0 -7 -6 0 -19 5 -11 10 -41 11
-68 0 -49 10 -42 23 18 5 24 42 46 55 34 5 -5 -12 -122 -31 -210 -11 -50 -18
-62 -42 -74 -23 -11 -31 -11 -34 -2 -3 8 -8 6 -17 -5 -11 -16 -17 -16 -53 -6
-40 12 -72 8 -72 -9 0 -5 5 -9 11 -9 6 0 5 -6 -3 -15 -7 -8 -19 -21 -26 -30
-22 -26 -44 -19 -38 13 3 15 28 153 56 307 28 154 58 313 66 353 l16 74 20
-22 c17 -18 22 -43 29 -148z m407 96 c-9 -18 -21 -44 -27 -58 l-10 -25 3 25
c4 35 35 105 43 97 3 -4 -1 -22 -9 -39z m-741 -25 c-3 -10 -5 -4 -5 12 0 17 2
24 5 18 2 -7 2 -21 0 -30z m-36 8 c-6 -10 -8 -21 -5 -24 3 -3 3 -11 -2 -18 -5
-9 -9 -7 -15 7 -4 12 -1 26 9 37 20 22 25 22 13 -2z m242 -223 c-37 -213 -43
-247 -64 -353 -11 -55 -23 -102 -27 -106 -4 -3 -45 -23 -92 -44 -47 -20 -93
-41 -102 -46 -14 -7 -18 -5 -18 8 0 45 14 93 26 93 7 0 18 19 24 41 7 26 18
43 30 46 11 3 41 51 81 130 35 69 69 127 76 130 7 3 13 13 13 23 0 10 7 21 16
24 9 4 14 9 11 13 -3 3 0 18 9 34 11 23 12 29 2 30 -10 0 -10 2 0 6 7 3 12 24
12 54 0 33 4 49 13 49 10 0 8 -29 -10 -132z m-299 71 c-3 -5 -10 -7 -15 -3 -5
3 -7 10 -3 15 3 5 10 7 15 3 5 -3 7 -10 3 -15z m111 -106 c-3 -21 -11 -42 -17
-48 -9 -10 -2 59 9 78 11 18 15 4 8 -30z m58 -60 c-4 -11 -3 -14 5 -9 7 4 12
1 12 -8 0 -18 -8 -20 -29 -7 -12 8 -12 12 -2 25 17 21 22 20 14 -1z m1966
-1030 c-1 -38 -1 -38 -9 -9 -8 27 -6 46 6 46 2 0 4 -17 3 -37z m655 -608 c-17
-253 -24 -319 -33 -309 -5 5 1 123 13 261 11 139 23 249 27 245 3 -4 0 -92 -7
-197z m-215 -396 c96 -22 97 -24 94 -82 -2 -29 -3 -64 -3 -79 0 -16 -5 -28
-11 -28 -6 0 -9 7 -5 15 3 9 0 15 -10 15 -8 0 -12 -4 -9 -10 7 -12 -1 -12 -44
-4 -17 4 -31 10 -31 14 0 4 12 5 26 2 24 -4 25 -3 14 17 -8 17 -15 20 -24 12
-10 -8 -17 -7 -26 5 -12 14 -14 14 -23 -2 -6 -11 -5 -19 4 -25 10 -6 7 -9 -11
-9 -14 0 -30 4 -37 8 -10 6 -17 68 -14 125 1 18 31 25 31 7 0 -17 43 -28 67
-17 30 13 21 24 -27 32 -22 4 -40 11 -40 17 0 6 7 7 16 4 9 -4 37 -11 63 -17z
m-36 -218 c23 -6 59 -13 80 -16 l38 -6 -6 -97 c-4 -53 -13 -169 -21 -257 -8
-88 -17 -198 -20 -245 -2 -47 -9 -130 -14 -185 -5 -55 -17 -205 -27 -334 l-18
-233 -205 7 c-113 4 -209 11 -214 16 -6 5 -28 9 -50 9 -23 0 -52 3 -65 7 -27
7 -27 -7 4 288 28 274 36 358 50 550 23 300 18 279 79 299 29 9 61 16 72 16
11 0 27 9 37 20 15 18 53 26 94 21 7 -1 20 13 29 31 35 68 75 118 95 118 11 0
39 -4 62 -9z m192 -153 c-8 -137 -14 -200 -20 -207 -15 -14 -16 22 -5 151 13
150 15 168 26 168 3 0 3 -51 -1 -112z m-21 -280 c-8 -88 -43 -529 -55 -693 -7
-93 -16 -174 -22 -180 -9 -10 -6 61 13 315 5 69 17 220 25 335 9 116 18 225
21 243 7 47 22 30 18 -20z m-2384 -24 c32 -7 32 -7 27 -55 -7 -60 -22 -87 -52
-99 -18 -7 -23 -16 -23 -40 1 -35 -1 -39 -28 -41 -48 -5 -84 2 -84 15 0 8 -5
16 -10 18 -7 2 -6 28 5 76 19 94 20 89 -17 84 -24 -3 -30 -1 -23 6 6 6 25 12
43 14 18 1 32 8 32 15 0 14 73 18 130 7z m-217 -55 c10 -15 1 -96 -9 -86 -3 3
-8 20 -11 39 -7 44 -21 62 -39 47 -14 -12 -20 2 -7 15 12 12 55 2 66 -15z
m-36 -61 c-3 -7 -5 -2 -5 12 0 14 2 19 5 13 2 -7 2 -19 0 -25z m-17 3 c0 -11
-4 -23 -10 -26 -5 -3 -10 -2 -10 4 0 5 -3 16 -6 25 -4 11 -1 16 10 16 9 0 16
-8 16 -19z m-70 -151 c0 -5 -7 -10 -15 -10 -8 0 -15 5 -15 10 0 6 7 10 15 10
8 0 15 -4 15 -10z m280 -45 c-13 -14 -26 -23 -28 -20 -7 7 29 45 41 45 6 0 0
-11 -13 -25z m-180 -31 c-12 -51 -20 -54 -20 -7 0 40 7 56 20 48 5 -3 4 -21 0
-41z m56 4 c-3 -16 -12 -38 -20 -49 -14 -20 -14 -20 -20 8 -9 40 8 85 30 76
12 -4 14 -14 10 -35z m2574 -379 c0 -5 -7 -9 -15 -9 -15 0 -20 12 -9 23 8 8
24 -1 24 -14z m-10 -99 c0 -5 -4 -10 -10 -10 -5 0 -10 5 -10 10 0 6 5 10 10
10 6 0 10 -4 10 -10z m-71 -133 c-1 -23 -5 -55 -9 -72 -6 -22 -8 -9 -9 48 -1
50 3 76 9 72 6 -3 9 -25 9 -48z m-1434 -43 c-3 -30 -11 -54 -16 -54 -17 0 -13
107 5 129 16 20 20 -7 11 -75z m1487 64 c-7 -7 -12 -8 -12 -2 0 14 12 26 19
19 2 -3 -1 -11 -7 -17z m-1303 -5 c-27 -35 -143 -153 -146 -149 -2 2 2 40 9
85 l12 81 69 0 c65 0 69 -1 56 -17z m327 -15 c-3 -13 -6 -46 -6 -73 0 -44 -4
-52 -27 -67 -25 -15 -27 -15 -48 11 -22 27 -85 134 -85 145 0 3 39 6 86 6 85
0 86 0 80 -22z m144 15 c0 -5 -14 -19 -30 -33 -17 -14 -39 -33 -50 -42 -27
-24 -31 -23 -25 7 3 14 7 36 10 50 5 22 10 25 50 25 25 0 45 -3 45 -7z m230
-22 c0 -28 -17 -35 -29 -12 -15 27 -14 31 9 31 13 0 20 -7 20 -19z m174 -23
c-102 -115 -143 -157 -147 -150 -2 4 1 49 6 100 l10 92 85 0 84 0 -38 -42z
m219 2 c27 -38 28 -44 21 -110 -3 -38 -9 -70 -12 -70 -12 0 -31 38 -32 63 0
19 -7 31 -24 38 -21 10 -86 95 -86 113 0 3 24 6 53 6 49 0 53 -3 80 -40z
m-924 -47 c51 -77 35 -85 -20 -11 -28 39 -39 76 -20 64 5 -4 23 -27 40 -53z
m-159 33 c0 -25 -115 -138 -136 -134 -15 3 -4 18 56 76 41 39 76 72 77 72 2 0
3 -6 3 -14z m656 -31 c32 -55 24 -70 -16 -29 -22 21 -28 35 -24 52 4 12 8 22
10 22 2 0 15 -20 30 -45z m639 35 c3 -5 1 -10 -4 -10 -6 0 -11 5 -11 10 0 6 2
10 4 10 3 0 8 -4 11 -10z m-1225 -39 c0 -29 -21 -57 -33 -44 -18 17 4 89 24
78 5 -4 9 -19 9 -34z m395 -12 l-7 -21 -21 21 c-21 21 -21 21 -2 35 17 13 21
13 28 0 5 -8 5 -24 2 -35z m431 -15 c-4 -14 -11 -22 -16 -19 -6 3 -10 1 -10
-5 0 -11 -40 -58 -124 -145 -26 -27 -45 -42 -42 -32 3 10 6 26 6 35 0 9 19 37
41 62 23 25 64 71 93 104 52 59 66 59 52 0z m64 41 c10 -13 9 -15 -8 -15 -15
0 -20 5 -16 15 4 8 7 15 9 15 1 0 8 -7 15 -15z m-392 -14 c10 -6 6 -15 -15
-39 -41 -48 -69 -40 -42 11 19 35 35 43 57 28z m454 -111 c14 -27 28 -46 32
-43 14 14 36 -22 36 -58 0 -45 -15 -51 -33 -11 -6 15 -17 32 -23 37 -18 16
-83 123 -78 128 14 14 44 -10 66 -53z m-378 -6 c26 -41 27 -47 14 -61 -14 -13
-18 -11 -37 20 -20 33 -29 87 -13 87 4 0 20 -21 36 -46z m571 -99 c-4 -69 -10
-124 -12 -121 -3 3 -2 61 2 131 4 69 10 124 12 121 3 -3 2 -61 -2 -131z m-226
47 c51 -78 63 -112 38 -112 -7 0 -28 33 -47 73 -19 39 -41 77 -49 83 -11 9 -9
34 3 34 2 0 27 -35 55 -78z m148 26 c-3 -7 -5 -2 -5 12 0 14 2 19 5 13 2 -7 2
-19 0 -25z m-320 -62 c-35 -58 -57 -84 -69 -83 -23 2 -23 8 4 43 20 27 110
124 114 124 2 0 -21 -38 -49 -84z m311 -76 c-5 -58 -10 -115 -11 -127 -1 -13
-6 -23 -11 -23 -4 0 -6 15 -3 33 3 17 9 68 12 112 6 76 14 121 19 113 2 -2 -1
-50 -6 -108z m-516 48 c-15 -15 -26 -4 -18 18 5 13 9 15 18 6 9 -9 9 -15 0
-24z m341 -28 c10 -16 15 -30 12 -30 -8 0 -44 42 -45 53 0 17 17 5 33 -23z
m-73 -10 c0 -5 -5 -10 -11 -10 -5 0 -7 5 -4 10 3 6 8 10 11 10 2 0 4 -4 4 -10z
m-227 -17 c-7 -2 -21 -2 -30 0 -10 3 -4 5 12 5 17 0 24 -2 18 -5z m195 -74
c-10 -7 -9 -9 5 -9 9 0 17 -3 17 -8 0 -4 -18 -7 -40 -7 -22 0 -40 3 -40 8 0
19 23 49 43 56 18 7 23 5 25 -12 2 -11 -2 -24 -10 -28z m106 26 c9 -13 16 -31
16 -40 0 -17 -25 -20 -35 -4 -4 6 -13 8 -21 5 -17 -6 -19 17 -4 45 14 25 24
24 44 -6z m122 -17 c-3 -24 -13 -114 -20 -201 -8 -87 -16 -160 -18 -162 -1 -2
-9 3 -16 11 -7 8 -8 14 -3 14 6 0 10 23 9 53 -1 28 2 114 7 190 7 127 10 137
28 137 17 0 19 -5 13 -42z m-426 2 c0 -28 -3 -30 -35 -30 -32 0 -35 2 -35 30
0 28 3 30 35 30 32 0 35 -2 35 -30z m90 25 c0 -14 -33 -54 -41 -50 -12 8 12
55 28 55 7 0 13 -2 13 -5z m284 -11 c3 -8 3 -27 0 -41 -8 -31 -24 -12 -24 30
0 29 14 36 24 11z m-994 -44 c0 -22 -38 -46 -51 -33 -13 13 1 51 20 56 23 5
31 -1 31 -23z m-115 -19 c-5 -16 -13 -20 -38 -17 -29 3 -33 8 -28 35 1 12 53
19 64 10 5 -4 6 -16 2 -28z m-118 -3 c-3 -7 -5 -2 -5 12 0 14 2 19 5 13 2 -7
2 -19 0 -25z m333 18 c0 -8 -4 -17 -9 -21 -12 -7 -24 12 -16 25 9 15 25 12 25
-4z m60 -12 c0 -16 -16 -19 -25 -4 -8 13 4 32 16 25 5 -4 9 -13 9 -21z m77 4
c-3 -8 -6 -5 -6 6 -1 11 2 17 5 13 3 -3 4 -12 1 -19z m243 2 c0 -12 -8 -12
-35 0 -18 8 -17 9 8 9 15 1 27 -3 27 -9z m105 -10 c-3 -5 -10 -10 -16 -10 -5
0 -9 5 -9 10 0 6 7 10 16 10 8 0 12 -4 9 -10z m-605 -34 c0 -2 -7 -6 -15 -10
-8 -3 -15 -1 -15 4 0 6 7 10 15 10 8 0 15 -2 15 -4z m-123 -108 c-3 -8 -6 -5
-6 6 -1 11 2 17 5 13 3 -3 4 -12 1 -19z m270 -15 c-3 -10 -5 -4 -5 12 0 17 2
24 5 18 2 -7 2 -21 0 -30z m1113 27 c0 -5 -9 -10 -20 -10 -11 0 -20 5 -20 10
0 6 9 10 20 10 11 0 20 -4 20 -10z m-175 -159 c-10 -156 -26 -205 -19 -60 3
63 7 124 9 135 2 10 4 22 4 27 1 4 4 7 7 7 3 0 3 -49 -1 -109z m-1553 44 c-4
-35 -22 -40 -22 -6 0 13 17 41 25 41 1 0 -1 -16 -3 -35z m423 -25 c-3 -5 -10
-10 -16 -10 -5 0 -9 5 -9 10 0 6 7 10 16 10 8 0 12 -4 9 -10z m-8 -67 c-3 -10
-5 -2 -5 17 0 19 2 27 5 18 2 -10 2 -26 0 -35z m120 15 c-3 -7 -5 -2 -5 12 0
14 2 19 5 13 2 -7 2 -19 0 -25z m-121 -155 c-5 -49 -10 -90 -12 -91 -1 -2 -12
-1 -24 3 -20 6 -21 11 -14 63 6 49 35 109 54 111 3 1 1 -38 -4 -86z m-106 67
c0 -5 -5 -10 -11 -10 -5 0 -7 5 -4 10 3 6 8 10 11 10 2 0 4 -4 4 -10z m-50
-39 c0 -25 16 -36 23 -17 3 8 1 17 -6 19 -7 2 -9 8 -5 12 23 24 39 -52 18 -85
-7 -11 -10 -11 -10 -2 0 7 -4 11 -9 8 -5 -3 -11 7 -14 22 -3 15 -9 35 -12 45
-4 10 -3 17 4 17 6 0 11 -9 11 -19z m870 -91 c0 -38 -3 -70 -7 -70 -5 0 -8 20
-7 45 0 24 -3 42 -8 39 -4 -3 -8 0 -8 6 0 13 19 50 25 50 3 0 5 -31 5 -70z
m121 -53 c-18 -18 -23 -1 -9 29 13 28 13 28 16 5 2 -13 -1 -28 -7 -34z m-24
-64 c-3 -10 -5 -2 -5 17 0 19 2 27 5 18 2 -10 2 -26 0 -35z m20 0 c-3 -10 -5
-2 -5 17 0 19 2 27 5 18 2 -10 2 -26 0 -35z m463 26 c0 -3 -9 -9 -20 -12 -19
-5 -27 3 -15 15 8 7 35 6 35 -3z"/>
<path d="M1417 190 c-3 -11 -1 -20 4 -20 5 0 9 9 9 20 0 11 -2 20 -4 20 -2 0
-6 -9 -9 -20z"/>
<path d="M3810 5853 c8 -4 28 -22 45 -40 36 -42 61 -57 70 -43 4 6 3 10 -2 9
-20 -3 -34 2 -28 11 3 6 1 10 -4 10 -6 0 -11 6 -11 13 0 19 -37 47 -63 46 -14
0 -17 -3 -7 -6z"/>
<path d="M3940 5792 c166 -148 330 -317 330 -340 0 -12 8 -26 17 -29 9 -4 31
-21 47 -38 43 -43 101 -86 109 -80 4 3 5 2 2 -2 -5 -7 72 -89 203 -215 34 -34
62 -67 62 -75 0 -8 4 -12 9 -9 5 4 26 -16 46 -44 20 -27 43 -53 50 -57 7 -5
78 -71 157 -148 79 -77 181 -174 227 -215 46 -41 90 -83 100 -93 9 -10 82 -84
164 -165 81 -80 147 -154 147 -164 0 -20 11 -23 27 -7 8 8 22 1 52 -26 23 -21
41 -43 41 -48 0 -6 17 -26 38 -44 150 -136 192 -178 192 -191 0 -12 3 -12 15
-2 19 16 45 -3 45 -32 0 -10 5 -16 10 -13 6 3 13 -1 16 -10 6 -14 8 -13 21 5
18 26 9 100 -13 100 -8 0 -19 9 -26 19 -6 10 -17 17 -23 15 -13 -5 -225 192
-225 209 0 13 -74 83 -112 107 -33 20 -287 266 -778 754 -201 200 -432 426
-515 504 -82 77 -211 199 -285 271 -132 128 -136 130 -180 130 l-45 0 75 -67z
m565 -532 c3 -5 1 -10 -4 -10 -6 0 -11 5 -11 10 0 6 2 10 4 10 3 0 8 -4 11
-10z m25 -30 c0 -5 -2 -10 -4 -10 -3 0 -8 5 -11 10 -3 6 -1 10 4 10 6 0 11 -4
11 -10z"/>
<path d="M4200 5849 c0 -5 4 -8 9 -4 6 3 20 -8 32 -24 12 -17 29 -33 38 -36
14 -6 -29 49 -54 67 -14 11 -25 10 -25 -3z"/>
<path d="M4261 5843 c7 -10 42 -49 78 -87 36 -38 60 -65 53 -61 -11 6 -11 3 0
-14 7 -12 16 -21 21 -21 4 0 18 -11 30 -25 21 -24 23 -24 44 -7 l22 17 -103
108 c-82 85 -109 107 -131 107 -24 0 -26 -2 -14 -17z"/>
<path d="M4620 5827 c0 -26 8 -41 35 -66 24 -22 35 -27 35 -16 0 8 -4 15 -10
15 -5 0 -10 7 -10 15 0 8 7 15 15 15 11 0 15 -11 15 -41 0 -25 4 -38 10 -34 6
4 8 15 5 25 -7 23 8 55 43 93 l26 27 -82 0 -82 0 0 -33z"/>
<path d="M4882 5840 c-7 -11 -18 -17 -27 -14 -12 5 -15 -4 -15 -52 1 -33 7
-86 14 -119 11 -49 22 -69 60 -108 55 -57 61 -51 52 57 l-6 74 27 4 c16 3 35
8 44 12 12 5 33 -13 80 -70 35 -43 76 -91 92 -107 31 -34 39 -97 12 -97 -8 0
-15 5 -15 10 0 6 -5 10 -11 10 -9 0 -10 -25 -6 -87 7 -104 16 -131 59 -179
l33 -36 7 38 c4 22 5 57 2 80 l-6 41 43 7 c39 6 46 4 69 -21 14 -15 40 -48 57
-73 17 -25 43 -58 58 -75 14 -16 33 -43 42 -60 21 -40 20 -40 37 -26 11 9 21
2 54 -37 22 -26 42 -61 44 -77 2 -20 11 -34 29 -42 15 -7 45 -37 67 -65 22
-29 55 -66 72 -83 17 -16 38 -44 45 -62 10 -24 18 -30 34 -26 21 5 20 8 40
-82 8 -33 9 -35 10 -12 1 33 20 27 22 -6 1 -20 2 -20 9 3 4 14 8 40 9 58 2 62
21 21 21 -45 0 -55 4 -69 23 -87 65 -64 87 -96 87 -131 0 -19 -3 -34 -7 -33
-12 4 -13 -5 -13 -83 0 -65 2 -73 30 -101 35 -35 48 -33 74 11 18 32 18 32 -3
52 -11 11 -21 24 -21 28 0 8 32 20 52 21 4 0 47 -47 95 -104 84 -100 88 -107
85 -145 -3 -26 -9 -41 -17 -41 -19 0 -8 -127 13 -160 l17 -25 5 55 c5 43 7 48
11 25 l4 -30 19 35 c10 19 23 38 29 42 6 4 2 19 -11 41 -18 32 -26 64 -23 91
2 19 51 -58 51 -80 0 -22 35 -71 81 -115 14 -13 47 -51 74 -84 47 -58 82 -100
182 -215 26 -30 53 -54 60 -54 6 1 21 -17 31 -40 11 -22 32 -54 46 -71 14 -16
26 -36 26 -44 0 -8 6 -11 15 -7 10 4 24 -8 43 -38 32 -52 103 -130 125 -139 9
-3 17 -16 19 -28 4 -31 28 -37 29 -7 1 13 5 4 11 -21 6 -26 20 -53 36 -67 28
-24 66 -31 77 -14 11 18 21 10 55 -42 87 -139 115 -178 125 -178 19 0 48 -37
36 -45 -6 -3 -11 -1 -11 4 0 6 -6 11 -14 11 -14 0 -59 51 -131 149 -26 36 -50
57 -63 58 -30 2 -28 -21 3 -35 27 -13 43 -55 27 -75 -8 -9 11 -35 72 -100 46
-48 88 -87 94 -87 7 0 12 -9 12 -20 0 -11 7 -20 15 -20 8 0 15 -5 15 -11 0 -6
27 -39 61 -72 34 -34 82 -86 107 -114 26 -29 52 -53 59 -53 7 0 13 -10 14 -22
0 -19 3 -17 12 9 14 39 32 57 46 49 6 -4 0 -25 -16 -57 -18 -35 -29 -46 -34
-37 -5 7 -9 9 -9 4 0 -5 6 -17 14 -25 8 -9 17 -29 20 -46 5 -24 4 -26 -3 -10
-9 19 -10 18 -10 -5 -1 -14 6 -37 13 -53 11 -19 12 -27 3 -27 -8 0 -7 -3 2 -9
8 -5 12 -18 8 -30 -3 -12 -1 -24 4 -27 5 -3 7 -10 3 -15 -3 -5 0 -16 6 -24 10
-12 9 -15 -8 -15 -12 0 -25 6 -29 13 -4 7 -32 32 -60 56 -62 51 -67 66 -18 57
39 -8 46 3 15 22 -11 7 -20 21 -20 32 0 13 -7 20 -20 20 -11 0 -20 5 -20 11 0
6 -9 8 -20 4 -15 -5 -20 -2 -20 12 0 24 -19 43 -42 43 -16 0 -17 -3 -8 -20 7
-14 8 -26 1 -38 -9 -15 -11 -13 -23 13 -7 18 -19 29 -28 28 -8 -2 -53 31 -99
73 -45 41 -84 74 -86 72 -2 -2 -1 -15 2 -31 4 -18 29 -47 80 -90 41 -34 79
-61 83 -60 5 2 14 -6 20 -17 6 -11 15 -18 21 -15 5 4 9 -1 9 -9 0 -9 6 -16 14
-16 8 0 16 -4 18 -10 3 -9 111 -98 158 -130 45 -31 109 -104 109 -124 -1 -12
4 -41 9 -66 9 -41 10 -37 7 35 -3 58 -2 68 4 38 4 -24 9 -44 12 -46 11 -9 89
16 89 29 0 14 28 19 88 15 22 -1 32 3 32 12 0 17 31 32 39 19 7 -10 37 -23 64
-28 13 -3 17 3 18 24 l1 27 8 -30 c7 -28 8 -28 9 -5 1 14 6 42 12 63 20 73 30
28 27 -124 -2 -82 -4 -145 -6 -139 -2 5 -7 10 -11 10 -14 0 5 -77 23 -95 25
-25 21 -48 -6 -39 -13 4 -25 9 -28 13 -3 3 -13 13 -23 21 -18 13 -19 11 -15
-59 2 -57 0 -76 -12 -83 -21 -14 -95 7 -119 33 -15 17 -23 19 -39 10 -35 -19
-59 -13 -66 14 -4 14 -11 25 -17 25 -6 0 -8 8 -5 18 3 9 1 24 -4 32 -8 12 -13
13 -29 3 -16 -10 -34 -4 -122 43 -57 30 -121 63 -141 72 -22 10 -39 26 -43 40
-4 17 -10 22 -25 17 -21 -7 -56 10 -125 58 -23 16 -41 24 -43 17 -10 -30 4
-40 223 -155 55 -29 120 -61 145 -71 59 -22 86 -48 94 -87 5 -22 9 -28 15 -19
10 17 21 -6 21 -46 0 -43 11 -72 27 -72 13 0 13 -3 3 -16 -11 -12 -11 -30 -1
-93 9 -54 10 -84 3 -98 -7 -12 -7 -24 0 -37 5 -9 7 -20 4 -23 -10 -10 -36 19
-36 41 0 24 -20 61 -20 38 0 -15 -66 -10 -144 10 -34 8 -42 7 -53 -8 -10 -14
-13 -15 -13 -3 0 8 6 21 13 27 13 14 18 62 5 62 -4 0 -8 12 -8 27 0 43 -25 63
-66 52 -22 -7 -47 -6 -71 0 -36 10 -58 7 -48 -8 2 -5 23 -11 45 -15 24 -4 40
-12 40 -20 0 -8 8 -17 17 -20 15 -6 15 -9 3 -16 -8 -5 -19 -6 -25 -2 -5 3 -4
-2 4 -11 21 -26 5 -32 -47 -18 -46 12 -66 27 -56 43 3 4 -2 8 -10 8 -8 0 -17
8 -21 18 -3 11 -17 24 -31 31 -20 9 -25 17 -22 36 3 13 2 26 -2 27 -4 2 -11
23 -14 47 -5 35 -3 42 6 33 14 -14 48 -16 48 -2 0 5 -9 14 -20 20 -11 6 -20 8
-20 4 0 -21 -30 23 -31 45 -1 24 -2 23 -11 -8 -7 -25 -6 -36 3 -41 7 -5 9 -18
6 -31 -3 -13 -2 -28 4 -35 5 -6 6 -19 3 -28 -8 -20 -53 -16 -139 15 -30 10
-61 19 -70 19 -8 0 -15 6 -15 14 0 19 -40 32 -50 17 -5 -9 -22 -8 -66 3 -98
24 -242 65 -374 106 -69 21 -210 65 -315 97 l-190 59 -7 60 c-3 34 -8 67 -9
75 -8 42 33 80 47 44 4 -8 10 -15 16 -15 5 0 6 5 2 12 -4 7 -3 8 5 4 6 -4 18
-2 26 4 12 10 17 7 25 -14 5 -14 17 -26 25 -26 9 0 14 -4 11 -9 -3 -5 1 -12
10 -15 10 -4 13 -2 8 6 -5 8 -2 9 10 5 10 -4 20 -7 22 -7 3 0 2 -5 -1 -10 -3
-5 -2 -10 4 -10 5 0 14 7 19 16 7 13 13 14 29 5 36 -18 114 -42 126 -38 14 5
-93 53 -107 49 -5 -2 -12 1 -15 6 -3 5 -32 20 -63 35 -53 24 -57 28 -61 64
l-4 38 -1 -43 c-1 -24 -5 -42 -9 -40 -107 51 -126 59 -132 49 -4 -5 -7 9 -7
32 -1 63 -23 255 -36 304 -5 24 -15 40 -20 37 -5 -4 -5 -10 0 -17 5 -7 12 -47
16 -89 16 -197 19 -227 25 -224 3 2 6 -31 6 -75 0 -43 2 -79 5 -79 10 0 3
-101 -8 -112 -15 -15 -32 0 -33 30 -1 21 -2 22 -6 7 -8 -33 -17 -36 -67 -19
-41 14 -47 19 -42 39 5 20 -1 24 -61 44 -36 12 -74 26 -84 32 -16 8 -19 6 -19
-11 0 -11 -3 -20 -7 -20 -16 1 -123 30 -258 70 -77 23 -192 56 -255 74 -63 18
-199 63 -302 99 -203 72 -321 109 -528 167 -74 21 -182 52 -240 70 -136 42
-145 44 -275 79 -60 16 -245 72 -410 124 -165 52 -327 103 -360 112 -73 21
-88 32 -82 61 2 14 0 21 -8 18 -7 -3 -15 5 -19 18 -11 41 -7 58 13 58 15 0 21
-8 24 -32 4 -32 4 -32 5 5 2 33 6 40 37 53 20 8 33 19 30 24 -9 14 3 12 51 -6
31 -12 47 -13 61 -6 17 10 16 11 -8 20 -14 6 -63 29 -109 51 -46 23 -84 40
-84 39 -1 -2 -7 -10 -14 -19 -10 -14 -10 -17 0 -16 22 2 88 -36 88 -50 0 -16
-13 -21 -64 -25 -35 -3 -41 0 -47 22 -7 24 -7 24 -8 2 -2 -40 -83 -153 -96
-132 -3 5 -2 10 3 10 6 0 12 16 14 35 4 33 2 35 -30 41 -43 8 -54 -3 -43 -44
9 -28 7 -32 -10 -32 -11 0 -22 7 -25 15 -5 13 7 277 23 474 4 56 3 82 -4 78
-5 -4 -13 -64 -17 -134 -4 -70 -13 -204 -21 -298 -8 -93 -17 -208 -20 -255 -3
-47 -12 -167 -20 -268 -18 -215 -18 -222 -6 -222 5 0 12 53 17 117 9 114 10
118 32 115 18 -3 22 2 22 23 0 24 3 26 29 20 25 -5 31 -2 45 26 19 38 19 39 5
39 -5 0 -7 -4 -4 -10 3 -5 2 -10 -3 -10 -5 0 -12 9 -15 20 -4 17 -10 20 -32
14 -25 -6 -26 -5 -16 14 8 15 8 23 0 27 -6 4 -13 -2 -16 -14 -8 -33 -20 -16
-17 26 2 35 4 38 31 35 37 -4 49 -17 34 -36 -8 -10 -9 -16 -1 -21 5 -3 13 1
16 9 7 19 37 21 66 5 11 -6 36 -13 56 -15 50 -6 102 -26 96 -36 -3 -4 -24 -8
-47 -8 -61 0 -77 -2 -77 -11 0 -4 6 -10 13 -13 6 -3 -5 -4 -26 -1 -33 5 -38 3
-49 -20 -6 -14 -9 -27 -7 -30 9 -8 279 -75 301 -74 13 0 17 3 11 6 -7 2 -13 9
-13 14 0 15 33 9 70 -12 l35 -20 -32 4 c-23 2 -33 -1 -33 -10 0 -8 11 -12 33
-11 32 1 270 -51 422 -92 44 -13 96 -26 115 -31 291 -70 727 -178 840 -209 80
-22 174 -47 210 -55 100 -24 374 -96 377 -99 2 -1 6 -23 9 -48 l6 -45 -32 5
-33 5 5 -147 c3 -80 11 -152 16 -159 6 -7 32 -13 59 -12 l48 0 1 77 c0 43 3
80 6 83 7 8 16 -102 23 -285 3 -80 8 -169 11 -198 l5 -52 45 0 c39 0 44 2 36
18 -5 9 -10 44 -11 77 -1 33 -6 140 -11 238 -10 176 -9 178 13 215 35 56 38
69 17 75 -16 4 -21 -2 -26 -32 -4 -20 -9 -30 -11 -23 -3 6 -13 12 -24 12 -16
0 -18 4 -11 18 5 9 9 37 9 62 1 25 -1 36 -4 25 -10 -41 -25 -41 -23 0 3 62 1
75 -11 75 -6 0 -9 -9 -6 -20 3 -11 0 -20 -5 -20 -7 0 -9 -23 -6 -65 3 -37 2
-65 -3 -65 -15 0 -19 19 -22 106 -4 89 -14 109 -65 124 l-27 8 31 1 c16 1 34
-3 40 -9 11 -11 54 -2 54 11 0 5 -12 14 -26 20 -15 5 -25 12 -22 14 3 3 30 -6
62 -20 63 -28 70 -30 61 -15 -10 17 14 11 33 -8 10 -10 45 -24 77 -31 94 -19
115 -30 115 -58 0 -20 -2 -22 -14 -11 -8 7 -12 16 -9 21 2 4 -3 7 -12 7 -9 0
-13 -4 -10 -10 4 -6 -5 -10 -19 -10 -16 0 -26 6 -26 14 0 8 -4 18 -10 21 -5 3
-7 0 -4 -9 5 -12 -1 -13 -38 -3 -24 5 -45 13 -48 16 -3 3 -13 7 -22 7 -10 1
-30 4 -45 7 l-28 6 29 -13 c17 -8 33 -22 36 -31 4 -13 34 -25 101 -42 53 -14
100 -31 107 -41 11 -14 14 -15 22 -3 7 12 16 13 52 3 108 -29 272 -91 280
-106 9 -16 11 -16 29 -1 30 28 47 12 52 -47 l3 -53 2 57 c2 50 4 56 21 51 22
-5 29 -40 22 -105 -3 -40 -11 -46 -33 -25 -7 8 -19 12 -27 9 -7 -2 -25 5 -40
16 -24 18 -129 46 -218 59 -40 6 -38 28 -18 -253 12 -153 20 -212 30 -220 16
-12 24 -102 9 -112 -5 -4 -9 -80 -9 -177 0 -178 10 -228 44 -223 13 3 17 -13
24 -82 4 -47 8 -95 10 -108 2 -23 -1 -24 -93 -28 -52 -2 -119 -9 -147 -15 -54
-11 -92 -5 -105 15 -6 8 -11 7 -17 -4 -11 -16 3 -40 23 -40 7 0 29 -9 50 -19
21 -11 51 -23 67 -26 34 -8 36 -13 12 -31 -17 -13 -17 -14 5 -20 12 -3 22 -11
22 -16 0 -6 -7 -7 -15 -4 -19 7 -25 -8 -28 -60 -1 -29 2 -39 13 -39 11 0 15
11 15 43 0 24 4 40 10 38 6 -1 9 -10 7 -20 -2 -10 4 -16 15 -16 17 -1 17 -2
-1 -15 -19 -14 -18 -15 12 -15 20 0 31 5 29 13 -1 7 10 13 26 15 35 4 31 26
-6 30 -42 5 -21 28 29 31 24 1 44 -2 43 -6 -4 -23 3 -25 17 -5 15 22 69 32 76
13 2 -4 20 -11 41 -15 22 -4 37 -4 34 1 -3 4 14 8 38 7 24 0 54 5 67 12 22 13
22 13 2 14 -18 0 -22 8 -27 57 -3 31 -12 60 -19 64 -8 5 14 9 53 9 42 0 72 5
85 15 10 8 26 14 34 14 11 0 10 -3 -4 -14 -24 -18 -18 -18 39 -4 25 6 42 15
39 20 -14 23 57 -8 74 -32 9 -13 21 -19 34 -16 24 7 50 -2 43 -13 -3 -4 2 -10
10 -14 8 -3 15 -1 15 5 0 7 13 9 38 5 36 -6 37 -6 12 8 l-25 15 28 1 c15 0 27
-4 27 -10 0 -5 5 -10 12 -10 9 0 9 3 0 12 -7 7 -12 15 -12 18 0 3 43 4 96 2
93 -3 194 11 194 28 0 8 -39 13 -165 24 -34 2 -50 8 -50 17 0 10 -13 14 -40
14 -22 1 -51 7 -65 15 -14 8 -59 16 -100 19 -52 4 -74 10 -73 19 4 15 0 15
-44 -3 -90 -38 -109 -8 -98 165 6 102 5 118 -9 123 -9 4 -16 17 -16 31 0 14
-5 28 -11 32 -6 3 -9 17 -6 30 2 14 0 27 -4 30 -5 3 -9 15 -9 27 0 12 4 17 8
11 4 -5 38 -16 75 -22 55 -10 74 -10 100 1 24 10 93 13 282 13 l250 -1 10 -42
c6 -23 13 -45 18 -49 4 -4 7 -17 7 -29 0 -21 77 -100 131 -135 12 -8 32 -24
44 -35 12 -11 43 -37 69 -59 l47 -38 150 -11 c82 -6 149 -14 149 -19 0 -4 -9
-8 -20 -8 -23 0 -126 -26 -142 -36 -7 -4 -42 -13 -78 -20 -36 -7 -123 -29
-195 -49 -190 -53 -275 -75 -320 -85 -22 -5 -65 -16 -95 -25 -95 -26 -594
-153 -730 -185 -106 -24 -248 -62 -270 -71 -22 -10 -77 -25 -322 -88 -37 -10
-71 -20 -75 -24 -3 -4 64 -7 150 -7 86 0 158 4 162 9 3 5 20 13 37 17 34 7 42
10 96 37 18 9 39 14 46 11 8 -3 17 -1 20 4 3 6 39 16 79 23 39 7 78 19 85 26
7 7 24 13 36 13 13 0 65 13 115 29 50 16 109 32 131 36 22 4 42 11 46 16 3 5
18 9 33 9 16 0 44 6 62 14 19 8 61 19 94 25 33 6 83 20 110 30 28 11 70 25 95
31 25 7 92 28 150 47 58 19 125 39 150 43 25 5 88 23 140 39 52 17 103 31 113
31 9 0 17 5 17 11 0 7 11 8 29 4 17 -3 32 -2 36 4 3 6 17 11 30 11 13 0 52 7
86 16 46 12 68 13 80 6 19 -12 90 -4 100 11 6 9 143 5 647 -19 l124 -6 -28
-29 c-28 -29 -29 -30 -124 -26 -54 3 -82 1 -65 -3 17 -4 54 -8 83 -9 51 -1 52
-2 35 -19 -10 -10 -35 -29 -57 -42 -21 -13 -48 -32 -60 -42 -11 -11 -50 -40
-86 -66 -36 -26 -70 -51 -77 -57 -7 -5 -19 -16 -28 -23 -13 -11 -127 -27 -217
-32 -5 0 -8 -4 -8 -10 0 -5 21 -15 46 -23 l47 -13 -29 -11 c-16 -7 -46 -14
-66 -18 -24 -4 -38 -11 -38 -20 0 -8 -7 -15 -15 -15 -8 0 -15 -7 -15 -15 0 -8
-9 -19 -20 -25 -11 -6 -20 -15 -20 -20 0 -6 252 -10 685 -10 l685 0 0 849 0
849 -24 -1 c-15 0 -23 -4 -20 -12 8 -19 -17 -33 -66 -37 -25 -2 -50 -7 -57
-11 -22 -13 -41 4 -52 48 -13 53 -14 58 -2 50 5 -3 13 0 17 6 3 6 2 14 -4 18
-6 3 -10 15 -9 26 2 16 -3 19 -25 17 -14 -2 -29 2 -33 7 -3 6 -11 11 -16 11
-6 0 -7 -4 -4 -10 3 -5 -6 -12 -20 -16 -16 -4 -24 -12 -21 -20 3 -7 0 -16 -6
-20 -7 -5 -3 -11 12 -16 30 -11 38 -2 22 23 -12 18 -11 20 4 17 18 -3 44 -73
44 -120 0 -38 -44 -51 -66 -19 -8 11 -24 21 -35 21 -17 0 -20 -4 -14 -29 6
-26 4 -28 -22 -25 -17 2 -40 17 -59 38 -26 29 -40 36 -72 38 -31 1 -43 7 -52
24 -8 15 -18 20 -29 16 -13 -5 -14 -3 -3 10 24 30 -20 72 -47 45 -8 -8 -11 -8
-11 0 0 13 28 25 40 18 4 -3 10 8 12 25 2 16 1 27 -4 24 -4 -3 -8 -1 -8 4 0
13 -53 10 -63 -3 -5 -5 -6 8 -2 30 4 26 -2 68 -15 119 -23 90 -25 125 -5 81
l14 -30 1 30 c1 29 2 29 11 7 5 -13 6 -34 3 -47 -3 -13 -1 -32 4 -42 9 -15 11
-13 10 15 -1 18 2 35 5 39 4 3 7 -11 8 -33 0 -36 1 -37 10 -14 7 17 7 32 0 48
-17 37 -13 50 5 17 9 -16 16 -42 15 -57 -1 -16 3 -28 9 -28 5 0 10 9 10 19 0
10 6 21 13 24 10 4 13 -2 10 -21 -3 -22 -2 -24 5 -7 8 18 9 17 16 -8 3 -15 11
-27 16 -27 6 0 10 -7 10 -16 0 -9 8 -28 19 -42 10 -15 22 -38 26 -52 4 -14 13
-32 20 -40 8 -8 19 -28 25 -44 6 -16 13 -27 15 -24 7 6 -37 112 -47 116 -5 2
-6 7 -4 11 7 10 -21 100 -35 118 -7 7 -9 17 -5 21 11 10 87 11 80 1 -3 -5 -12
-9 -19 -9 -16 0 -29 -38 -23 -67 4 -24 56 -31 64 -8 4 9 2 26 -3 38 -6 13 -7
30 -1 42 7 18 8 18 4 -3 -3 -18 -1 -22 11 -18 8 3 28 6 45 6 41 0 31 24 -12
30 l-34 5 37 39 c20 21 37 33 37 26 0 -9 24 -11 94 -8 74 2 98 7 115 22 18 16
22 17 35 4 13 -14 12 -17 -12 -28 -15 -6 -40 -18 -55 -26 -17 -8 -59 -14 -103
-14 -59 0 -74 -3 -74 -15 0 -12 14 -15 67 -15 70 0 173 19 173 32 0 4 23 4 50
1 l50 -6 0 242 c0 186 -3 241 -12 241 -9 0 -8 4 2 10 13 9 13 11 0 19 -9 7
-17 6 -21 -1 -4 -6 -12 -7 -18 -4 -6 4 -11 0 -11 -10 0 -16 -1 -16 -15 2 -13
17 -14 18 -15 1 0 -14 -4 -16 -18 -8 -21 11 -63 4 -74 -12 -4 -7 -14 -7 -30 0
l-23 12 28 0 c15 1 27 5 27 11 0 5 17 12 38 16 20 4 42 11 49 16 7 5 22 7 33
3 15 -5 28 -1 41 14 19 20 19 59 19 1646 l0 1625 -1945 0 -1945 0 32 -44 c306
-410 349 -464 369 -459 11 3 19 1 19 -4 0 -6 36 -59 80 -118 47 -64 78 -115
75 -124 -2 -10 23 -50 65 -101 39 -47 70 -91 70 -98 0 -8 8 -10 23 -7 17 4 27
-2 43 -25 19 -27 20 -36 11 -80 -5 -28 -14 -50 -19 -50 -4 0 -6 12 -3 28 3 15
2 20 -1 12 -4 -8 -12 -18 -17 -22 -11 -7 -37 14 -37 31 0 5 -9 12 -20 16 -11
3 -37 30 -57 59 -21 29 -42 53 -48 54 -5 1 -11 10 -13 22 -2 11 -10 20 -18 20
-8 0 -13 4 -10 9 3 5 -1 11 -9 15 -8 3 -15 13 -15 21 0 9 -4 14 -9 11 -5 -3
-14 7 -20 22 -6 15 -25 43 -42 62 -51 59 -153 172 -175 194 -18 17 -93 111
-122 151 -4 6 -19 27 -34 47 -19 25 -24 38 -15 41 8 4 7 6 -3 6 -20 1 -96 85
-172 189 -66 92 -94 121 -117 122 -10 0 -11 -3 -2 -14 15 -18 27 -126 14 -126
-13 0 -65 55 -58 62 3 3 7 15 10 27 4 22 -10 29 -18 9 -3 -7 -6 -3 -6 9 -1 12
-6 25 -13 29 -8 5 -9 0 -6 -14 8 -28 -18 -30 -27 -2 -8 27 -56 27 -73 0z m58
-60 c-8 -5 -19 -10 -25 -10 -5 0 -3 5 5 10 8 5 20 10 25 10 6 0 3 -5 -5 -10z
m265 -160 c-3 -5 0 -10 7 -10 7 0 23 -11 36 -25 l23 -24 -26 -17 c-14 -9 -27
-15 -29 -13 -1 2 -13 19 -26 38 -20 30 -21 34 -6 28 13 -5 17 -3 13 7 -3 8 -3
17 0 20 10 10 15 7 8 -4z m137 -122 c45 -48 48 -55 48 -105 0 -29 -3 -53 -6
-53 -18 0 -42 47 -37 73 4 21 2 27 -12 27 -13 0 -15 6 -10 29 3 17 2 32 -4 36
-7 4 -11 -10 -11 -41 0 -33 -3 -45 -10 -38 -13 13 -24 124 -13 124 4 0 29 -23
55 -52z m3505 -174 c-3 -3 -12 -4 -19 -1 -8 3 -5 6 6 6 11 1 17 -2 13 -5z
m-2717 -444 c0 -5 -7 -10 -15 -10 -8 0 -15 5 -15 10 0 6 7 10 15 10 8 0 15 -4
15 -10z m-10 -71 c0 -11 -4 -17 -10 -14 -5 3 -10 13 -10 21 0 8 5 14 10 14 6
0 10 -9 10 -21z m-36 -6 c4 -9 3 -20 -2 -25 -6 -6 -11 1 -14 16 -6 29 6 35 16
9z m36 -69 c0 -8 37 -60 83 -115 280 -342 532 -660 599 -759 10 -14 35 -50 57
-80 23 -30 55 -76 73 -102 18 -27 38 -48 45 -48 17 0 63 -63 63 -85 0 -21 47
-75 65 -75 14 0 55 -54 55 -72 0 -21 80 -128 96 -128 8 0 18 -8 21 -17 4 -10
14 -23 22 -30 13 -9 14 -14 4 -24 -11 -11 -13 -10 -13 5 0 12 -5 16 -18 12
-11 -4 -24 3 -37 21 -11 14 -24 31 -30 37 -22 24 -62 82 -68 99 -4 10 -11 15
-17 12 -6 -4 -7 1 -3 11 5 14 3 16 -11 11 -14 -6 -16 -3 -11 16 5 17 4 18 -4
7 -11 -17 -10 -17 -36 33 -11 20 -28 40 -37 43 -17 5 -23 17 -19 37 1 5 -3 6
-9 2 -5 -3 -10 1 -10 10 0 9 -4 13 -10 10 -5 -3 -10 1 -10 9 0 9 -5 16 -11 16
-6 0 -17 7 -25 15 -10 10 -11 15 -3 15 9 0 9 3 -1 14 -6 8 -18 12 -26 9 -10
-4 -15 0 -14 8 5 34 0 51 -15 46 -8 -4 -17 -1 -21 5 -4 7 -3 8 4 4 14 -8 15
-4 6 18 -3 9 -10 16 -16 16 -5 0 -6 -5 -2 -12 4 -7 3 -8 -4 -4 -6 4 -9 13 -6
21 6 14 -46 75 -64 75 -6 0 -12 10 -14 23 -2 12 -9 21 -15 20 -7 -2 -10 4 -7
12 4 10 0 15 -14 15 -12 0 -24 5 -28 12 -4 7 -3 8 4 4 7 -4 12 -3 12 2 0 10
-19 28 -35 34 -5 1 -8 9 -7 17 2 7 -1 10 -6 7 -6 -3 -13 6 -16 20 -4 14 -12
24 -19 21 -19 -6 -108 88 -101 107 5 13 2 15 -12 9 -17 -6 -18 -5 -5 11 13 16
13 17 -5 14 -16 -2 -19 2 -17 27 2 20 0 26 -6 16 -7 -11 -14 -9 -34 11 -14 14
-28 24 -30 21 -3 -2 -4 4 -3 14 0 10 -4 17 -11 16 -7 -2 -10 4 -7 12 4 8 1 15
-5 15 -5 0 -21 12 -35 27 -19 20 -23 30 -14 40 6 8 8 16 4 20 -3 3 -6 1 -6 -5
0 -7 -5 -12 -11 -12 -13 0 -69 61 -64 70 2 3 -10 16 -26 29 -16 13 -29 28 -29
33 0 6 6 5 15 -2 29 -24 33 -4 4 25 -18 17 -27 22 -23 12 3 -10 1 -17 -5 -17
-6 0 -11 5 -11 10 0 6 -6 10 -12 10 -15 1 -67 69 -90 116 -10 22 -12 36 -6 45
8 11 9 10 4 -3 -3 -10 -1 -20 4 -23 6 -4 10 9 10 29 0 40 8 66 21 66 5 0 9 -7
9 -16z m30 -300 c0 -3 -7 -1 -15 6 -8 7 -15 17 -15 22 0 5 7 3 15 -6 8 -8 15
-18 15 -22z m116 -121 c7 -47 -12 -70 -21 -26 -4 15 -11 37 -16 48 -7 16 -8
14 -4 -10 4 -20 3 -27 -3 -20 -6 6 -14 33 -17 60 l-7 50 30 -31 c20 -20 34
-45 38 -71z m1804 -985 c0 -13 -27 -9 -38 5 -6 6 -14 26 -17 42 l-7 30 30 -35
c17 -19 31 -38 32 -42z m-424 -98 c2 -34 -23 -60 -57 -60 -29 0 -46 14 -29 25
5 3 10 13 10 22 0 43 74 56 76 13z m-300 -78 c6 -12 23 -33 37 -46 15 -14 27
-29 27 -35 0 -18 -20 -23 -26 -7 -3 9 -10 13 -15 10 -5 -3 -16 11 -26 30 -9
19 -19 33 -23 31 -3 -2 -7 8 -8 22 -2 30 18 27 34 -5z m-4236 -323 c0 -10 -7
-19 -15 -19 -16 0 -19 9 -9 34 8 20 24 11 24 -15z m35 -114 c50 -14 97 -28
105 -32 8 -4 33 -12 55 -19 172 -52 429 -135 443 -143 22 -13 4 -14 -34 -2
-16 5 -74 22 -129 36 -84 23 -277 76 -512 142 -29 8 -53 20 -53 27 0 17 10 25
23 20 7 -2 53 -15 102 -29z m-170 5 c3 -5 -3 -10 -14 -10 -11 0 -23 5 -26 10
-3 6 3 10 14 10 11 0 23 -4 26 -10z m4693 -2 c7 -7 12 -19 12 -27 0 -9 41 -57
90 -108 50 -51 90 -95 90 -99 0 -4 10 -18 22 -31 12 -13 19 -26 16 -29 -9 -8
-48 15 -48 28 0 6 -10 20 -22 32 -28 26 -128 140 -159 181 -13 17 -27 33 -32
36 -10 7 -1 29 12 29 4 0 12 -5 19 -12z m1349 -144 c-3 -3 -12 -4 -19 -1 -8 3
-5 6 6 6 11 1 17 -2 13 -5z m-144 -71 c-7 -2 -19 -2 -25 0 -7 3 -2 5 12 5 14
0 19 -2 13 -5z m-4963 -23 c19 -4 91 -23 160 -40 69 -18 161 -43 205 -56 217
-64 373 -109 505 -143 259 -69 340 -96 340 -115 0 -4 -8 -5 -17 -1 -30 12
-240 75 -331 99 -48 13 -127 36 -177 51 -49 15 -124 36 -165 47 -41 10 -129
35 -195 54 -66 20 -151 44 -190 53 -108 28 -215 61 -215 67 0 3 10 3 23 -1 12
-3 38 -10 57 -15z m143 -110 c20 -1 20 -2 4 -11 -13 -7 -23 -6 -40 7 -16 12
-17 15 -4 10 10 -3 28 -6 40 -6z m52 -40 c0 -13 -6 -25 -14 -28 -8 -3 -11 0
-7 7 4 6 0 11 -11 11 -15 0 -16 2 -3 10 13 9 13 10 0 10 -13 0 -13 1 0 10 22
14 35 7 35 -20z m79 -37 c3 -7 16 -13 28 -13 13 0 34 -7 46 -16 12 -8 31 -13
41 -9 10 3 24 -1 31 -10 9 -10 9 -15 1 -15 -15 0 -205 51 -211 56 -7 8 22 23
42 21 9 -1 20 -7 22 -14z m203 -19 c-3 -3 -12 -4 -19 -1 -8 3 -5 6 6 6 11 1
17 -2 13 -5z m20 -50 c-3 -3 -12 -4 -19 -1 -8 3 -5 6 6 6 11 1 17 -2 13 -5z
m3353 -20 c0 -8 8 -14 18 -14 16 -1 16 -1 -1 -11 -15 -9 -24 -6 -43 12 -17 16
-21 25 -13 30 17 10 39 0 39 -17z m-3086 -8 c22 -7 45 -21 51 -30 13 -17 40
-23 30 -6 -10 16 23 11 110 -15 48 -14 79 -28 77 -35 -2 -8 3 -10 13 -6 23 8
62 -3 69 -19 3 -9 0 -12 -11 -8 -8 3 -19 0 -23 -7 -5 -8 -16 -9 -30 -5 -18 6
-20 9 -9 17 9 6 3 7 -20 3 -23 -5 -63 1 -130 20 -125 35 -143 43 -136 56 5 7
-6 8 -32 5 -22 -3 -29 -3 -15 2 30 9 30 25 0 34 -20 5 -20 6 -3 7 11 0 38 -5
59 -13z m3871 -16 c3 -5 1 -10 -4 -10 -6 0 -11 5 -11 10 0 6 2 10 4 10 3 0 8
-4 11 -10z m495 -10 c0 -5 -4 -10 -9 -10 -6 0 -13 5 -16 10 -3 6 1 10 9 10 9
0 16 -4 16 -10z m-500 -41 c0 -6 -4 -7 -10 -4 -5 3 -10 11 -10 16 0 6 5 7 10
4 6 -3 10 -11 10 -16z m-73 -21 c-3 -8 -6 -5 -6 6 -1 11 2 17 5 13 3 -3 4 -12
1 -19z m61 -40 c6 -16 8 -28 3 -28 -8 0 -31 52 -31 68 0 11 16 -13 28 -40z
m-3393 -8 c3 -5 -3 -10 -14 -10 -11 0 -23 5 -26 10 -3 6 3 10 14 10 11 0 23
-4 26 -10z m-95 -10 c0 -5 -2 -10 -4 -10 -3 0 -8 5 -11 10 -3 6 -1 10 4 10 6
0 11 -4 11 -10z m3578 -12 c2 -9 -4 -18 -13 -21 -11 -5 -15 0 -15 19 0 28 23
29 28 2z m-3151 -8 c32 -11 65 -20 74 -20 18 0 164 -41 212 -59 45 -17 21 -30
-25 -14 -68 24 -150 44 -188 47 -39 3 -72 15 -82 29 -4 7 -23 5 -53 -3 -43
-12 -48 -12 -57 4 -6 11 -17 15 -31 11 -16 -5 -18 -4 -8 3 11 8 9 11 -10 15
-13 2 6 5 44 6 45 1 86 -6 124 -19z m2530 -112 c-3 -7 -5 -2 -5 12 0 14 2 19
5 13 2 -7 2 -19 0 -25z m-2136 -6 c-7 -2 -18 1 -23 6 -8 8 -4 9 13 5 13 -4 18
-8 10 -11z m-21 -41 c0 -10 44 -9 51 2 4 5 29 2 60 -6 30 -9 80 -21 112 -27
57 -12 80 -31 60 -51 -10 -10 -140 19 -193 42 -22 10 -62 18 -112 22 -10 1
-18 9 -18 18 0 12 6 16 20 12 11 -3 20 -8 20 -12z m125 -71 c3 -6 -1 -7 -9 -4
-18 7 -21 14 -7 14 6 0 13 -4 16 -10z m218 -25 c-6 -17 -25 -15 -31 3 -2 7 5
12 17 12 14 0 19 -5 14 -15z m47 0 c0 -8 -4 -15 -10 -15 -5 0 -10 7 -10 15 0
8 5 15 10 15 6 0 10 -7 10 -15z m-119 -15 c10 0 19 -4 19 -10 0 -5 -6 -10 -13
-10 -16 0 -37 20 -36 35 0 5 3 4 6 -2 2 -7 13 -13 24 -13z m220 4 c35 -9 72
-22 84 -29 11 -8 38 -16 60 -20 58 -10 105 -25 105 -35 0 -13 -18 -22 -22 -10
-3 8 -95 39 -232 76 -28 8 -54 18 -60 24 -13 13 -9 13 65 -6z m138 -75 c13 -8
12 -9 -6 -4 -18 5 -22 3 -17 -10 5 -13 2 -14 -17 -6 -13 5 -41 12 -61 16 -21
3 -40 9 -42 14 -7 11 123 3 143 -10z m206 -30 c15 -15 -19 -11 -56 6 l-34 16
40 -6 c22 -4 44 -11 50 -16z m-276 -14 c58 -14 122 -29 141 -34 132 -35 122
-29 115 -61 -8 -37 13 -183 29 -192 23 -15 27 -7 20 38 -5 34 -4 45 5 40 6 -4
11 -3 11 3 0 5 12 14 28 19 26 10 26 11 5 17 -23 7 -33 31 -33 83 0 36 12 40
38 14 10 -10 48 -26 85 -36 53 -14 67 -22 67 -37 0 -10 -4 -19 -10 -19 -11 0
-12 -62 -2 -130 5 -30 12 -45 22 -45 11 0 15 12 15 49 0 48 1 50 33 58 29 8
31 10 17 24 -8 9 -15 27 -15 42 0 43 -11 71 -29 75 -12 4 -11 5 4 5 11 0 38
-5 60 -13 30 -9 34 -13 17 -14 -16 -1 -22 -6 -20 -18 2 -11 21 -20 60 -28 55
-11 87 -25 57 -25 -26 0 -39 -50 -31 -124 8 -82 32 -105 32 -32 0 44 2 47 30
53 22 4 28 9 21 17 -15 18 -30 95 -20 102 5 3 9 1 9 -3 0 -5 15 -13 33 -18
l32 -10 11 -120 c6 -66 15 -145 19 -176 8 -60 8 -60 -55 -74 -8 -2 -16 -9 -18
-14 -5 -16 -32 -13 -32 3 0 23 -27 26 -54 5 l-25 -20 -18 38 -17 38 -4 -37 -3
-37 -212 -3 c-117 -2 -274 -2 -349 0 -119 2 -137 5 -142 20 -3 9 -8 79 -12
154 l-7 138 34 14 c59 24 99 28 99 10 0 -9 6 -14 13 -11 6 2 11 10 10 16 -2 6
4 11 12 11 9 0 21 11 27 25 9 19 16 23 35 19 47 -12 22 13 -27 26 -53 14 -58
23 -35 54 17 22 6 36 -27 36 -13 0 -18 -8 -18 -30 0 -35 -1 -35 -64 -14 -45
16 -48 18 -42 45 4 23 2 29 -12 29 -12 0 -21 12 -29 40 -6 25 -7 40 0 40 5 0
57 -11 116 -25z m2129 -4 c3 -8 -1 -12 -9 -9 -7 2 -15 10 -17 17 -3 8 1 12 9
9 7 -2 15 -10 17 -17z m-1875 -8 c18 -9 27 -18 20 -20 -6 -2 -29 5 -50 16 -23
12 -31 20 -20 21 10 0 32 -7 50 -17z m71 8 c3 -4 3 -11 0 -14 -8 -8 -34 3 -34
14 0 11 27 12 34 0z m63 -17 c-3 -3 -12 -4 -19 -1 -8 3 -5 6 6 6 11 1 17 -2
13 -5z m100 -22 c6 -4 17 -20 23 -36 9 -24 8 -27 -6 -22 -8 3 -20 6 -26 6 -6
0 -8 7 -4 15 3 8 1 15 -4 15 -6 0 -10 7 -10 15 0 16 9 19 27 7z m1556 -9 c-7
-2 -21 -2 -30 0 -10 3 -4 5 12 5 17 0 24 -2 18 -5z m-366 -64 c2 -16 -1 -19
-9 -11 -5 5 -7 15 -4 21 10 15 12 14 13 -10z m-1872 -45 c-1 -53 -20 -50 -21
4 -1 27 3 41 10 39 6 -2 11 -21 11 -43z m862 30 c-3 -3 -12 -4 -19 -1 -8 3 -5
6 6 6 11 1 17 -2 13 -5z m157 -25 c5 -5 7 -12 3 -16 -4 -4 -13 -1 -19 5 -7 7
-21 12 -32 12 -12 0 -28 5 -36 10 -10 7 -1 8 30 4 25 -4 49 -10 54 -15z m-983
-12 c-1 -12 -15 -9 -19 4 -3 6 1 10 8 8 6 -3 11 -8 11 -12z m186 -23 c-3 -3
-12 -4 -19 -1 -8 3 -5 6 6 6 11 1 17 -2 13 -5z m926 -1 c-7 -2 -19 -2 -25 0
-7 3 -2 5 12 5 14 0 19 -2 13 -5z m-1143 -25 c7 -38 10 -131 4 -125 -5 5 -9
25 -10 45 -1 20 -5 47 -9 60 -5 14 -3 22 4 22 6 0 11 -1 11 -2z m54 -16 c3 -9
4 -28 1 -42 -3 -13 0 -54 6 -90 6 -36 12 -114 15 -175 2 -60 7 -141 10 -179 5
-55 4 -68 -7 -64 -17 6 -26 53 -37 198 -7 91 -10 103 -12 55 l-2 -60 -14 70
c-18 97 -18 165 0 165 12 0 14 13 9 70 -5 60 -4 70 10 70 9 0 18 -8 21 -18z
m76 -12 c0 -11 -7 -20 -15 -20 -8 0 -15 9 -15 20 0 11 7 20 15 20 8 0 15 -9
15 -20z m40 16 c0 -3 -4 -8 -10 -11 -5 -3 -10 -1 -10 4 0 6 5 11 10 11 6 0 10
-2 10 -4z m1200 -76 c0 -5 -4 -10 -10 -10 -5 0 -10 5 -10 10 0 6 5 10 10 10 6
0 10 -4 10 -10z m40 -29 c0 -5 -6 -12 -12 -14 -7 -3 -3 -6 10 -6 12 -1 22 4
22 10 0 8 4 8 15 -1 8 -6 20 -8 26 -4 8 4 9 3 5 -4 -4 -7 -1 -12 9 -12 10 0
13 4 8 13 -4 6 5 4 20 -6 15 -10 31 -15 36 -13 5 3 11 -27 15 -67 3 -39 9 -91
12 -114 4 -28 2 -43 -5 -43 -6 0 -11 10 -12 23 -1 22 -1 22 -8 -2 -6 -22 -8
-23 -23 -8 -12 12 -18 13 -21 4 -9 -26 -37 15 -37 54 0 22 -4 39 -9 39 -4 0
-6 -22 -3 -50 9 -98 -47 -44 -62 59 -4 24 -13 49 -21 55 -19 14 -27 78 -11 88
16 11 46 10 46 -1z m-217 -33 c7 -10 10 -10 14 0 2 6 21 12 41 12 19 0 32 -3
29 -6 -3 -4 -2 -15 4 -25 9 -17 6 -19 -23 -19 -30 0 -31 -1 -12 -16 18 -15 17
-15 -13 -10 -41 7 -53 -11 -16 -25 20 -7 33 -7 45 0 21 13 27 5 34 -48 6 -41
-10 -86 -26 -76 -5 3 -14 24 -20 45 -7 27 -16 40 -28 40 -11 0 -13 -3 -5 -8 6
-4 13 -20 15 -36 3 -25 -1 -29 -24 -32 -28 -3 -32 5 -31 53 0 6 -5 9 -12 7 -7
-3 -15 -1 -18 4 -8 12 -27 134 -22 141 7 12 59 11 68 -1z m511 -31 c49 -10 60
-16 62 -34 5 -28 -16 -31 -23 -3 -5 20 -38 26 -110 23 -13 -1 -23 6 -26 19 -5
17 -2 19 16 13 12 -4 49 -12 81 -18z m36 -122 c0 -14 -2 -25 -4 -25 -2 0 -6
11 -8 25 -3 14 -1 25 3 25 5 0 9 -11 9 -25z m-620 6 c0 -5 -7 -11 -14 -14 -10
-4 -13 -1 -9 9 6 15 23 19 23 5z m570 -68 c0 -24 -4 -43 -9 -43 -10 0 -21 50
-21 94 1 29 1 30 15 12 8 -11 15 -39 15 -63z m35 8 c6 -34 4 -42 -6 -39 -14 5
-29 74 -21 98 7 19 18 -6 27 -59z m-628 7 c-3 -8 -6 -5 -6 6 -1 11 2 17 5 13
3 -3 4 -12 1 -19z m1118 -68 c7 -12 -19 -12 -55 0 -22 7 -21 8 12 9 20 1 40
-3 43 -9z m58 -7 c-7 -2 -19 -2 -25 0 -7 3 -2 5 12 5 14 0 19 -2 13 -5z m321
-11 c2 -4 -11 -6 -30 -4 -19 2 -34 6 -34 8 0 8 59 4 64 -4z m94 -9 c-10 -2
-26 -2 -35 0 -10 3 -2 5 17 5 19 0 27 -2 18 -5z m55 0 c-7 -2 -19 -2 -25 0 -7
3 -2 5 12 5 14 0 19 -2 13 -5z m-377 -50 c-9 -9 -57 -10 -62 -2 -2 5 11 8 31
7 19 -1 33 -3 31 -5z m299 -13 l39 -20 -64 0 c-36 0 -72 5 -80 10 -12 8 -11
10 7 10 12 0 25 5 28 10 9 15 26 12 70 -10z m-2625 -17 c0 -10 3 -28 6 -40 5
-18 3 -21 -14 -16 -25 6 -31 -17 -20 -67 4 -19 11 -88 14 -152 6 -105 5 -118
-10 -118 -13 0 -16 13 -18 68 -1 37 -1 81 -1 97 1 17 -4 67 -11 113 -12 74
-12 83 3 92 10 6 11 10 4 10 -7 0 -13 4 -13 10 0 5 7 7 15 4 8 -4 15 -1 15 5
0 6 7 11 15 11 8 0 15 -8 15 -17z m2037 1 c-3 -3 -12 -4 -19 -1 -8 3 -5 6 6 6
11 1 17 -2 13 -5z m-1987 -79 c0 -14 -4 -25 -10 -25 -11 0 -14 33 -3 43 11 11
13 8 13 -18z m-13 -87 c-3 -7 -5 -2 -5 12 0 14 2 19 5 13 2 -7 2 -19 0 -25z
m23 -70 c-1 -13 2 -47 6 -77 6 -43 4 -53 -7 -49 -17 6 -26 148 -10 148 6 0 11
-10 11 -22z m-219 -158 c9 -108 19 -160 32 -160 5 0 8 -3 4 -6 -3 -3 -22 2
-42 12 -28 13 -33 19 -22 25 12 7 12 15 0 61 -25 89 -26 98 -13 113 9 11 9 15
1 15 -7 0 -9 5 -6 11 4 5 14 9 23 7 13 -3 18 -19 23 -78z m87 -29 c-4 -73 -3
-78 15 -73 20 5 37 -12 37 -37 0 -11 -4 -9 -16 5 -9 11 -17 15 -20 8 -2 -6
-18 -8 -35 -6 -37 5 -56 43 -40 80 6 12 11 36 11 52 0 17 4 30 9 30 5 0 12 12
16 27 13 52 27 -2 23 -86z m245 52 c-7 -2 -19 -2 -25 0 -7 3 -2 5 12 5 14 0
19 -2 13 -5z m242 -85 c-11 -6 -23 -16 -27 -22 -9 -13 -10 -3 -2 18 3 9 16 16
28 16 21 -1 21 -1 1 -12z m-446 -102 c8 -10 8 -16 -1 -24 -10 -8 -13 -4 -14
14 -2 28 -1 29 15 10z m-352 -55 c2 -21 -1 -31 -8 -29 -7 2 -13 19 -15 37 -3
23 0 31 8 29 7 -3 14 -19 15 -37z m80 23 c-3 -3 -12 -4 -19 -1 -8 3 -5 6 6 6
11 1 17 -2 13 -5z m190 -10 c-3 -3 -12 -4 -19 -1 -8 3 -5 6 6 6 11 1 17 -2 13
-5z"/>
<path d="M6095 4630 c-3 -5 -1 -10 4 -10 6 0 11 5 11 10 0 6 -2 10 -4 10 -3 0
-8 -4 -11 -10z"/>
<path d="M6250 4450 c0 -5 5 -10 11 -10 5 0 7 5 4 10 -3 6 -8 10 -11 10 -2 0
-4 -4 -4 -10z"/>
<path d="M6485 4169 c-4 -6 -5 -12 -2 -15 2 -3 7 2 10 11 7 17 1 20 -8 4z"/>
<path d="M5370 2030 c8 -5 24 -10 35 -10 17 0 17 2 5 10 -8 5 -24 10 -35 10
-17 0 -17 -2 -5 -10z"/>
<path d="M6580 1487 c1 -40 1 -41 16 -22 24 31 35 55 27 56 -4 0 -16 2 -25 4
-15 3 -18 -4 -18 -38z"/>
<path d="M6830 1448 c0 -30 1 -31 15 -12 18 24 18 31 0 38 -11 4 -15 -2 -15
-26z"/>
<path d="M7026 1432 c-3 -5 -1 -14 3 -20 6 -10 10 -10 20 1 9 12 8 16 -3 20
-9 4 -17 3 -20 -1z"/>
<path d="M6232 1205 c0 -16 2 -22 5 -12 2 9 2 23 0 30 -3 6 -5 -1 -5 -18z"/>
<path d="M7712 1140 c0 -14 2 -19 5 -12 2 6 2 18 0 25 -3 6 -5 1 -5 -13z"/>
<path d="M7366 1201 c-4 -5 -1 -13 5 -16 5 -4 8 -13 5 -21 -3 -8 1 -14 8 -14
9 0 12 8 8 25 -5 28 -18 40 -26 26z"/>
<path d="M3058 5795 c-4 -22 -7 -89 -6 -150 l1 -110 8 115 c5 63 8 131 7 150
l-3 35 -7 -40z"/>
<path d="M3569 5784 c-5 -30 -7 -66 -13 -209 l-6 -160 72 -55 c40 -30 89 -67
110 -83 l38 -27 0 82 c0 78 2 85 28 109 15 15 36 43 47 63 20 37 20 38 0 52
-31 23 -175 145 -227 193 -26 24 -49 40 -49 35z"/>
<path d="M4287 5773 c-11 -11 -8 -25 4 -17 6 3 26 -9 45 -27 44 -42 44 -34 0
14 -36 39 -39 41 -49 30z"/>
<path d="M4620 5645 c0 -78 -3 -107 -13 -111 -8 -3 -12 -16 -9 -33 3 -22 -1
-30 -15 -34 -15 -4 -15 -5 4 -6 12 0 32 -14 45 -29 13 -15 34 -33 48 -40 14
-7 31 -25 38 -40 6 -15 28 -44 47 -65 19 -21 35 -41 35 -44 0 -3 14 -18 31
-34 31 -29 49 -30 49 -4 0 7 7 15 15 17 11 2 4 15 -26 48 -100 108 -139 155
-139 164 -1 6 -21 27 -45 46 l-45 35 0 117 c0 72 -4 118 -10 118 -6 0 -10 -42
-10 -105z"/>
<path d="M4660 5670 c0 -36 3 -50 9 -41 5 8 7 21 3 30 -3 10 4 8 21 -8 37 -34
35 -6 -3 39 l-29 35 -1 -55z"/>
<path d="M96 5674 c-4 -14 -5 -28 -3 -31 3 -2 8 8 11 23 4 14 5 28 3 31 -3 2
-8 -8 -11 -23z"/>
<path d="M4993 5524 c3 -116 6 -145 20 -159 9 -9 17 -12 17 -6 0 5 -4 13 -10
16 -5 3 -10 14 -10 22 0 14 4 12 21 -6 l21 -23 39 54 c21 29 39 58 39 64 0 14
-45 75 -100 134 l-41 45 4 -141z"/>
<path d="M4013 5618 c-4 -7 -6 -52 -4 -99 2 -56 -1 -89 -8 -93 -6 -4 -11 0
-11 11 0 10 -11 26 -24 35 l-23 17 -6 -78 c-9 -118 2 -219 28 -258 13 -17 24
-30 26 -28 2 2 31 -19 63 -45 78 -64 84 -59 88 73 2 68 7 102 15 104 9 3 12
-36 11 -162 0 -187 -2 -182 86 -242 22 -15 46 -35 53 -43 10 -12 12 1 13 67 0
67 3 84 18 95 22 16 62 72 62 88 0 6 -15 23 -32 38 -60 50 -163 144 -166 152
-2 4 9 10 23 14 17 4 25 13 25 28 0 12 -2 19 -5 16 -3 -3 -21 8 -40 25 -32 28
-33 31 -18 53 22 35 12 105 -22 154 -32 47 -58 51 -74 13 -10 -27 -5 -69 15
-117 7 -19 7 -19 -19 0 -25 18 -26 24 -27 107 0 79 -2 87 -19 87 -11 0 -23 -6
-28 -12z m157 -140 c0 -10 -5 -18 -10 -18 -15 0 -23 27 -16 47 6 15 8 15 16 3
6 -8 10 -23 10 -32z"/>
<path d="M3103 5550 c0 -25 2 -35 4 -22 2 12 2 32 0 45 -2 12 -4 2 -4 -23z"/>
<path d="M4444 5579 c-3 -6 -1 -16 5 -22 8 -8 11 -5 11 11 0 24 -5 28 -16 11z"/>
<path d="M4672 5540 c0 -19 2 -27 5 -17 2 9 2 25 0 35 -3 9 -5 1 -5 -18z"/>
<path d="M3093 5385 c0 -44 -4 -111 -8 -149 -6 -51 -5 -67 3 -62 8 5 12 -3 12
-22 0 -29 14 -42 46 -42 11 0 13 6 9 19 -10 33 10 32 51 -2 42 -36 114 -80
114 -70 0 11 -65 62 -106 83 -44 21 -61 45 -42 56 5 4 41 -15 78 -42 101 -73
343 -245 444 -316 49 -35 97 -70 106 -78 10 -8 80 -60 155 -115 76 -55 155
-113 176 -130 20 -16 66 -48 101 -70 35 -21 106 -73 158 -114 102 -81 254
-196 399 -301 85 -62 109 -86 59 -59 -24 13 -159 110 -218 157 -33 26 -121 82
-110 70 3 -3 47 -37 97 -74 233 -173 282 -207 269 -186 -12 20 42 -11 79 -45
17 -15 25 -24 18 -19 -8 5 -13 4 -13 -3 0 -6 11 -13 24 -17 14 -3 27 -12 30
-21 3 -8 10 -12 16 -8 5 3 19 1 31 -6 14 -7 18 -14 11 -18 -7 -4 -4 -11 10
-20 18 -11 20 -11 15 3 -4 10 -1 13 9 9 7 -3 14 -8 14 -12 0 -3 14 -12 30 -20
22 -9 29 -18 25 -31 -3 -10 0 -20 9 -23 10 -4 14 0 11 13 -4 19 -2 19 21 4 27
-18 31 -26 9 -18 -23 9 -18 -19 6 -35 18 -11 23 -11 31 1 6 9 8 8 6 -7 -2 -12
2 -19 10 -17 6 1 11 -3 10 -10 -2 -7 12 -17 31 -24 22 -7 29 -13 20 -17 -10
-4 -9 -6 4 -6 10 -1 30 -14 44 -31 22 -27 52 -43 38 -21 -3 5 -1 12 4 16 6 3
8 -3 6 -15 -3 -14 7 -27 36 -47 98 -68 159 -117 160 -127 4 -40 32 -63 41 -34
3 8 11 7 28 -5 14 -9 32 -17 42 -17 12 0 18 -8 18 -21 0 -14 5 -19 14 -16 7 3
18 1 24 -5 8 -8 14 -6 19 8 6 15 9 11 15 -21 3 -22 4 9 1 70 -4 85 -9 112 -22
121 -9 7 -18 10 -21 7 -3 -2 3 -10 13 -17 10 -8 17 -26 17 -44 0 -30 -2 -31
-26 -22 -14 6 -40 21 -58 35 -18 14 -38 25 -45 25 -16 0 -210 141 -259 188
-21 19 -46 40 -57 46 -11 6 -75 51 -142 100 l-123 88 0 132 0 132 -29 21 -28
21 4 -121 c4 -107 7 -124 25 -140 29 -25 16 -32 -19 -11 -85 54 -288 209 -332
253 -18 19 -41 35 -50 36 -9 1 -96 61 -194 135 l-177 134 0 160 0 161 -40 33
c-21 17 -41 32 -44 32 -3 0 -7 -72 -8 -159 -3 -153 -4 -159 -21 -146 -17 12
-19 29 -18 169 2 134 0 156 -14 156 -13 0 -15 -21 -15 -140 0 -77 -3 -140 -7
-140 -5 0 -60 41 -123 91 -63 50 -123 95 -134 101 -10 5 -45 30 -78 55 l-59
45 7 172 7 172 -59 47 -59 47 -6 -93 c-4 -50 -7 -129 -8 -174 0 -46 -4 -83 -8
-83 -5 0 -17 7 -27 15 -17 13 -19 27 -17 147 1 73 4 147 7 163 4 23 0 35 -15
49 -12 11 -24 16 -28 12 -4 -4 -10 -72 -14 -152 -3 -79 -8 -147 -11 -150 -10
-9 -317 220 -318 237 0 8 -25 33 -54 55 -52 37 -55 42 -59 89 -3 33 -4 22 -4
-30z m45 -140 c31 -29 16 -34 -16 -6 -21 18 -28 31 -17 31 3 0 18 -11 33 -25z
m-15 -40 c1 -5 -6 -11 -15 -13 -11 -2 -18 3 -18 13 0 17 30 18 33 0z m614
-197 c-2 -13 -4 -5 -4 17 -1 22 1 32 4 23 2 -10 2 -28 0 -40z m0 -90 c-2 -13
-4 -5 -4 17 -1 22 1 32 4 23 2 -10 2 -28 0 -40z m1358 -808 c3 -5 1 -10 -4
-10 -6 0 -11 5 -11 10 0 6 2 10 4 10 3 0 8 -4 11 -10z m2 -152 c-2 -13 -4 -3
-4 22 0 25 2 35 4 23 2 -13 2 -33 0 -45z m8 -37 c3 -5 1 -12 -5 -16 -5 -3 -10
1 -10 9 0 18 6 21 15 7z m385 -401 c8 -5 12 -11 10 -14 -3 -2 -14 2 -24 10
-22 15 -10 19 14 4z"/>
<path d="M2023 5379 c-26 -9 -31 -37 -9 -45 15 -6 61 22 69 41 6 13 -31 15
-60 4z"/>
<path d="M3560 5360 c35 -24 54 -31 30 -11 -14 11 -29 21 -35 21 -5 0 -3 -5 5
-10z"/>
<path d="M5057 5320 c3 -11 7 -20 9 -20 2 0 4 9 4 20 0 11 -4 20 -9 20 -5 0
-7 -9 -4 -20z"/>
<path d="M1880 5320 c0 -5 5 -10 10 -10 6 0 10 5 10 10 0 6 -4 10 -10 10 -5 0
-10 -4 -10 -10z"/>
<path d="M5020 5303 c0 -10 12 -26 25 -36 32 -23 32 -13 0 25 -20 23 -25 26
-25 11z"/>
<path d="M5299 5273 c0 -4 0 -39 1 -78 2 -69 16 -178 19 -141 1 19 2 19 14 2
12 -16 16 -13 45 33 l33 51 -28 37 c-43 59 -83 104 -84 96z"/>
<path d="M4856 5161 c-4 -7 -5 -15 -2 -18 9 -9 19 4 14 18 -4 11 -6 11 -12 0z"/>
<path d="M1550 5120 c0 -5 5 -10 10 -10 6 0 10 5 10 10 0 6 -4 10 -10 10 -5 0
-10 -4 -10 -10z"/>
<path d="M4988 5085 c-2 -19 0 -39 5 -44 6 -6 2 -8 -12 -4 -11 3 -21 1 -21 -3
1 -14 49 -46 59 -40 5 3 11 -1 15 -9 3 -8 10 -15 15 -15 6 0 28 -18 49 -40 22
-21 42 -36 46 -33 3 4 6 -1 6 -10 0 -9 7 -17 15 -17 8 0 15 -6 15 -14 0 -22
23 -24 44 -4 19 18 18 19 -68 110 -49 51 -98 103 -110 116 -40 44 -53 46 -58
7z"/>
<path d="M3170 5105 c0 -5 128 -99 173 -128 53 -34 26 -7 -40 40 -38 26 -69
51 -71 55 -2 5 -10 8 -18 8 -8 0 -14 4 -14 9 0 5 -7 11 -15 15 -8 3 -15 3 -15
1z"/>
<path d="M3066 4978 c-3 -46 -10 -177 -16 -293 -5 -115 -12 -230 -16 -255 -3
-28 -2 -41 4 -35 9 10 47 653 39 661 -2 3 -7 -33 -11 -78z"/>
<path d="M3334 5042 c4 -6 28 -26 54 -44 26 -17 49 -34 52 -37 5 -6 59 -43
210 -145 41 -28 77 -53 80 -56 6 -6 86 -60 110 -74 34 -20 -30 33 -90 74 -36
25 -69 49 -75 53 -47 36 -137 97 -144 97 -5 0 -11 4 -13 8 -1 5 -32 28 -67 53
-92 64 -126 85 -117 71z"/>
<path d="M4526 5009 c-36 -10 -48 -27 -35 -50 12 -23 12 -79 -1 -79 -5 0 -10
8 -11 18 0 10 -3 12 -6 4 -2 -6 -9 -9 -15 -6 -17 11 -4 -266 13 -294 8 -12 18
-22 23 -22 5 0 28 -16 52 -35 23 -19 45 -35 48 -35 3 0 6 47 6 105 l0 105 25
0 c25 0 25 0 25 -93 0 -100 -3 -94 68 -144 17 -13 34 -23 37 -23 3 0 5 27 5
59 0 51 5 66 36 112 l36 53 -54 48 c-30 26 -57 43 -62 38 -13 -13 -77 32 -70
50 14 31 16 69 5 87 -10 15 -10 14 -5 -10 5 -22 3 -26 -10 -21 -9 3 -16 10
-16 14 0 5 -3 15 -6 24 -4 11 -1 16 10 16 14 0 15 4 6 20 -16 30 -28 24 -36
-15 -4 -25 -1 -43 10 -60 12 -18 13 -25 4 -25 -31 1 -40 20 -47 92 l-6 75 -29
-8z"/>
<path d="M5320 4967 c0 -9 6 -20 14 -24 8 -4 16 -21 19 -38 l4 -30 2 33 c0 21
-6 41 -19 54 -16 18 -20 19 -20 5z"/>
<path d="M3417 4929 c7 -7 15 -10 18 -7 3 3 -2 9 -12 12 -14 6 -15 5 -6 -5z"/>
<path d="M3450 4905 c0 -2 10 -10 23 -16 20 -11 21 -11 8 4 -13 16 -31 23 -31
12z"/>
<path d="M3517 4859 c7 -7 15 -10 18 -7 3 3 -2 9 -12 12 -14 6 -15 5 -6 -5z"/>
<path d="M5971 4844 c0 -11 3 -14 6 -6 3 7 2 16 -1 19 -3 4 -6 -2 -5 -13z"/>
<path d="M3570 4826 c0 -2 7 -9 15 -16 9 -7 15 -8 15 -2 0 5 -7 12 -15 16 -8
3 -15 4 -15 2z"/>
<path d="M5986 4795 c-3 -8 -1 -15 4 -15 6 0 10 7 10 15 0 8 -2 15 -4 15 -2 0
-6 -7 -10 -15z"/>
<path d="M5309 4783 c-1 -5 -1 -16 0 -25 1 -10 -4 -18 -13 -18 -9 0 -16 -8
-15 -17 0 -10 3 -13 5 -6 3 7 30 -13 68 -50 34 -34 78 -77 98 -95 36 -33 37
-33 48 -12 10 19 8 26 -17 54 -16 17 -48 51 -71 76 -23 25 -42 53 -42 63 0 10
-4 16 -9 13 -5 -3 -14 1 -21 9 -13 16 -29 20 -31 8z"/>
<path d="M5730 4680 c0 -126 9 -198 26 -204 11 -4 13 1 8 19 -8 34 8 58 17 25
l7 -25 1 28 c1 18 -4 27 -14 27 -23 0 -18 26 5 27 11 1 20 -4 20 -13 0 -23 14
-16 38 22 l23 36 -25 31 c-14 18 -43 52 -65 77 l-40 45 -1 -95z"/>
<path d="M3712 4724 c10 -10 20 -16 22 -13 3 3 -5 11 -17 18 -21 13 -21 12 -5
-5z"/>
<path d="M3890 4652 c19 -16 37 -28 39 -26 5 5 -24 29 -54 45 -11 6 -4 -2 15
-19z"/>
<path d="M58 4653 c7 -3 16 -2 19 1 4 3 -2 6 -13 5 -11 0 -14 -3 -6 -6z"/>
<path d="M3965 4594 c48 -40 74 -49 30 -10 -22 19 -44 35 -50 35 -5 0 4 -11
20 -25z"/>
<path d="M2253 4583 c-17 -6 -16 -20 1 -26 8 -3 19 0 26 7 12 15 -5 27 -27 19z"/>
<path d="M4052 4534 c10 -10 20 -16 22 -13 3 3 -5 11 -17 18 -21 13 -21 12 -5
-5z"/>
<path d="M5030 4406 c0 -94 1 -97 26 -108 14 -7 32 -23 39 -37 13 -24 14 -24
15 -5 0 11 13 38 30 60 16 21 30 44 30 50 0 6 -31 39 -70 73 l-70 63 0 -96z"/>
<path d="M4690 4365 c0 -81 3 -106 13 -103 6 3 14 17 17 31 6 34 27 23 33 -18
2 -17 5 8 6 55 l1 85 -35 28 -35 28 0 -106z m37 33 c-3 -8 -6 -5 -6 6 -1 11 2
17 5 13 3 -3 4 -12 1 -19z"/>
<path d="M1920 4436 c0 -9 5 -16 10 -16 6 0 10 4 10 9 0 6 -4 13 -10 16 -5 3
-10 -1 -10 -9z"/>
<path d="M4180 4442 c0 -9 129 -96 135 -90 2 2 -28 25 -66 51 -38 26 -69 44
-69 39z"/>
<path d="M5747 4390 c5 -50 3 -61 -11 -66 -14 -5 -15 -9 -4 -15 11 -8 11 -11
-1 -18 -13 -8 -8 -31 8 -31 4 0 46 -39 93 -86 80 -79 87 -85 107 -72 12 7 20
16 19 20 -2 4 -42 47 -90 96 -78 81 -88 94 -94 137 -4 33 -3 45 5 41 19 -12
12 13 -9 34 -11 11 -22 20 -24 20 -2 0 -2 -27 1 -60z"/>
<path d="M2157 4414 c-4 -4 -7 -16 -7 -26 0 -16 3 -17 21 -8 11 6 19 16 16 23
-4 14 -21 20 -30 11z"/>
<path d="M2266 4373 c-9 -26 -17 -69 -18 -97 l-1 -51 -4 43 c-4 36 -7 42 -19
31 -8 -6 -14 -17 -14 -24 0 -7 -9 -15 -20 -18 -24 -6 -35 -31 -24 -54 4 -10 6
-22 5 -26 -1 -5 8 -6 19 -2 12 4 27 1 35 -5 13 -10 15 -7 17 21 1 23 3 17 7
-21 l7 -55 12 43 c10 33 10 47 2 57 -7 8 -10 22 -7 32 3 13 5 11 7 -7 1 -22 2
-22 9 -6 8 21 15 186 8 186 -3 0 -12 -21 -21 -47z"/>
<path d="M6060 4346 c0 -45 12 -61 24 -30 10 26 7 51 -9 64 -13 11 -15 6 -15
-34z"/>
<path d="M3026 4308 c-3 -29 -13 -168 -21 -308 -9 -140 -20 -305 -25 -366 -12
-133 -12 -218 -1 -189 5 11 11 79 15 150 3 72 11 184 16 250 19 251 33 505 27
511 -3 3 -8 -18 -11 -48z"/>
<path d="M5263 4339 c-7 -7 -9 -27 -6 -48 5 -33 4 -35 -9 -17 -8 10 -17 15
-20 10 -7 -13 10 -212 19 -228 4 -7 25 -28 46 -45 42 -37 41 -38 37 55 -1 23
3 45 8 48 9 6 22 -70 22 -136 0 -31 3 -35 20 -31 12 3 20 0 20 -6 0 -7 -5 -9
-12 -5 -8 5 -7 0 2 -11 14 -17 15 -14 18 40 2 47 9 67 33 99 l30 41 -45 43
c-40 38 -45 46 -39 74 4 22 3 29 -6 24 -7 -4 -14 2 -19 15 -6 14 -11 18 -16
11 -4 -6 -2 -21 4 -32 8 -16 8 -20 -4 -20 -19 0 -26 22 -26 81 0 44 -2 49 -23
49 -13 0 -28 -5 -34 -11z"/>
<path d="M5822 4320 c0 -14 2 -19 5 -12 2 6 2 18 0 25 -3 6 -5 1 -5 -13z"/>
<path d="M4350 4322 c0 -4 9 -13 20 -20 11 -7 20 -9 20 -4 0 4 -9 13 -20 20
-11 7 -20 9 -20 4z"/>
<path d="M5350 4305 c0 -8 7 -15 16 -15 14 0 14 3 4 15 -7 8 -14 15 -16 15 -2
0 -4 -7 -4 -15z"/>
<path d="M4310 4306 c0 -2 14 -14 30 -26 17 -12 30 -18 30 -13 0 5 -13 17 -30
26 -16 10 -30 16 -30 13z"/>
<path d="M4401 4276 c2 -2 15 -9 29 -15 24 -11 24 -11 6 3 -16 13 -49 24 -35
12z"/>
<path d="M4476 4225 c10 -8 23 -15 28 -15 6 0 1 7 -10 15 -10 8 -23 15 -28 15
-6 0 -1 -7 10 -15z"/>
<path d="M5992 4195 c0 -16 2 -22 5 -12 2 9 2 23 0 30 -3 6 -5 -1 -5 -18z"/>
<path d="M510 4188 c-43 -17 -50 -23 -36 -28 22 -7 35 -36 28 -62 -7 -29 -22
-21 -22 11 0 30 -17 51 -29 35 -11 -17 -61 -45 -61 -35 0 5 5 13 10 16 16 10
11 27 -7 23 -13 -2 -22 -25 -35 -88 -22 -108 -22 -130 -2 -130 9 0 14 -6 11
-14 -4 -9 13 -21 51 -36 60 -24 85 -40 64 -40 -9 0 -10 -5 -2 -19 11 -21 1
-33 -29 -35 -26 -2 -261 -89 -261 -97 0 -4 7 -14 15 -23 12 -11 17 -47 22
-131 l6 -115 -36 0 c-30 0 -37 -4 -37 -19 0 -21 -35 -69 -44 -60 -6 5 12 100
44 237 6 23 10 52 10 65 -1 44 -17 -7 -39 -123 -12 -63 -29 -150 -37 -192 -10
-54 -26 -96 -54 -142 l-40 -66 2 -173 c2 -136 5 -161 12 -121 10 63 22 85 35
66 6 -11 10 -10 15 3 6 16 9 15 29 -8 16 -19 28 -25 45 -21 13 4 22 2 22 -5 0
-6 -5 -11 -11 -11 -8 0 -8 -5 1 -15 13 -16 4 -21 -97 -53 l-53 -16 0 -183 0
-184 28 14 c15 8 45 17 67 20 22 3 66 17 98 31 44 20 62 34 70 56 6 17 14 30
18 30 11 0 109 157 109 174 0 8 9 24 21 34 l20 20 -25 6 c-14 3 -26 13 -26 22
0 15 5 18 53 28 15 4 27 13 27 20 0 10 -13 13 -50 12 l-50 -2 5 30 c3 17 18
108 35 201 16 94 34 204 40 245 14 103 20 130 30 130 5 0 10 -8 12 -17 3 -10
8 2 12 27 16 92 26 120 45 120 10 0 24 11 31 25 7 14 15 23 18 20 3 -2 -1 -11
-8 -20 -10 -12 -10 -15 3 -15 9 0 22 9 30 20 8 11 16 17 19 15 3 -3 8 3 11 15
3 13 1 18 -6 13 -6 -4 -8 1 -5 15 4 15 2 19 -9 15 -10 -4 -8 4 6 28 11 19 27
48 34 64 8 17 26 39 40 50 25 18 40 54 17 40 -5 -3 -10 -1 -10 6 0 6 -7 17
-15 23 -12 9 -13 21 -5 70 5 33 7 62 5 65 -10 10 -24 -15 -27 -47 -4 -49 -18
-50 -18 -2 0 25 -4 39 -10 35 -5 -3 -10 -17 -10 -30 0 -33 -14 -39 -55 -24
-39 14 -43 35 -26 114 11 48 22 115 18 114 -1 0 -27 -10 -57 -21z m-80 -98 c0
-5 -4 -10 -10 -10 -5 0 -10 5 -10 10 0 6 5 10 10 10 6 0 10 -4 10 -10z m222
-192 c-7 -7 -12 -8 -12 -2 0 14 12 26 19 19 2 -3 -1 -11 -7 -17z m-67 -23 c0
-14 -3 -25 -7 -25 -4 0 -5 -7 -2 -15 8 -20 -4 -67 -15 -60 -13 7 -24 80 -16
105 9 29 40 26 40 -5z m-28 -182 c-4 -20 -14 -44 -23 -52 -15 -15 -16 -14 -11
4 3 11 8 35 12 53 9 45 29 41 22 -5z"/>
<path d="M637 4169 c7 -7 15 -10 18 -7 3 3 -2 9 -12 12 -14 6 -15 5 -6 -5z"/>
<path d="M2130 4170 c19 -13 30 -13 30 0 0 6 -10 10 -22 10 -19 0 -20 -2 -8
-10z"/>
<path d="M1495 4130 c-3 -5 1 -10 9 -10 9 0 16 5 16 10 0 6 -4 10 -9 10 -6 0
-13 -4 -16 -10z"/>
<path d="M2247 4077 c-5 -19 -13 -27 -22 -23 -7 2 -32 -4 -55 -15 -23 -11 -59
-21 -81 -21 -21 0 -39 -4 -39 -9 0 -5 -21 -15 -47 -22 -29 -9 -49 -21 -51 -31
-4 -20 10 -20 46 -2 15 7 53 16 85 19 32 3 77 15 101 26 23 12 48 21 54 21 14
0 26 40 20 67 -3 13 -6 11 -11 -10z"/>
<path d="M6334 4044 c2 -27 5 -60 5 -74 1 -25 2 -25 22 7 23 36 18 71 -12 99
-19 17 -19 16 -15 -32z"/>
<path d="M6003 4040 c0 -25 2 -35 4 -22 2 12 2 32 0 45 -2 12 -4 2 -4 -23z"/>
<path d="M3507 3983 c-4 -49 -9 -134 -13 -190 l-6 -102 70 -35 c39 -20 93 -44
120 -54 l50 -19 6 30 c3 16 6 57 6 92 0 49 4 66 20 80 30 27 73 106 64 115 -8
7 -304 170 -309 170 -2 0 -5 -39 -8 -87z"/>
<path d="M4650 4066 c0 -2 8 -10 18 -17 15 -13 16 -12 3 4 -13 16 -21 21 -21
13z"/>
<path d="M3995 4049 c-4 -5 -4 -37 0 -69 4 -32 4 -68 0 -80 -7 -21 -7 -21 -32
4 -14 14 -30 23 -36 19 -6 -4 -8 -66 -5 -173 5 -154 7 -169 26 -188 12 -12 27
-22 32 -22 25 0 112 -53 120 -73 l9 -22 0 22 c1 12 6 23 12 25 7 2 12 43 14
102 6 167 22 129 21 -51 l-1 -168 75 -37 c41 -20 78 -37 83 -38 4 0 7 34 7 75
0 70 2 77 40 131 22 32 40 62 40 68 0 11 -17 21 -152 94 -71 37 -83 52 -45 52
12 0 31 7 41 15 17 13 18 15 3 15 -9 0 -17 4 -17 9 0 5 -13 14 -30 21 -16 7
-30 13 -30 15 0 1 7 17 17 35 18 37 19 90 2 121 -19 36 -52 69 -68 69 -41 0
-56 -86 -27 -154 16 -40 12 -44 -22 -20 -20 14 -22 23 -22 115 0 98 0 99 -24
99 -14 0 -28 -5 -31 -11z m171 -114 c4 -8 3 -23 -1 -32 -6 -17 -7 -17 -21 1
-8 11 -14 26 -14 33 0 18 29 16 36 -2z"/>
<path d="M700 3979 c0 -5 5 -7 10 -4 6 3 10 8 10 11 0 2 -4 4 -10 4 -5 0 -10
-5 -10 -11z"/>
<path d="M6080 3962 c0 -10 16 -33 35 -52 19 -18 32 -37 29 -41 -5 -8 19 -3
39 9 9 4 -82 102 -95 102 -5 0 -8 -8 -8 -18z"/>
<path d="M4900 3926 c0 -2 14 -14 30 -26 17 -12 30 -19 30 -16 0 2 -13 14 -30
26 -16 12 -30 19 -30 16z"/>
<path d="M5376 3803 c4 -54 11 -100 16 -101 4 -2 6 -7 3 -12 -3 -4 2 -13 10
-20 13 -11 15 -2 15 68 0 101 -7 135 -31 150 -19 12 -19 10 -13 -85z"/>
<path d="M1820 3875 c-10 -12 -10 -15 3 -15 8 0 20 7 27 15 10 12 10 15 -3 15
-8 0 -20 -7 -27 -15z"/>
<path d="M2153 3865 c-11 -12 -8 -25 8 -25 10 0 20 28 11 34 -4 2 -12 -2 -19
-9z"/>
<path d="M6210 3841 c0 -11 5 -23 10 -26 6 -4 8 -11 5 -16 -4 -5 0 -9 7 -9 7
0 18 -10 24 -23 39 -77 48 -90 52 -77 2 8 11 21 20 27 14 11 8 21 -44 77 -32
35 -62 64 -66 65 -5 0 -8 -8 -8 -18z"/>
<path d="M5774 3813 c2 -10 8 -76 12 -148 5 -71 10 -120 12 -107 7 41 22 22
24 -30 1 -40 3 -31 7 32 l6 85 8 -97 c6 -68 13 -98 21 -98 10 0 14 28 15 103
1 86 5 106 22 131 l21 28 -28 27 c-44 41 -108 91 -117 91 -5 0 -6 -8 -3 -17z"/>
<path d="M6580 3763 c0 -45 13 -56 29 -25 7 13 4 24 -10 42 l-19 25 0 -42z"/>
<path d="M1665 3770 c-4 -6 -3 -16 3 -22 13 -13 23 4 13 21 -7 10 -10 10 -16
1z"/>
<path d="M6097 3771 c-2 -3 -2 -25 1 -49 4 -37 11 -48 50 -77 24 -19 50 -35
56 -35 6 0 16 -12 23 -26 10 -21 9 -26 -3 -31 -10 -4 -14 -16 -12 -37 1 -20
-2 -30 -10 -28 -14 2 -15 -18 -5 -108 5 -55 10 -65 34 -79 16 -9 30 -23 33
-31 2 -10 4 -8 5 5 1 11 10 31 21 45 22 29 26 56 8 64 -10 3 -9 8 3 18 11 9
15 23 11 46 -4 31 -21 45 -23 20 0 -7 -4 -4 -9 7 -10 22 -13 85 -5 85 12 0 54
-56 55 -72 0 -10 3 -18 8 -18 4 0 32 -23 62 -51 30 -28 69 -64 85 -79 27 -24
30 -33 27 -69 -3 -28 -9 -41 -19 -41 -13 0 -14 -10 -9 -61 4 -33 12 -72 18
-85 12 -25 38 -33 38 -11 0 6 9 23 19 36 10 14 17 31 14 38 -3 7 2 16 11 19
21 8 20 16 -4 44 -12 14 -20 37 -20 58 0 34 0 35 20 17 11 -10 20 -24 20 -30
0 -22 128 -141 271 -252 30 -23 70 -58 89 -77 19 -20 42 -36 51 -36 9 0 21
-11 29 -24 7 -14 28 -37 46 -51 19 -15 34 -34 34 -42 0 -8 4 -12 9 -8 11 6
141 -117 141 -134 0 -6 9 -11 19 -11 10 0 22 -7 25 -16 8 -21 26 -8 26 20 0
28 18 46 39 39 14 -6 14 -4 -1 14 -24 26 -23 43 3 43 18 0 20 4 15 38 -3 20
-5 43 -6 50 0 7 -4 11 -9 8 -4 -3 -6 -17 -3 -31 2 -15 0 -25 -7 -25 -6 0 -11
13 -11 29 0 53 -23 85 -28 39 -2 -13 -3 -58 -3 -101 l0 -77 -29 15 c-35 18
-115 94 -123 117 -3 9 -22 24 -42 34 -20 9 -49 36 -66 60 -16 24 -38 48 -49
54 -33 18 -83 63 -450 405 -47 44 -148 139 -225 210 -77 72 -163 153 -192 181
-29 29 -55 49 -56 45z m108 -141 c3 -5 1 -10 -4 -10 -6 0 -11 5 -11 10 0 6 2
10 4 10 3 0 8 -4 11 -10z"/>
<path d="M1940 3760 c-8 -5 -32 -7 -52 -3 -47 7 -76 -11 -53 -33 12 -13 19
-13 50 0 26 11 35 12 35 3 0 -7 9 -23 19 -36 16 -21 20 -22 37 -10 27 20 30
65 5 78 -24 13 -22 13 -41 1z"/>
<path d="M5140 3747 c14 -8 27 -12 30 -10 7 6 -23 23 -40 23 -8 0 -4 -6 10
-13z"/>
<path d="M1585 3730 c19 -21 35 -18 35 6 0 9 -10 14 -27 14 -25 0 -26 -1 -8
-20z"/>
<path d="M6357 3713 c-8 -12 23 -73 37 -73 6 0 4 -5 -4 -10 -13 -8 -13 -10 1
-10 9 0 22 -11 29 -25 7 -14 19 -25 26 -25 18 0 26 30 12 49 -35 45 -96 102
-101 94z"/>
<path d="M1720 3700 c8 -5 22 -10 30 -10 13 0 13 1 0 10 -8 5 -22 10 -30 10
-13 0 -13 -1 0 -10z"/>
<path d="M6680 3663 c0 -46 8 -58 27 -42 18 16 16 32 -7 59 l-20 23 0 -40z"/>
<path d="M6340 3660 c0 -5 5 -10 10 -10 6 0 10 5 10 10 0 6 -4 10 -10 10 -5 0
-10 -4 -10 -10z"/>
<path d="M3486 3558 c-3 -46 -9 -159 -13 -253 -7 -144 -10 -169 -23 -166 -8 2
-30 6 -47 9 -32 4 -33 3 -32 -29 l1 -34 7 29 c5 23 8 26 17 15 19 -25 15 -59
-7 -59 -10 0 -19 -5 -19 -11 0 -6 7 -9 15 -5 14 5 78 -14 202 -61 34 -12 65
-23 68 -23 4 0 56 -18 116 -40 124 -46 139 -48 146 -20 3 11 12 20 19 20 8 0
14 6 14 14 0 13 -20 22 -175 76 l-50 17 3 250 3 249 -60 26 c-33 14 -62 23
-65 20 -3 -3 -6 -51 -6 -106 0 -144 -12 -386 -19 -386 -27 1 -28 21 -17 264
l11 248 -37 19 c-21 10 -39 19 -42 19 -2 0 -7 -37 -10 -82z m211 -280 c-3 -8
-6 -5 -6 6 -1 11 2 17 5 13 3 -3 4 -12 1 -19z m-19 -83 c-4 -87 -10 -116 -23
-103 -3 3 -1 17 5 32 5 15 10 59 10 97 0 38 3 69 6 69 4 0 4 -43 2 -95z m-58
-184 c84 -28 121 -43 117 -47 -4 -4 -167 53 -176 62 -7 7 1 5 59 -15z m225
-82 c5 -5 -5 -4 -23 2 -17 6 -32 13 -32 16 0 7 43 -8 55 -18z"/>
<path d="M1745 3611 c-6 -5 -21 -11 -35 -13 -28 -3 -30 -21 -3 -27 10 -1 26
-10 35 -18 23 -21 38 -8 38 33 0 34 -15 44 -35 25z"/>
<path d="M1800 3606 c0 -22 17 -28 24 -10 9 22 8 24 -9 24 -8 0 -15 -6 -15
-14z"/>
<path d="M2000 3565 c0 -7 -8 -12 -17 -11 -13 1 -18 -6 -18 -24 0 -31 30 -40
38 -10 5 20 27 29 27 10 0 -5 5 -10 10 -10 20 0 9 35 -15 47 -20 9 -25 8 -25
-2z"/>
<path d="M6484 3564 c-4 -10 -9 -22 -11 -27 -2 -4 8 -12 23 -17 15 -6 24 -13
21 -16 -3 -4 6 -17 20 -30 24 -22 28 -23 42 -9 14 14 10 20 -36 67 -46 46 -53
50 -59 32z"/>
<path d="M6780 3558 c0 -29 15 -45 25 -28 3 5 -1 20 -9 32 l-16 22 0 -26z"/>
<path d="M6118 3484 c4 -44 5 -45 23 -28 24 21 24 36 1 57 -26 24 -28 22 -24
-29z"/>
<path d="M6043 3465 c0 -27 2 -38 4 -22 2 15 2 37 0 50 -2 12 -4 0 -4 -28z"/>
<path d="M6786 3481 c-4 -6 -4 -22 0 -36 5 -19 2 -25 -11 -25 -13 0 -16 -8
-14 -45 3 -47 -6 -69 -17 -41 -3 9 -12 16 -19 16 -16 0 -27 -27 -14 -35 5 -4
6 -12 3 -18 -4 -7 -4 -9 1 -5 8 8 40 -23 48 -45 3 -9 9 -8 21 2 13 11 16 23
12 43 -4 18 -1 30 7 33 64 23 69 26 59 38 -6 6 -10 29 -9 50 0 20 -5 43 -12
50 -11 10 -12 4 -7 -33 5 -29 4 -41 -3 -35 -5 6 -11 28 -13 49 -4 39 -20 57
-32 37z m19 -121 c3 -5 1 -10 -4 -10 -6 0 -11 5 -11 10 0 6 2 10 4 10 3 0 8
-4 11 -10z"/>
<path d="M6868 3444 c4 -29 6 -34 14 -20 5 9 6 25 3 36 -11 33 -21 22 -17 -16z"/>
<path d="M6606 3451 c-9 -13 3 -39 20 -45 9 -3 12 -11 8 -18 -4 -7 -4 -10 1
-6 10 10 37 -11 29 -23 -8 -13 8 -10 28 5 16 11 13 16 -25 54 -45 44 -52 48
-61 33z"/>
<path d="M4662 3288 l3 -153 45 -22 c68 -33 70 -32 70 42 0 58 4 70 35 114 19
26 35 53 35 60 0 6 -24 23 -52 37 -29 15 -70 37 -90 50 -21 13 -40 24 -43 24
-3 0 -4 -69 -3 -152z"/>
<path d="M2020 3415 c0 -9 5 -15 11 -13 6 2 11 8 11 13 0 5 -5 11 -11 13 -6 2
-11 -4 -11 -13z"/>
<path d="M5854 3403 c2 -10 8 -62 12 -115 4 -69 10 -98 19 -98 10 0 12 19 8
78 -4 67 -8 118 -12 145 -1 4 -8 7 -17 7 -10 0 -14 -6 -10 -17z"/>
<path d="M472 3390 c0 -14 2 -19 5 -12 2 6 2 18 0 25 -3 6 -5 1 -5 -13z"/>
<path d="M462 3330 c0 -14 2 -19 5 -12 2 6 2 18 0 25 -3 6 -5 1 -5 -13z"/>
<path d="M6051 3324 c0 -11 3 -14 6 -6 3 7 2 16 -1 19 -3 4 -6 -2 -5 -13z"/>
<path d="M6990 3312 c0 -46 9 -65 26 -51 19 15 18 26 -6 56 l-20 26 0 -31z"/>
<path d="M4150 3104 c0 -221 0 -225 -20 -219 -18 6 -20 2 -20 -30 0 -29 -3
-36 -15 -31 -12 4 -15 -3 -14 -32 1 -32 2 -34 8 -12 8 27 35 30 76 10 43 -20
307 -112 311 -108 5 6 -44 27 -174 74 -56 20 -100 39 -98 41 4 5 234 -71 266
-88 18 -8 55 15 46 29 -3 5 -18 13 -33 17 -15 3 -44 15 -65 25 -21 10 -52 22
-68 25 l-30 7 0 222 0 222 -45 22 -45 22 -1 -103 c-1 -56 -2 -109 -3 -117 -2
-8 -3 -61 -4 -117 -2 -88 -4 -103 -18 -103 -15 0 -16 20 -10 229 7 207 6 229
-9 235 -9 3 -21 6 -26 6 -5 0 -9 -95 -9 -226z m136 -244 c8 0 14 -5 14 -11 0
-6 -8 -9 -17 -7 -12 2 -19 13 -20 33 -1 20 0 23 4 8 2 -13 11 -23 19 -23z"/>
<path d="M6050 3290 c0 -5 5 -10 10 -10 6 0 10 5 10 10 0 6 -4 10 -10 10 -5 0
-10 -4 -10 -10z"/>
<path d="M6108 3270 c2 -16 5 -30 7 -30 2 0 5 14 7 30 3 19 0 30 -7 30 -7 0
-10 -11 -7 -30z"/>
<path d="M6398 3248 c4 -59 16 -81 27 -49 3 12 11 21 16 21 18 0 9 37 -14 58
-13 12 -25 22 -28 22 -2 0 -2 -24 -1 -52z"/>
<path d="M6806 3234 c-4 -9 -4 -19 -1 -22 3 -3 5 1 5 8 0 8 12 2 30 -15 32
-31 51 -30 23 1 -37 39 -50 46 -57 28z"/>
<path d="M5065 3138 c0 -40 2 -103 3 -139 l2 -67 40 -21 c22 -12 43 -21 46
-21 3 0 4 28 2 63 -2 57 0 66 31 109 18 25 31 51 27 56 -6 9 -138 92 -147 92
-3 0 -5 -33 -4 -72z"/>
<path d="M5340 3201 c-22 -6 -24 -11 -21 -50 3 -43 2 -43 -24 -37 l-27 7 7
-93 c13 -170 13 -170 73 -192 43 -15 52 -23 52 -43 0 -18 8 -27 30 -34 17 -6
30 -15 30 -21 0 -5 4 -7 9 -4 5 3 7 33 4 65 -5 54 -3 63 21 91 35 42 33 57
-10 82 -34 20 -35 22 -18 35 18 14 18 15 1 25 -15 8 -18 18 -13 56 5 39 3 51
-15 72 -20 24 -21 25 -16 3 3 -13 1 -23 -4 -23 -12 0 -11 -47 1 -55 15 -9 12
-25 -5 -25 -17 0 -24 24 -27 94 -3 53 -9 58 -48 47z m110 -87 c0 -14 -4 -23
-10 -19 -5 3 -10 15 -10 26 0 10 5 19 10 19 6 0 10 -12 10 -26z"/>
<path d="M5968 3188 c7 -7 12 -20 12 -29 0 -9 7 -19 15 -23 8 -3 15 -15 15
-26 0 -23 15 -27 24 -5 3 8 14 15 25 15 17 0 20 -5 15 -30 -4 -19 -2 -30 5
-30 6 0 11 5 11 11 0 6 6 9 13 6 6 -2 11 -11 9 -20 -2 -10 2 -15 10 -12 9 4
12 21 10 55 -4 44 -6 50 -27 50 -13 0 -25 7 -29 15 -3 8 -14 15 -25 15 -11 0
-23 5 -26 10 -3 6 -20 10 -38 10 -24 0 -28 -3 -19 -12z"/>
<path d="M7110 3180 c0 -19 3 -21 12 -12 9 9 9 15 0 24 -9 9 -12 7 -12 -12z"/>
<path d="M6277 3132 c6 -81 11 -87 12 -15 1 34 -3 64 -7 67 -5 3 -7 -21 -5
-52z"/>
<path d="M5831 3103 c-1 -37 2 -62 7 -59 11 6 22 -40 22 -90 0 -18 5 -36 11
-40 8 -4 9 3 6 22 -3 16 -9 73 -12 126 -5 64 -11 98 -19 101 -10 4 -14 -12
-15 -60z"/>
<path d="M5890 3144 c-13 -4 -14 -21 -6 -127 4 -67 10 -124 13 -127 18 -20 29
85 13 139 -5 20 -5 31 1 31 7 0 8 12 3 33 -4 17 -7 38 -7 45 0 6 -1 11 -1 11
-1 -1 -8 -3 -16 -5z"/>
<path d="M6896 3142 c-6 -11 53 -56 61 -48 7 7 -36 56 -48 56 -4 0 -10 -4 -13
-8z"/>
<path d="M7180 3101 c0 -12 5 -21 10 -21 6 0 10 6 10 14 0 8 -4 18 -10 21 -5
3 -10 -3 -10 -14z"/>
<path d="M6151 3047 c2 -41 5 -54 15 -50 7 3 28 -6 46 -19 18 -12 40 -27 49
-33 89 -54 118 -73 139 -92 14 -13 33 -23 43 -23 10 0 20 -7 23 -15 4 -8 10
-15 16 -15 5 0 16 -7 24 -15 9 -8 24 -15 35 -15 10 0 19 -7 19 -15 0 -8 6 -15
14 -15 8 0 28 -13 44 -30 17 -16 35 -30 41 -30 6 0 11 -4 11 -9 0 -5 13 -14
30 -19 16 -6 44 -26 62 -44 18 -18 36 -32 40 -31 4 2 8 -2 8 -7 0 -6 6 -10 14
-10 7 0 27 -13 44 -30 18 -16 38 -30 46 -30 7 0 31 -16 52 -35 21 -20 49 -38
61 -41 14 -4 23 -14 23 -26 0 -15 5 -18 16 -14 9 4 23 1 31 -5 10 -9 17 -9 25
-1 17 17 2 41 -34 57 -18 7 -45 23 -61 35 -32 26 -83 61 -209 149 -93 64 -143
101 -383 281 -70 52 -142 104 -159 115 -18 11 -48 32 -67 46 -61 45 -60 46
-58 -14z"/>
<path d="M4713 2944 c4 -75 7 -169 7 -208 0 -50 3 -66 10 -56 5 8 10 26 10 39
0 17 4 22 16 17 9 -3 18 -6 20 -6 2 0 4 -21 4 -46 0 -40 -2 -45 -17 -39 -28
11 -112 36 -120 35 -5 0 -8 -8 -8 -17 0 -11 17 -26 45 -40 53 -26 49 -29 -10
-8 -50 18 -60 18 -60 5 0 -6 3 -9 8 -8 14 5 102 -25 97 -33 -3 -4 0 -11 6 -15
7 -4 9 -3 5 4 -9 15 36 20 49 6 6 -7 43 -24 83 -38 l74 -26 18 22 c10 13 17
24 16 26 -2 1 -41 18 -87 37 -46 19 -85 40 -85 47 -1 7 -2 100 -3 205 l-1 193
-42 21 -41 21 6 -138z m67 -194 c0 -5 -4 -10 -10 -10 -5 0 -10 5 -10 10 0 6 5
10 10 10 6 0 10 -4 10 -10z"/>
<path d="M6650 3040 c0 -43 13 -52 30 -21 14 27 13 34 -10 49 -19 11 -20 10
-20 -28z"/>
<path d="M4663 2980 c0 -47 2 -66 4 -42 2 23 2 61 0 85 -2 23 -4 4 -4 -43z"/>
<path d="M3410 3030 c0 -7 80 -34 85 -28 2 2 -16 11 -41 20 -24 8 -44 12 -44
8z"/>
<path d="M3370 3021 c0 -5 5 -13 10 -16 6 -3 10 -2 10 4 0 5 -4 13 -10 16 -5
3 -10 2 -10 -4z"/>
<path d="M7020 3017 c0 -15 54 -67 69 -67 18 0 13 13 -20 48 -31 34 -49 41
-49 19z"/>
<path d="M6131 3004 c0 -11 3 -14 6 -6 3 7 2 16 -1 19 -3 4 -6 -2 -5 -13z"/>
<path d="M401 2984 c0 -11 3 -14 6 -6 3 7 2 16 -1 19 -3 4 -6 -2 -5 -13z"/>
<path d="M3520 2992 c0 -8 141 -55 146 -49 2 2 -30 15 -71 30 -41 14 -75 23
-75 19z"/>
<path d="M3191 2974 c0 -11 3 -14 6 -6 3 7 2 16 -1 19 -3 4 -6 -2 -5 -13z"/>
<path d="M6757 2953 c8 -49 10 -51 24 -20 9 21 9 30 -1 42 -21 25 -29 17 -23
-22z"/>
<path d="M7310 2961 c0 -5 5 -13 10 -16 6 -3 10 -2 10 4 0 5 -4 13 -10 16 -5
3 -10 2 -10 -4z"/>
<path d="M6082 2930 c0 -19 2 -27 5 -17 2 9 2 25 0 35 -3 9 -5 1 -5 -18z"/>
<path d="M3695 2928 c11 -7 54 -24 95 -38 82 -29 99 -46 42 -43 -29 1 -32 0
-17 -7 11 -5 35 -9 53 -9 25 -1 32 3 32 18 0 14 -14 23 -57 36 -32 10 -62 20
-68 24 -15 9 -79 31 -90 31 -5 -1 -1 -6 10 -12z"/>
<path d="M6130 2926 c0 -9 5 -16 10 -16 6 0 10 4 10 9 0 6 -4 13 -10 16 -5 3
-10 -1 -10 -9z"/>
<path d="M3570 2926 c0 -2 7 -6 15 -10 8 -3 15 -1 15 4 0 6 -7 10 -15 10 -8 0
-15 -2 -15 -4z"/>
<path d="M391 2904 c0 -11 3 -14 6 -6 3 7 2 16 -1 19 -3 4 -6 -2 -5 -13z"/>
<path d="M7140 2909 c0 -15 33 -69 42 -69 15 0 8 35 -11 58 -21 24 -31 28 -31
11z"/>
<path d="M5840 2890 c0 -6 7 -13 15 -16 9 -4 15 -19 15 -36 0 -17 -4 -27 -10
-23 -6 4 -10 -5 -10 -19 0 -14 5 -25 11 -23 10 2 17 -35 22 -125 1 -10 5 -18
10 -18 5 0 7 10 4 23 -3 12 -9 67 -12 123 -6 83 -11 103 -26 112 -12 8 -19 8
-19 2z"/>
<path d="M6854 2873 c2 -15 7 -27 12 -25 13 3 11 45 -3 49 -8 3 -11 -6 -9 -24z"/>
<path d="M4070 2880 c0 -5 5 -10 10 -10 6 0 10 5 10 10 0 6 -4 10 -10 10 -5 0
-10 -4 -10 -10z"/>
<path d="M4662 2860 c0 -14 2 -19 5 -12 2 6 2 18 0 25 -3 6 -5 1 -5 -13z"/>
<path d="M5108 2875 c-2 -2 0 -50 3 -107 4 -56 7 -137 8 -179 l1 -77 -47 4
c-27 2 -40 1 -30 -2 18 -6 24 -44 7 -44 -5 0 -10 -5 -10 -11 0 -5 3 -8 8 -5
12 7 116 -33 130 -51 6 -9 12 -12 12 -5 0 8 7 9 23 3 30 -11 110 -8 114 4 1 6
-33 27 -77 47 l-80 36 0 119 c0 65 -3 147 -6 183 -6 56 -10 67 -30 77 -13 6
-24 9 -26 8z m46 -361 c4 -10 1 -14 -6 -12 -15 5 -23 28 -10 28 5 0 13 -7 16
-16z m102 -111 c-6 -7 -74 16 -81 27 -3 5 15 2 40 -7 25 -8 44 -17 41 -20z"/>
<path d="M5904 2755 c8 -127 13 -158 25 -151 4 3 6 40 4 83 -2 43 -4 97 -3
119 0 27 -6 46 -16 55 -15 13 -16 4 -10 -106z"/>
<path d="M6092 2825 c0 -16 2 -22 5 -12 2 9 2 23 0 30 -3 6 -5 -1 -5 -18z"/>
<path d="M7209 2822 c13 -25 40 -46 48 -39 9 10 -26 57 -43 57 -11 0 -12 -4
-5 -18z"/>
<path d="M6940 2801 c0 -11 4 -22 9 -25 11 -7 23 22 15 35 -9 16 -24 10 -24
-10z"/>
<path d="M4120 2780 c8 -5 22 -9 30 -9 10 0 8 3 -5 9 -27 12 -43 12 -25 0z"/>
<path d="M7431 2754 c0 -11 3 -14 6 -6 3 7 2 16 -1 19 -3 4 -6 -2 -5 -13z"/>
<path d="M7296 2752 c-3 -6 -1 -14 5 -17 15 -10 25 3 12 16 -7 7 -13 7 -17 1z"/>
<path d="M4240 2740 c8 -5 20 -10 25 -10 6 0 3 5 -5 10 -8 5 -19 10 -25 10 -5
0 -3 -5 5 -10z"/>
<path d="M7070 2692 c0 -47 8 -53 29 -21 11 19 10 24 -8 43 l-21 20 0 -42z"/>
<path d="M4200 2711 c8 -5 26 -12 40 -15 l25 -7 -25 15 c-14 9 -32 15 -40 15
-13 0 -13 -1 0 -8z"/>
<path d="M5430 2702 c0 -10 2 -21 5 -24 4 -4 18 -214 17 -260 -1 -10 3 -20 9
-23 5 -4 9 10 9 31 0 47 6 41 13 -13 l5 -43 -51 6 c-49 6 -51 6 -37 -11 12
-14 12 -19 3 -22 -7 -3 -12 -14 -12 -26 1 -17 2 -18 6 -4 6 22 7 22 78 -13 33
-16 68 -30 77 -30 9 0 23 -7 31 -14 13 -13 17 -12 37 9 13 14 22 26 19 28 -2
2 -33 15 -69 29 -64 25 -65 26 -71 69 -4 24 -10 104 -14 177 -7 113 -10 134
-26 142 -25 14 -29 13 -29 -8z"/>
<path d="M6160 2680 c0 -52 15 -52 17 0 0 22 -3 40 -8 40 -5 0 -9 -18 -9 -40z"/>
<path d="M4384 2685 c11 -8 28 -15 39 -15 10 0 21 -9 24 -20 6 -24 19 -26 27
-5 3 8 4 15 3 15 -1 0 -27 9 -57 20 -40 15 -50 16 -36 5z"/>
<path d="M4335 2660 c27 -12 43 -12 25 0 -8 5 -22 9 -30 9 -10 0 -8 -3 5 -9z"/>
<path d="M6112 2590 c0 -19 2 -27 5 -17 2 9 2 25 0 35 -3 9 -5 1 -5 -18z"/>
<path d="M6168 2572 c3 -26 8 -48 12 -50 4 -1 5 -14 2 -27 -7 -37 22 -32 47 8
l20 32 -22 17 c-12 10 -27 18 -34 18 -6 0 -9 8 -6 19 3 10 -2 21 -10 24 -12 4
-13 -3 -9 -41z"/>
<path d="M7180 2605 c0 -8 5 -15 10 -15 6 0 10 7 10 15 0 8 -4 15 -10 15 -5 0
-10 -7 -10 -15z"/>
<path d="M6300 2570 c0 -19 -5 -29 -12 -27 -14 2 -14 3 -3 -124 6 -71 8 -77
30 -81 21 -4 25 -1 28 26 3 25 4 23 5 -11 1 -24 6 -43 10 -43 4 0 6 16 4 35
-3 23 2 45 14 63 37 54 43 69 31 81 -6 6 -17 11 -24 11 -7 0 -15 20 -19 50 -6
47 -8 50 -35 50 -26 0 -29 -4 -29 -30z"/>
<path d="M7346 2578 c11 -35 51 -68 82 -68 21 0 32 -7 41 -26 7 -17 17 -24 26
-20 10 4 15 -1 15 -15 0 -11 8 -23 18 -26 9 -4 24 -16 34 -28 9 -11 20 -17 24
-12 10 10 -147 167 -167 167 -8 0 -26 11 -39 25 -29 31 -44 32 -34 3z"/>
<path d="M3070 2586 c0 -2 7 -7 16 -10 8 -3 12 -2 9 4 -6 10 -25 14 -25 6z"/>
<path d="M3188 2583 c7 -3 16 -2 19 1 4 3 -2 6 -13 5 -11 0 -14 -3 -6 -6z"/>
<path d="M5870 2574 c0 -8 5 -12 10 -9 6 3 10 -3 10 -15 0 -12 -4 -18 -10 -15
-11 7 -14 -34 -3 -61 6 -16 7 -16 14 2 5 13 8 3 9 -31 1 -27 5 -70 10 -95 10
-50 4 124 -7 192 -5 36 -33 63 -33 32z"/>
<path d="M5926 2463 c8 -118 16 -165 30 -170 7 -2 10 12 8 39 -2 24 -5 75 -8
113 -3 39 -6 80 -6 93 0 13 -6 22 -15 22 -13 0 -14 -14 -9 -97z"/>
<path d="M7250 2544 c0 -8 5 -12 10 -9 6 3 10 10 10 16 0 5 -4 9 -10 9 -5 0
-10 -7 -10 -16z"/>
<path d="M6381 2524 c0 -11 3 -14 6 -6 3 7 2 16 -1 19 -3 4 -6 -2 -5 -13z"/>
<path d="M6121 2479 c0 -24 5 -66 9 -94 6 -37 7 -26 3 40 -6 94 -14 130 -12
54z"/>
<path d="M4907 2489 c6 -22 23 -26 23 -5 0 8 -6 16 -14 19 -10 4 -12 0 -9 -14z"/>
<path d="M7357 2439 c4 -13 8 -18 11 -10 2 7 -1 18 -6 23 -8 8 -9 4 -5 -13z"/>
<path d="M7380 2430 c0 -5 5 -10 10 -10 6 0 10 5 10 10 0 6 -4 10 -10 10 -5 0
-10 -4 -10 -10z"/>
<path d="M6593 2400 c5 -24 4 -28 -10 -23 -14 6 -15 -3 -10 -77 3 -53 11 -88
20 -97 20 -20 37 -8 37 26 0 29 39 81 62 81 9 0 9 3 0 12 -7 7 -12 20 -12 29
0 10 -5 21 -11 25 -8 4 -9 0 -4 -15 4 -12 2 -21 -4 -21 -6 0 -11 20 -11 45 0
44 -1 45 -31 45 -30 0 -31 -2 -26 -30z"/>
<path d="M6484 2394 c3 -9 6 -31 6 -50 0 -19 3 -34 8 -34 8 0 48 69 41 73 -53
31 -64 33 -55 11z"/>
<path d="M3320 2390 c0 -5 5 -10 11 -10 8 0 8 -5 -1 -15 -7 -9 -8 -15 -2 -15
10 0 22 23 22 41 0 5 -7 9 -15 9 -8 0 -15 -4 -15 -10z"/>
<path d="M2977 2383 c-4 -3 -7 -11 -7 -17 0 -6 5 -5 12 2 6 6 9 14 7 17 -3 3
-9 2 -12 -2z"/>
<path d="M3290 2370 c0 -5 5 -10 10 -10 6 0 10 5 10 10 0 6 -4 10 -10 10 -5 0
-10 -4 -10 -10z"/>
<path d="M7656 2372 c-8 -13 11 -35 33 -39 25 -3 27 10 5 31 -17 18 -30 20
-38 8z"/>
<path d="M7615 2360 c-4 -7 -2 -16 6 -21 18 -11 23 -4 11 17 -7 12 -11 13 -17
4z"/>
<path d="M7170 2346 c0 -28 12 -46 31 -46 10 0 23 -8 28 -18 5 -10 22 -24 38
-32 15 -8 38 -26 50 -40 13 -14 23 -19 23 -12 0 20 59 -29 59 -50 1 -11 6 -15
15 -12 7 3 21 -2 30 -11 9 -9 16 -12 16 -6 0 6 6 8 14 5 8 -3 17 -1 20 5 4 5
-16 22 -43 36 -44 24 -50 32 -59 74 -7 33 -10 38 -11 19 0 -16 -4 -28 -8 -28
-11 0 -133 82 -133 89 0 4 -16 15 -35 24 -29 14 -35 14 -35 3z"/>
<path d="M7372 2330 c0 -19 2 -27 5 -17 2 9 2 25 0 35 -3 9 -5 1 -5 -18z"/>
<path d="M3165 2340 c-16 -4 -24 -8 -17 -9 17 -1 15 -91 -3 -115 -11 -14 -15
-16 -15 -5 0 8 -10 15 -24 15 -20 2 -26 -4 -32 -30 -9 -39 -9 -385 0 -413 4
-11 16 -23 26 -26 14 -3 20 -14 20 -31 0 -14 4 -26 9 -26 4 0 6 11 3 25 -5 29
-2 30 103 11 60 -10 70 -15 76 -37 6 -22 7 -22 8 -3 1 12 10 28 22 35 18 12
21 27 26 132 5 90 10 120 20 124 12 5 12 7 1 14 -10 6 -8 9 7 9 19 0 20 -5 14
-162 -4 -90 -10 -278 -14 -418 l-7 -255 135 -2 136 -2 -3 187 c-1 103 1 192 5
197 4 6 9 37 12 70 4 44 4 50 -2 25 -5 -20 -6 44 -3 149 5 165 7 187 25 207
11 13 35 50 53 83 l33 60 -37 11 c-58 16 -202 43 -206 39 -2 -2 -6 -35 -9 -73
-3 -37 -8 -71 -11 -73 -5 -6 -134 16 -149 24 -4 3 0 12 10 21 11 11 17 28 15
45 -2 15 1 27 7 27 6 0 8 -8 4 -17 -5 -15 -4 -16 8 -5 25 23 15 100 -17 133
-29 30 -65 38 -81 17 -46 -63 -52 -144 -12 -186 24 -27 10 -36 -36 -24 l-30 9
1 126 c1 141 4 136 -71 117z m191 -102 c22 4 24 1 24 -32 0 -31 -3 -36 -23
-34 -16 1 -22 9 -24 27 0 14 -9 30 -18 37 -10 8 -14 18 -9 25 5 9 10 7 17 -8
6 -14 15 -19 33 -15z m-229 -120 c-2 -13 -4 -3 -4 22 0 25 2 35 4 23 2 -13 2
-33 0 -45z"/>
<path d="M6142 2290 c0 -19 2 -27 5 -17 2 9 2 25 0 35 -3 9 -5 1 -5 -18z"/>
<path d="M5902 2270 c10 -6 16 -23 16 -46 0 -19 3 -38 7 -42 3 -4 5 16 3 43
-2 41 -7 50 -23 53 -17 2 -18 1 -3 -8z"/>
<path d="M5960 2264 c-13 -4 -14 -21 -4 -137 13 -149 12 -137 22 -137 4 0 6
37 5 82 -2 86 -6 199 -7 197 -1 -1 -8 -3 -16 -5z"/>
<path d="M6361 2254 c0 -11 3 -14 6 -6 3 7 2 16 -1 19 -3 4 -6 -2 -5 -13z"/>
<path d="M6740 2235 c0 -42 4 -43 26 -9 15 22 15 27 3 35 -24 15 -29 10 -29
-26z"/>
<path d="M6371 2214 c0 -11 3 -14 6 -6 3 7 2 16 -1 19 -3 4 -6 -2 -5 -13z"/>
<path d="M6848 2180 c5 -36 8 -37 23 -9 9 17 8 23 -2 30 -22 14 -26 11 -21
-21z"/>
<path d="M6152 2175 c0 -16 2 -22 5 -12 2 9 2 23 0 30 -3 6 -5 -1 -5 -18z"/>
<path d="M6372 2155 c0 -16 2 -22 5 -12 2 9 2 23 0 30 -3 6 -5 -1 -5 -18z"/>
<path d="M5926 2140 c8 -43 14 -51 14 -19 0 13 -5 31 -10 39 -7 11 -8 5 -4
-20z"/>
<path d="M6926 2130 c-16 -28 -17 -39 -5 -120 8 -64 16 -90 26 -90 10 0 12 10
7 38 -6 37 -5 39 27 48 33 10 34 11 31 59 -3 39 -10 55 -30 72 -34 29 -34 29
-56 -7z m61 -62 c-2 -13 -4 -5 -4 17 -1 22 1 32 4 23 2 -10 2 -28 0 -40z"/>
<path d="M7862 2139 c2 -7 10 -15 17 -17 8 -3 12 1 9 9 -2 7 -10 15 -17 17 -8
3 -12 -1 -9 -9z"/>
<path d="M7661 2124 c0 -11 3 -14 6 -6 3 7 2 16 -1 19 -3 4 -6 -2 -5 -13z"/>
<path d="M7030 2083 c1 -27 1 -27 15 -9 14 19 12 36 -6 36 -5 0 -9 -12 -9 -27z"/>
<path d="M6161 2074 c0 -11 3 -14 6 -6 3 7 2 16 -1 19 -3 4 -6 -2 -5 -13z"/>
<path d="M4136 2028 c-7 -64 -23 -838 -18 -855 3 -9 32 -13 101 -13 l96 0 -3
354 c-4 337 -3 356 16 383 57 83 73 113 68 121 -5 8 -55 21 -171 43 -33 6 -65
13 -71 16 -8 3 -14 -13 -18 -49z"/>
<path d="M7411 2064 c0 -11 3 -14 6 -6 3 7 2 16 -1 19 -3 4 -6 -2 -5 -13z"/>
<path d="M6200 2041 c0 -11 4 -22 9 -25 4 -3 6 6 3 19 -5 30 -12 33 -12 6z"/>
<path d="M7682 2030 c0 -14 2 -19 5 -12 2 6 2 18 0 25 -3 6 -5 1 -5 -13z"/>
<path d="M8362 2000 c0 -14 2 -19 5 -12 2 6 2 18 0 25 -3 6 -5 1 -5 -13z"/>
<path d="M6172 1970 c0 -19 2 -27 5 -17 2 9 2 25 0 35 -3 9 -5 1 -5 -18z"/>
<path d="M7510 1980 c0 -12 5 -17 14 -14 8 3 16 -4 19 -17 4 -13 11 -20 20
-16 7 3 19 -4 26 -14 6 -11 15 -17 20 -14 5 2 14 -2 21 -10 15 -18 30 -19 30
-2 0 12 -22 28 -107 81 -41 25 -43 25 -43 6z"/>
<path d="M8630 1990 c0 -5 5 -10 10 -10 6 0 10 5 10 10 0 6 -4 10 -10 10 -5 0
-10 -4 -10 -10z"/>
<path d="M7271 1974 c0 -11 3 -14 6 -6 3 7 2 16 -1 19 -3 4 -6 -2 -5 -13z"/>
<path d="M7424 1943 c1 -28 4 -49 9 -46 9 5 8 52 -2 77 -5 13 -7 1 -7 -31z"/>
<path d="M7124 1973 c11 -3 33 -18 50 -34 49 -46 66 -34 21 15 -17 19 -33 26
-57 25 -20 -1 -26 -3 -14 -6z"/>
<path d="M4680 1658 c0 -168 3 -353 7 -411 l6 -107 78 0 78 0 -10 28 c-12 36
-29 604 -18 617 5 5 10 -33 10 -90 1 -55 5 -149 9 -210 6 -87 7 -62 6 125 0
229 0 237 22 267 12 17 18 34 13 37 -5 3 -42 13 -82 22 -41 9 -84 19 -96 21
l-23 5 0 -304z"/>
<path d="M5500 1945 c0 -9 9 -15 21 -15 18 0 19 2 9 15 -7 8 -16 15 -21 15 -5
0 -9 -7 -9 -15z"/>
<path d="M8356 1944 c-4 -9 -4 -19 -1 -22 2 -3 7 3 11 12 4 9 4 19 1 22 -2 3
-7 -3 -11 -12z"/>
<path d="M7330 1941 c0 -6 5 -13 10 -16 6 -3 10 1 10 9 0 9 -4 16 -10 16 -5 0
-10 -4 -10 -9z"/>
<path d="M5465 1930 c3 -5 11 -10 16 -10 6 0 7 5 4 10 -3 6 -11 10 -16 10 -6
0 -7 -4 -4 -10z"/>
<path d="M8485 1920 c-3 -5 -1 -10 4 -10 6 0 11 5 11 10 0 6 -2 10 -4 10 -3 0
-8 -4 -11 -10z"/>
<path d="M8520 1904 c0 -8 5 -12 10 -9 6 3 10 10 10 16 0 5 -4 9 -10 9 -5 0
-10 -7 -10 -16z"/>
<path d="M6543 1903 c9 -2 17 -9 17 -14 0 -5 10 -9 23 -9 22 1 22 1 -3 15 -14
8 -32 14 -40 13 -10 0 -10 -2 3 -5z"/>
<path d="M6648 1898 c-3 -7 2 -20 11 -28 8 -8 16 -13 16 -12 0 2 13 -2 28 -9
23 -11 32 -11 49 0 17 10 22 10 29 0 4 -7 19 -14 34 -16 39 -6 75 -21 75 -33
0 -6 -6 -8 -12 -4 -7 4 -9 3 -5 -1 4 -5 18 -10 30 -10 74 -4 75 -5 70 -25 -3
-12 0 -20 6 -20 7 0 9 5 6 10 -4 6 6 10 22 10 32 0 48 -9 49 -27 1 -7 2 -30 4
-50 2 -30 4 -33 7 -13 6 33 24 55 33 40 4 -7 15 -4 31 9 l24 20 -47 12 -47 13
-7 53 c-3 29 -10 56 -14 58 -5 3 -6 -17 -3 -45 3 -30 1 -50 -5 -50 -20 0 -153
47 -164 58 -7 7 -17 12 -23 12 -6 0 -39 11 -73 24 -85 34 -118 40 -124 24z"/>
<path d="M7680 1896 c0 -8 6 -16 14 -19 10 -4 12 0 9 14 -6 22 -23 26 -23 5z"/>
<path d="M7211 1884 c0 -11 3 -14 6 -6 3 7 2 16 -1 19 -3 4 -6 -2 -5 -13z"/>
<path d="M5119 1833 c-6 -40 10 -576 19 -648 l7 -59 50 3 c28 1 51 4 52 5 1 0
-2 48 -7 106 -13 158 -23 476 -15 468 4 -3 10 -57 14 -120 l8 -113 2 151 c1
121 4 154 16 164 28 23 16 37 -42 49 -32 7 -68 15 -79 18 -18 4 -22 -1 -25
-24z"/>
<path d="M7780 1839 c0 -6 9 -13 20 -16 11 -3 20 -8 20 -12 0 -3 15 -12 33
-20 17 -8 35 -19 38 -24 4 -5 9 -5 13 1 6 10 -13 25 -79 62 -41 23 -45 24 -45
9z"/>
<path d="M7446 1795 c4 -27 10 -68 15 -90 7 -31 7 -25 3 27 -2 37 -9 78 -14
90 -7 17 -8 10 -4 -27z"/>
<path d="M8872 1829 c2 -7 10 -15 17 -17 8 -3 12 1 9 9 -2 7 -10 15 -17 17 -8
3 -12 -1 -9 -9z"/>
<path d="M6820 1806 c0 -2 7 -7 16 -10 8 -3 12 -2 9 4 -6 10 -25 14 -25 6z"/>
<path d="M7105 1800 c3 -5 8 -10 11 -10 2 0 4 5 4 10 0 6 -5 10 -11 10 -5 0
-7 -4 -4 -10z"/>
<path d="M7930 1750 c0 -5 5 -10 11 -10 5 0 7 5 4 10 -3 6 -8 10 -11 10 -2 0
-4 -4 -4 -10z"/>
<path d="M7000 1746 c0 -2 7 -7 16 -10 8 -3 12 -2 9 4 -6 10 -25 14 -25 6z"/>
<path d="M7970 1733 c0 -7 5 -13 10 -13 14 0 12 -28 -2 -32 -9 -3 -9 -6 0 -12
7 -4 12 -2 12 3 0 6 5 11 11 11 5 0 7 -4 4 -10 -3 -5 -1 -10 5 -10 7 0 9 9 5
23 -4 12 -9 29 -11 38 -5 19 -34 21 -34 2z"/>
<path d="M5582 1660 c-7 -11 -8 -20 -3 -20 9 0 24 30 18 36 -1 2 -8 -6 -15
-16z"/>
<path d="M7310 1650 c0 -13 7 -20 20 -20 11 0 20 4 20 10 0 5 -9 14 -20 20
-17 9 -20 8 -20 -10z"/>
<path d="M7725 1660 c-3 -5 -1 -10 4 -10 6 0 11 5 11 10 0 6 -2 10 -4 10 -3 0
-8 -4 -11 -10z"/>
<path d="M7372 1623 c4 -22 48 -31 48 -10 0 14 -20 27 -42 27 -5 0 -8 -8 -6
-17z"/>
<path d="M316 1574 c-4 -14 -5 -28 -3 -31 3 -2 8 8 11 23 4 14 5 28 3 31 -3 2
-8 -8 -11 -23z"/>
<path d="M305 1500 c-3 -5 -1 -10 4 -10 6 0 11 5 11 10 0 6 -2 10 -4 10 -3 0
-8 -4 -11 -10z"/>
<path d="M1838 1433 c5 -21 7 -23 10 -9 2 10 0 22 -6 28 -6 6 -7 0 -4 -19z"/>
<path d="M7586 1445 c4 -8 10 -12 15 -9 14 8 10 24 -6 24 -9 0 -12 -6 -9 -15z"/>
<path d="M7820 1387 c0 -9 11 -13 30 -12 17 1 30 -2 30 -7 0 -4 7 -8 15 -8 22
0 18 18 -5 25 -46 15 -70 15 -70 2z"/>
<path d="M7625 1360 c3 -5 11 -10 16 -10 6 0 7 5 4 10 -3 6 -11 10 -16 10 -6
0 -7 -4 -4 -10z"/>
<path d="M1880 1351 c0 -5 5 -13 10 -16 6 -3 10 -2 10 4 0 5 -4 13 -10 16 -5
3 -10 2 -10 -4z"/>
<path d="M8000 1340 c0 -5 5 -10 11 -10 5 0 7 5 4 10 -3 6 -8 10 -11 10 -2 0
-4 -4 -4 -10z"/>
<path d="M135 1260 c-3 -5 -1 -10 4 -10 6 0 11 5 11 10 0 6 -2 10 -4 10 -3 0
-8 -4 -11 -10z"/>
<path d="M72 1120 c0 -19 2 -27 5 -17 2 9 2 25 0 35 -3 9 -5 1 -5 -18z"/>
<path d="M2830 1065 c0 -65 1 -67 23 -61 101 25 621 29 1072 7 l170 -8 -234
-1 c-129 -1 -232 -4 -230 -7 11 -10 1072 -6 1082 4 14 14 170 14 183 1 9 -9
224 -14 354 -9 19 1 82 1 140 1 58 -1 140 1 184 4 55 4 76 2 72 -5 -4 -6 0
-11 8 -11 9 0 16 4 16 9 0 5 15 9 34 9 19 0 39 3 45 6 5 4 12 2 16 -4 4 -6 11
-8 16 -4 5 3 7 10 4 15 -8 12 18 12 31 -1 8 -8 18 -5 34 8 24 19 23 19 -111
26 -74 3 -224 9 -334 11 -110 3 -343 10 -518 15 -175 6 -422 12 -550 15 -128
3 -320 7 -427 10 -107 3 -325 7 -485 10 -331 6 -540 14 -572 22 -22 5 -23 3
-23 -62z m603 -32 c-7 -2 -19 -2 -25 0 -7 3 -2 5 12 5 14 0 19 -2 13 -5z m850
0 c-18 -2 -48 -2 -65 0 -18 2 -4 4 32 4 36 0 50 -2 33 -4z m166 -29 c2 -2 -74
-4 -170 -3 -96 0 -165 4 -154 8 19 8 316 3 324 -5z"/>
<path d="M4758 993 c23 -2 59 -2 80 0 20 2 1 4 -43 4 -44 0 -61 -2 -37 -4z"/>
<path d="M5608 983 c7 -3 16 -2 19 1 4 3 -2 6 -13 5 -11 0 -14 -3 -6 -6z"/>
<path d="M3548 963 c7 -3 16 -2 19 1 4 3 -2 6 -13 5 -11 0 -14 -3 -6 -6z"/>
<path d="M3263 953 c9 -2 23 -2 30 0 6 3 -1 5 -18 5 -16 0 -22 -2 -12 -5z"/>
<path d="M3350 948 c0 -5 39 -7 88 -7 91 2 81 6 -26 11 -34 2 -62 0 -62 -4z"/>
<path d="M6906 825 c16 -13 16 -14 2 -9 -15 5 -18 0 -17 -32 0 -37 1 -38 11
-14 l11 25 6 -27 6 -28 16 29 c18 31 15 42 -18 60 -31 16 -40 14 -17 -4z"/>
<path d="M6938 749 c-20 -22 -41 -53 -47 -70 -10 -29 -10 -29 28 -29 20 0 46
-6 56 -14 14 -10 25 -11 38 -5 9 6 22 7 27 4 6 -3 14 -4 20 0 14 8 -22 43 -39
37 -10 -4 -13 0 -9 16 5 19 2 22 -28 22 -26 0 -32 3 -28 15 4 8 11 15 18 15 6
0 12 11 12 25 2 34 -5 31 -48 -16z"/>
<path d="M7085 650 c-3 -5 -1 -10 4 -10 6 0 11 5 11 10 0 6 -2 10 -4 10 -3 0
-8 -4 -11 -10z"/>
<path d="M6790 642 c0 -5 14 -7 30 -4 17 2 30 6 30 8 0 2 -13 4 -30 4 -16 0
-30 -4 -30 -8z"/>
<path d="M6838 613 c6 -2 18 -2 25 0 6 3 1 5 -13 5 -14 0 -19 -2 -12 -5z"/>
<path d="M7303 613 c-13 -2 -23 -8 -23 -12 0 -5 10 -7 23 -6 12 1 28 3 35 4 6
0 12 6 12 11 0 10 -8 11 -47 3z"/>
<path d="M6908 603 c12 -2 30 -2 40 0 9 3 -1 5 -23 4 -22 0 -30 -2 -17 -4z"/>
<path d="M6755 590 c-4 -6 5 -10 20 -10 15 0 24 4 20 10 -3 6 -12 10 -20 10
-8 0 -17 -4 -20 -10z"/>
<path d="M6640 580 c0 -5 20 -10 44 -10 25 0 48 5 51 10 4 6 -13 10 -44 10
-28 0 -51 -4 -51 -10z"/>
<path d="M4686 498 c-7 -27 -7 -79 1 -60 7 17 21 15 26 -5 3 -10 5 4 4 31 -2
52 -20 72 -31 34z"/>
<path d="M5318 493 c-32 -2 -58 -8 -58 -13 0 -6 4 -10 8 -10 5 0 33 -15 64
-34 31 -18 68 -36 84 -40 15 -4 46 -20 68 -35 38 -27 45 -28 95 -20 29 4 56
11 59 14 5 5 -33 9 -51 6 -5 -1 -7 3 -5 9 2 7 7 11 12 10 5 -1 12 3 15 9 5 7
14 5 27 -6 18 -17 64 -27 64 -14 0 8 -214 111 -229 111 -7 0 -10 -4 -7 -8 2
-4 -30 -8 -72 -9 l-77 0 67 11 c36 6 70 14 74 19 7 7 -23 7 -138 0z m132 -58
c9 -10 9 -15 1 -15 -6 0 -11 4 -11 9 0 5 -8 12 -17 14 -15 4 -15 5 -2 6 9 0
22 -6 29 -14z"/>
<path d="M7750 491 c8 -5 94 -11 190 -14 96 -3 159 -2 140 3 -50 11 -348 21
-330 11z"/>
<path d="M5143 470 c9 -6 17 -16 17 -22 0 -9 -3 -9 -12 0 -22 22 -28 13 -28
-43 0 -51 -2 -56 -27 -66 -16 -6 -44 -13 -63 -16 -19 -2 -57 -11 -83 -18 -26
-8 -54 -12 -62 -8 -24 8 -17 -13 8 -30 30 -19 106 -96 118 -120 11 -19 -8 -30
-75 -43 -21 -3 -35 -11 -33 -18 2 -6 11 -10 21 -8 24 4 19 -15 -6 -21 -12 -4
-29 -1 -37 6 -10 8 -13 8 -8 0 5 -7 0 -9 -14 -6 -21 6 -21 6 2 24 24 19 24 19
2 19 -12 0 -24 -4 -27 -9 -3 -5 -38 -17 -78 -26 -40 -10 -79 -22 -85 -28 -21
-16 -135 -12 -168 6 -16 9 -35 17 -41 17 -6 0 -17 7 -24 15 -7 8 -23 15 -36
15 -18 0 -25 8 -33 37 -6 21 -11 44 -11 51 0 7 -4 10 -10 7 -5 -3 -17 -2 -26
3 -11 6 -13 11 -5 16 17 11 13 26 -6 19 -10 -4 -14 -2 -10 4 8 12 -51 68 -82
78 -11 3 -21 16 -23 28 -2 12 -12 23 -23 26 -11 2 -35 16 -54 32 -19 15 -39
25 -44 22 -6 -3 -7 -2 -4 4 6 9 -35 53 -48 53 -3 0 -5 -76 -5 -169 0 -111 -4
-172 -11 -176 -6 -4 -32 -9 -57 -10 -26 -2 -60 -9 -76 -15 -16 -6 -46 -12 -65
-14 -77 -6 -201 -42 -201 -57 0 -5 -7 -9 -15 -9 -8 0 -15 -4 -15 -10 0 -7 200
-10 580 -10 457 0 580 3 580 13 0 8 4 7 10 -3 8 -12 11 -13 19 -1 7 11 9 11
14 0 4 -10 6 -9 6 4 1 9 5 17 11 17 5 0 7 -7 4 -15 -5 -13 10 -15 99 -15 75 0
107 4 111 13 5 9 7 9 12 0 8 -18 182 -16 254 2 63 15 59 18 -22 15 -49 -2 -58
1 -58 15 0 15 8 17 52 13 40 -4 55 -2 64 10 14 19 35 7 27 -14 -5 -14 1 -15
48 -9 30 4 70 13 89 20 19 7 64 19 100 25 35 7 73 18 84 26 11 8 33 14 48 14
16 0 28 4 28 9 0 15 -84 3 -96 -14 -10 -13 -17 -14 -31 -6 -17 10 -16 10 4 11
16 0 21 4 17 15 -5 11 -15 14 -39 9 -37 -7 -53 7 -29 26 10 9 18 10 25 3 13
-13 59 6 59 24 0 6 5 15 11 19 8 4 9 0 4 -15 -9 -28 14 -36 67 -25 35 8 41 13
44 36 2 18 -4 32 -14 39 -15 9 -14 10 6 6 14 -4 22 0 22 9 0 12 -5 12 -37 0
-84 -31 -205 -45 -203 -23 2 13 -45 46 -97 69 -26 11 -61 30 -78 42 -16 11
-52 33 -80 47 -27 14 -63 33 -80 41 -36 19 -100 34 -72 18z m617 -235 c0 -13
-4 -14 -20 -5 -11 6 -20 13 -20 15 0 3 9 5 20 5 11 0 20 -7 20 -15z m-280
-130 c0 -9 -6 -12 -15 -9 -8 4 -12 10 -9 15 8 14 24 10 24 -6z m-93 -21 c-3
-3 -12 -4 -19 -1 -8 3 -5 6 6 6 11 1 17 -2 13 -5z m-247 -30 c0 -11 -28 -33
-34 -27 -13 13 -5 33 14 33 11 0 20 -3 20 -6z"/>
<path d="M5590 459 c0 -14 40 -16 57 -4 16 12 13 13 -20 12 -20 0 -37 -4 -37
-8z"/>
<path d="M6456 441 c-3 -5 1 -12 10 -15 24 -9 31 -7 38 9 4 11 -1 15 -19 15
-13 0 -26 -4 -29 -9z"/>
<path d="M4608 423 c7 -3 16 -2 19 1 4 3 -2 6 -13 5 -11 0 -14 -3 -6 -6z"/>
<path d="M6808 423 c7 -3 16 -2 19 1 4 3 -2 6 -13 5 -11 0 -14 -3 -6 -6z"/>
<path d="M6400 401 c0 -12 38 -21 58 -14 13 6 13 8 -4 14 -27 11 -54 11 -54 0z"/>
<path d="M4448 393 c7 -3 16 -2 19 1 4 3 -2 6 -13 5 -11 0 -14 -3 -6 -6z"/>
<path d="M4495 390 c3 -5 8 -10 11 -10 2 0 4 5 4 10 0 6 -5 10 -11 10 -5 0 -7
-4 -4 -10z"/>
<path d="M6522 389 c-46 -9 -52 -19 -11 -19 19 0 44 -3 57 -6 13 -4 22 -2 22
5 0 6 -6 11 -14 11 -8 0 -16 4 -18 8 -1 5 -18 5 -36 1z"/>
<path d="M4262 378 c3 -7 13 -15 22 -16 12 -3 17 1 14 10 -3 7 -13 15 -22 16
-12 3 -17 -1 -14 -10z"/>
<path d="M2762 350 c0 -19 2 -27 5 -17 2 9 2 25 0 35 -3 9 -5 1 -5 -18z"/>
<path d="M4501 348 c-1 -24 3 -28 28 -28 16 0 36 -3 45 -6 10 -4 16 -1 16 9 0
13 -8 15 -35 12 -30 -4 -37 -1 -45 18 -8 21 -9 21 -9 -5z"/>
<path d="M7257 359 c8 -8 16 -8 30 0 16 9 14 10 -11 11 -22 0 -27 -3 -19 -11z"/>
<path d="M6940 335 c0 -8 5 -15 10 -15 6 0 10 7 10 15 0 8 -4 15 -10 15 -5 0
-10 -7 -10 -15z"/>
<path d="M7316 341 c-4 -5 3 -7 14 -4 23 6 26 13 6 13 -8 0 -17 -4 -20 -9z"/>
<path d="M7245 330 c3 -5 8 -10 11 -10 2 0 4 5 4 10 0 6 -5 10 -11 10 -5 0 -7
-4 -4 -10z"/>
<path d="M7398 328 c9 -9 15 -9 24 0 9 9 7 12 -12 12 -19 0 -21 -3 -12 -12z"/>
<path d="M7440 329 c0 -5 5 -7 10 -4 6 3 10 8 10 11 0 2 -4 4 -10 4 -5 0 -10
-5 -10 -11z"/>
<path d="M5715 320 c-4 -6 5 -10 19 -10 14 0 26 5 26 10 0 6 -9 10 -19 10 -11
0 -23 -4 -26 -10z"/>
<path d="M6395 319 c-9 -14 -2 -20 14 -10 8 6 9 11 3 15 -6 3 -14 1 -17 -5z"/>
<path d="M7150 310 c-17 -11 -7 -24 28 -35 21 -6 23 -4 20 16 -3 26 -25 34
-48 19z"/>
<path d="M4460 281 c0 -14 28 -33 40 -26 5 3 10 -1 10 -9 0 -9 5 -16 11 -16
20 0 4 35 -19 38 -12 2 -22 8 -22 13 0 5 -4 9 -10 9 -5 0 -10 -4 -10 -9z"/>
<path d="M4600 279 c0 -6 -6 -9 -14 -6 -8 3 -22 0 -31 -7 -14 -10 -12 -12 19
-8 22 3 36 10 36 18 0 8 -2 14 -5 14 -3 0 -5 -5 -5 -11z"/>
<path d="M6036 275 c-3 -10 1 -15 13 -15 10 0 18 7 18 15 0 8 -6 15 -13 15 -6
0 -14 -7 -18 -15z"/>
<path d="M7655 280 c3 -5 10 -10 16 -10 5 0 9 5 9 10 0 6 -7 10 -16 10 -8 0
-12 -4 -9 -10z"/>
<path d="M7040 256 c0 -31 6 -34 13 -6 3 11 1 23 -4 26 -5 3 -9 -6 -9 -20z"/>
<path d="M7340 270 c0 -5 5 -10 10 -10 6 0 10 5 10 10 0 6 -4 10 -10 10 -5 0
-10 -4 -10 -10z"/>
<path d="M4660 261 c0 -7 -8 -11 -17 -9 -10 1 -18 -2 -18 -7 0 -6 11 -9 25 -7
32 4 36 10 22 24 -9 9 -12 9 -12 -1z"/>
<path d="M6025 240 c-3 -5 1 -10 9 -10 8 0 18 5 21 10 3 6 -1 10 -9 10 -8 0
-18 -4 -21 -10z"/>
<path d="M7440 221 c0 -6 5 -13 10 -16 6 -3 10 1 10 9 0 9 -4 16 -10 16 -5 0
-10 -4 -10 -9z"/>
<path d="M5929 209 c-10 -6 -7 -9 14 -9 29 0 35 5 14 13 -8 3 -20 1 -28 -4z"/>
<path d="M4580 200 c0 -5 5 -10 11 -10 5 0 7 5 4 10 -3 6 -8 10 -11 10 -2 0
-4 -4 -4 -10z"/>
<path d="M4775 180 c10 -11 20 -18 23 -16 5 6 -23 36 -34 36 -4 0 1 -9 11 -20z"/>
<path d="M4544 176 c11 -9 27 -16 35 -16 21 0 2 16 -29 24 -24 7 -24 6 -6 -8z"/>
<path d="M6795 181 c-10 -17 15 -23 31 -7 14 15 14 16 -5 16 -11 0 -22 -4 -26
-9z"/>
<path d="M7005 180 c-3 -5 3 -10 14 -10 12 0 21 5 21 10 0 6 -6 10 -14 10 -8
0 -18 -4 -21 -10z"/>
<path d="M6910 170 c0 -5 5 -10 10 -10 6 0 10 5 10 10 0 6 -4 10 -10 10 -5 0
-10 -4 -10 -10z"/>
<path d="M6957 160 c3 -11 14 -20 24 -20 25 0 24 4 -5 23 -23 15 -24 15 -19
-3z"/>
<path d="M5763 163 c9 -2 23 -2 30 0 6 3 -1 5 -18 5 -16 0 -22 -2 -12 -5z"/>
<path d="M7285 160 c-3 -5 -2 -10 4 -10 5 0 13 5 16 10 3 6 2 10 -4 10 -5 0
-13 -4 -16 -10z"/>
<path d="M4625 150 c-3 -5 -1 -10 4 -10 6 0 11 5 11 10 0 6 -2 10 -4 10 -3 0
-8 -4 -11 -10z"/>
<path d="M6248 133 c7 -3 16 -2 19 1 4 3 -2 6 -13 5 -11 0 -14 -3 -6 -6z"/>
<path d="M6907 120 c-3 -13 0 -20 9 -20 8 0 14 9 14 20 0 11 -4 20 -9 20 -5 0
-11 -9 -14 -20z"/>
<path d="M7822 120 c0 -14 2 -19 5 -12 2 6 2 18 0 25 -3 6 -5 1 -5 -13z"/>
<path d="M7290 120 c0 -5 4 -10 9 -10 6 0 13 5 16 10 3 6 -1 10 -9 10 -9 0
-16 -4 -16 -10z"/>
<path d="M6162 113 c9 -2 18 -10 20 -16 2 -8 13 -10 33 -6 l30 7 -27 1 c-16 0
-28 6 -28 11 0 6 -10 9 -22 9 -16 -1 -18 -3 -6 -6z"/>
<path d="M6706 105 c-3 -8 -1 -15 4 -15 6 0 10 7 10 15 0 8 -2 15 -4 15 -2 0
-6 -7 -10 -15z"/>
<path d="M7228 106 c-10 -7 -18 -17 -18 -21 0 -4 6 -2 13 4 8 6 17 8 20 4 4
-3 7 1 7 10 0 20 0 20 -22 3z"/>
<path d="M7483 105 c-17 -19 -16 -25 2 -25 8 0 15 2 15 4 0 2 3 11 6 20 8 20
-7 20 -23 1z"/>
<path d="M6400 102 c0 -8 46 -41 58 -42 14 0 15 9 3 29 -8 12 -61 23 -61 13z"/>
<path d="M6523 103 c-13 -2 -23 -9 -23 -14 0 -13 22 -10 44 6 20 15 19 16 -21
8z"/>
<path d="M6763 103 c-15 -5 -17 -29 -4 -37 4 -3 16 3 25 13 13 14 14 20 4 23
-7 3 -19 3 -25 1z"/>
<path d="M7120 95 c0 -9 -6 -12 -15 -9 -8 4 -15 1 -15 -5 0 -18 36 -12 55 9
18 19 17 20 -3 20 -13 0 -22 -6 -22 -15z"/>
<path d="M7558 95 c13 -9 26 -14 29 -11 8 8 3 12 -27 21 l-25 7 23 -17z"/>
<path d="M6610 85 c0 -8 5 -15 10 -15 6 0 10 7 10 15 0 8 -4 15 -10 15 -5 0
-10 -7 -10 -15z"/>
<path d="M6826 92 c-3 -6 3 -12 15 -15 12 -3 19 -1 16 6 -5 15 -24 20 -31 9z"/>
<path d="M6105 80 c-30 -8 -30 -8 -3 -9 14 0 33 -4 42 -7 11 -4 16 -1 16 10 0
17 -8 18 -55 6z"/>
<path d="M6294 78 c-12 -19 14 -32 31 -14 9 9 15 16 13 17 -27 6 -39 5 -44 -3z"/>
<path d="M7745 81 c-3 -5 -1 -12 5 -16 5 -3 10 1 10 9 0 18 -6 21 -15 7z"/>
<path d="M5990 67 c0 -16 -5 -17 -32 -12 -31 7 -32 6 -16 -11 14 -14 22 -16
42 -6 23 10 36 7 36 -10 0 -11 -53 -10 -85 2 -30 11 -155 -6 -155 -21 0 -5 55
-9 121 -9 114 0 123 1 141 23 20 22 20 22 -3 25 -13 2 -29 11 -36 20 -11 16
-12 16 -13 -1z"/>
<path d="M6385 64 c-5 -1 -22 -5 -37 -8 -45 -10 -34 -29 12 -23 35 4 40 2 40
-14 0 -10 5 -19 10 -19 6 0 10 8 10 18 -1 21 -22 50 -35 46z"/>
<path d="M7000 60 c0 -5 5 -10 10 -10 6 0 10 5 10 10 0 6 -4 10 -10 10 -5 0
-10 -4 -10 -10z"/>
<path d="M7778 63 c7 -3 16 -2 19 1 4 3 -2 6 -13 5 -11 0 -14 -3 -6 -6z"/>
<path d="M6850 50 c0 -5 5 -10 10 -10 6 0 10 5 10 10 0 6 -4 10 -10 10 -5 0
-10 -4 -10 -10z"/>
<path d="M6960 50 c0 -5 5 -10 11 -10 5 0 7 5 4 10 -3 6 -8 10 -11 10 -2 0 -4
-4 -4 -10z"/>
<path d="M7035 47 c-4 -9 -12 -17 -19 -16 -26 3 -35 -2 -29 -17 5 -13 7 -13
14 -2 7 10 9 10 9 0 0 -8 7 -6 21 7 12 11 19 25 16 33 -3 9 -7 8 -12 -5z"/>
<path d="M700 40 c0 -5 11 -10 25 -10 14 0 25 5 25 10 0 6 -11 10 -25 10 -14
0 -25 -4 -25 -10z"/>
<path d="M6591 38 c-1 -20 -27 -25 -33 -6 -2 6 -9 8 -16 4 -6 -3 -9 -13 -5
-21 7 -19 119 -21 126 -2 4 9 8 8 16 -3 10 -13 12 -13 21 0 15 23 12 27 -22
34 -24 5 -36 2 -44 -9 -15 -20 -31 -19 -37 3 -4 16 -5 16 -6 0z"/>
<path d="M7410 40 c0 -5 7 -10 15 -10 8 0 15 5 15 10 0 6 -7 10 -15 10 -8 0
-15 -4 -15 -10z"/>
<path d="M310 29 c-13 -9 -12 -10 2 -5 12 3 15 1 12 -9 -5 -11 4 -14 38 -13
23 1 47 7 51 12 6 8 10 7 14 -1 2 -7 11 -13 20 -13 8 0 13 6 10 13 -2 8 -22
12 -55 11 -29 -1 -52 3 -52 7 0 12 -22 11 -40 -2z"/>
<path d="M6208 33 c-34 -5 -27 -33 8 -33 17 0 24 6 24 20 0 11 -1 19 -2 19 -2
-1 -15 -4 -30 -6z"/>
<path d="M6263 33 c-10 -3 -9 -9 3 -20 13 -14 17 -14 25 -2 17 27 5 36 -28 22z"/>
<path d="M7120 13 c0 -10 4 -14 8 -8 4 6 11 13 16 18 5 4 2 7 -7 7 -10 0 -17
-8 -17 -17z"/>
<path d="M7206 23 c-11 -11 -6 -23 9 -23 8 0 15 4 15 9 0 13 -16 22 -24 14z"/>
<path d="M7361 14 c0 -11 3 -14 6 -6 3 7 2 16 -1 19 -3 4 -6 -2 -5 -13z"/>
<path d="M6130 10 c0 -5 9 -10 20 -10 11 0 20 5 20 10 0 6 -9 10 -20 10 -11 0
-20 -4 -20 -10z"/>
<path d="M6350 10 c0 -5 7 -10 15 -10 8 0 15 5 15 10 0 6 -7 10 -15 10 -8 0
-15 -4 -15 -10z"/>
<path d="M6430 10 c0 -5 5 -10 10 -10 6 0 10 5 10 10 0 6 -4 10 -10 10 -5 0
-10 -4 -10 -10z"/>
<path d="M6470 10 c0 -5 5 -10 10 -10 6 0 10 5 10 10 0 6 -4 10 -10 10 -5 0
-10 -4 -10 -10z"/>
<path d="M6500 10 c0 -5 5 -10 10 -10 6 0 10 5 10 10 0 6 -4 10 -10 10 -5 0
-10 -4 -10 -10z"/>
<path d="M6950 10 c0 -5 5 -10 10 -10 6 0 10 5 10 10 0 6 -4 10 -10 10 -5 0
-10 -4 -10 -10z"/>
<path d="M7450 10 c0 -5 7 -10 15 -10 8 0 15 5 15 10 0 6 -7 10 -15 10 -8 0
-15 -4 -15 -10z"/>
<path d="M568 3 c6 -2 18 -2 25 0 6 3 1 5 -13 5 -14 0 -19 -2 -12 -5z"/>
</g>
</svg>
