<?xml version="1.0" standalone="no"?>
<!DOCTYPE svg PUBLIC "-//W3C//DTD SVG 20010904//EN"
 "http://www.w3.org/TR/2001/REC-SVG-20010904/DTD/svg10.dtd">
<svg version="1.0" xmlns="http://www.w3.org/2000/svg"
 width="500.000000pt" height="281.000000pt" viewBox="0 0 500.000000 281.000000"
 preserveAspectRatio="xMidYMid meet">

<g transform="translate(0.000000,281.000000) scale(0.100000,-0.100000)"
fill="#000000" stroke="none">
<path d="M1000 2803 c0 -4 12 -18 28 -30 l27 -24 -50 5 c-27 2 -74 9 -102 15
-40 9 -58 9 -75 0 -12 -6 -45 -13 -72 -14 -57 -2 -171 -49 -161 -66 9 -14 -14
-39 -36 -39 -11 0 -19 -7 -19 -15 0 -8 -7 -15 -15 -15 -8 0 -15 -4 -15 -9 0
-12 46 -48 71 -56 10 -4 19 -11 19 -16 0 -7 -28 -8 -79 -3 -114 9 -115 8 -136
-197 -8 -90 -20 -166 -24 -169 -5 -3 -11 -23 -15 -45 -3 -22 -5 -41 -6 -42 0
-2 -7 -3 -15 -3 -8 0 -15 -5 -15 -11 0 -5 -4 -7 -10 -4 -6 3 -10 0 -10 -7 -1
-21 -37 -58 -57 -58 -10 0 -24 -5 -30 -11 -16 -16 -167 -10 -194 7 -5 3 -9
-443 -9 -995 l0 -1001 2035 0 2035 0 0 30 c0 17 9 39 20 50 12 12 18 25 15 29
-3 5 -2 23 1 40 6 30 8 31 45 25 32 -6 38 -4 34 8 -4 9 -17 20 -31 26 -31 15
-30 26 3 52 20 15 36 20 56 16 22 -4 27 -2 25 11 -2 9 4 18 12 20 13 4 13 3 0
-6 -12 -9 -9 -11 15 -11 17 0 36 4 44 9 19 12 -59 21 -82 9 -20 -10 -87 0 -87
14 0 5 21 8 48 7 39 -2 47 0 44 14 -4 25 29 36 109 38 41 1 79 5 84 10 6 4 33
9 60 12 30 2 14 4 -42 5 -61 1 -93 6 -93 13 0 7 -9 9 -21 6 -15 -4 -19 -3 -11
5 5 5 26 10 46 11 20 1 36 4 36 8 0 8 -35 18 -70 20 -21 1 -22 2 -5 6 11 3 25
8 30 12 32 23 96 33 144 24 28 -6 53 -8 56 -5 9 9 -17 32 -36 32 -10 0 -30 5
-44 12 -21 9 -31 9 -48 -1 -17 -11 -22 -11 -32 2 -6 9 -22 18 -36 22 -13 3
-55 35 -92 71 -37 35 -72 62 -78 58 -12 -7 -81 44 -74 56 3 5 -15 26 -39 46
-26 21 -48 49 -51 65 -7 32 -50 50 -100 44 -42 -6 -65 3 -75 28 -8 20 -9 18
-9 -10 -1 -30 -21 -59 -21 -31 -1 9 -4 9 -13 -3 -7 -8 -21 -20 -31 -26 -17 -9
-15 -12 20 -23 59 -19 154 -63 154 -72 0 -4 7 -5 15 -2 8 4 15 1 15 -4 0 -6
10 -14 -21 -17 -37 -12 -198 -122 -199 -136 0 -8 -173 -20 -262 -18 -51 1 -68 5
-68 15 0 16 -26 19 -35 4 -3 -5 -31 -10 -61 -10 -41 0 -59 -5 -74 -20 -11 -11
-29 -20 -40 -20 -26 0 -90 31 -91 44 0 14 -89 79 -89 66 0 -5 9 -14 20 -20 30
-16 25 -33 -7 -26 -16 3 -35 2 -43 -4 -11 -7 -12 -10 -2 -10 27 0 5 -25 -27
-30 -37 -6 -46 -24 -13 -28 18 -3 21 -8 16 -30 -11 -51 -14 -54 -39 -50 -14 3
-26 1 -26 -3 -5 -28 -1 -33 25 -34 24 0 29 -5 32 -26 2 -24 -2 -27 -31 -31
-25 -3 -35 0 -38 13 -3 9 -19 19 -41 23 -41 8 -49 25 -44 102 l3 49 47 3 47 3
3 42 c3 35 7 43 26 45 13 2 30 -2 38 -9 17 -14 27 -7 30 24 1 13 -13 38 -32
60 -31 34 -47 76 -24 62 5 -3 7 0 4 8 -6 17 17 28 68 32 21 2 50 12 65 23 16
11 44 23 63 27 19 3 42 8 50 11 13 3 15 31 12 185 -2 138 0 184 10 197 10 12
10 14 1 8 -7 -4 -13 -3 -13 2 0 4 39 32 88 60 l87 52 3 -50 c3 -47 5 -50 38
-59 24 -7 45 -6 62 0 15 6 61 13 102 17 l75 7 -3 285 c-1 157 -5 300 -8 318
-6 37 -16 39 -85 15 -46 -17 -50 -17 -76 -1 -16 10 -27 22 -25 29 1 6 -6 8
-20 5 -22 -6 -22 -6 -2 5 20 10 21 19 22 252 2 216 -7 349 -23 365 -3 3 -12
-1 -20 -9 -20 -20 -21 -99 -6 -367 7 -123 10 -226 7 -230 -8 -7 -141 26 -178
44 l-27 14 5 132 c2 75 9 135 15 138 5 4 12 34 14 68 2 34 7 67 10 73 5 8 -2
9 -25 4 -20 -4 -31 -3 -29 3 8 20 126 116 165 133 34 16 104 86 93 92 -28 16
-140 67 -156 72 -23 6 -32 25 -13 25 6 0 10 5 10 10 0 7 -243 10 -708 10
l-708 0 -12 -32 c-7 -18 -25 -67 -39 -108 -35 -100 -38 -104 -93 -96 -41 6
-311 30 -635 57 -181 15 -185 16 -200 64 -6 22 -20 57 -29 78 l-18 37 -159 0
c-88 0 -159 -3 -159 -7z m2627 -249 c-3 -3 -12 -4 -19 -1 -8 3 -5 6 6 6 11 1
17 -2 13 -5z m-2454 -204 c7 -6 33 -24 60 -41 26 -17 47 -35 47 -41 0 -5 -6
-3 -14 4 -8 7 -37 27 -65 43 -28 17 -51 33 -51 38 0 10 9 9 23 -3z m-538 -60
c3 -5 1 -10 -4 -10 -6 0 -11 5 -11 10 0 6 2 10 4 10 3 0 8 -4 11 -10z m158
-66 c56 -31 114 -60 130 -67 31 -13 32 -16 13 -42 -12 -17 -19 -15 -121 39
-59 32 -109 55 -112 52 -3 -2 10 -24 28 -48 32 -42 81 -108 103 -138 10 -13 9
-13 -7 -1 -19 15 -120 153 -152 206 l-17 30 21 -25 22 -25 -12 25 c-6 14 -19
33 -28 44 -15 18 -15 18 7 12 12 -4 68 -32 125 -62z m2857 42 c0 -2 -7 -22
-14 -44 -8 -23 -11 -44 -7 -47 5 -2 11 -22 15 -44 3 -22 12 -42 18 -44 8 -3 5
-6 -5 -6 -10 0 -16 -5 -13 -10 6 -9 -16 -21 -37 -21 -7 0 -6 4 3 10 11 7 11
10 2 10 -10 0 -10 5 2 22 22 30 21 62 0 54 -13 -5 -15 -2 -10 16 4 13 9 38 13
56 5 29 3 32 -18 32 -19 0 -21 2 -9 10 14 9 60 14 60 6z m-172 -44 c-15 -18
-16 -75 -4 -129 7 -32 7 -33 -26 -33 -18 0 -40 5 -48 10 -9 6 -11 10 -3 10 7
0 10 7 7 15 -4 8 -1 22 6 31 10 11 10 18 2 26 -7 7 -12 22 -12 35 0 13 -4 23
-10 23 -5 0 -10 4 -10 9 0 10 90 30 103 23 5 -2 2 -11 -5 -20z m-2118 -55
c-12 -20 -19 -41 -15 -47 3 -5 3 -15 -1 -21 -4 -8 -9 -7 -14 2 -5 7 1 32 15
60 13 25 23 49 21 52 -2 2 1 1 6 -3 5 -4 0 -23 -12 -43z m-870 -46 c0 -12 -41
-63 -47 -57 -5 5 35 66 43 66 2 0 4 -4 4 -9z m1930 -11 c-41 -4 -115 -15 -165
-24 -109 -19 -120 -19 -77 -1 41 18 155 33 247 32 l70 0 -75 -7z m193 3 c-7
-2 -21 -2 -30 0 -10 3 -4 5 12 5 17 0 24 -2 18 -5z m-1312 -61 c-19 -37 -51
-63 -51 -42 0 6 4 10 10 10 5 0 20 18 32 39 29 51 36 45 9 -7z m2026 -24 c-2
-13 -4 -3 -4 22 0 25 2 35 4 23 2 -13 2 -33 0 -45z m-582 42 c3 -6 -1 -7 -9
-4 -18 7 -21 14 -7 14 6 0 13 -4 16 -10z m464 -1 c52 -1 27 -5 -79 -11 -85 -5
-175 -5 -200 -1 -44 7 -43 8 35 14 44 3 100 5 124 3 24 -2 78 -5 120 -5z
m-1588 -41 l2 -23 4 23 c6 29 23 19 23 -14 0 -13 6 -24 13 -25 6 -1 1 -4 -13
-8 -21 -6 -27 -3 -37 21 -12 27 -15 28 -85 29 -87 1 -58 16 35 18 52 1 57 -1
58 -21z m1160 5 c13 -16 12 -17 -3 -4 -17 13 -22 21 -14 21 2 0 10 -8 17 -17z
m772 -10 c-13 -2 -33 -2 -45 0 -13 2 -3 4 22 4 25 0 35 -2 23 -4z m-1488 -23
c22 -6 8 -8 -50 -9 -77 -1 -81 -2 -108 -33 l-28 -33 23 37 c13 20 32 39 43 41
32 7 88 5 120 -3z m769 -53 c6 -30 5 -58 -1 -79 -10 -30 -11 -28 -12 34 -1 37
-5 70 -11 73 -14 9 -12 27 3 23 6 -3 16 -25 21 -51z m-1081 -39 c10 -122 9
-190 -3 -183 -6 4 -10 58 -10 130 l0 124 -32 4 -33 4 36 1 36 2 6 -82z m75 42
c38 -34 42 -42 32 -60 -12 -23 -27 -18 -67 20 -22 19 -33 81 -15 80 4 -1 26
-18 50 -40z m299 -67 c-2 -21 -4 -6 -4 32 0 39 2 55 4 38 2 -18 2 -50 0 -70z
m-1577 26 c-2 -33 -6 -64 -9 -69 -3 -5 7 -13 22 -18 l28 -10 -34 -1 -34 -1 7
57 c7 58 16 103 21 103 1 0 1 -27 -1 -61z m1179 -53 c2 -63 -1 -86 -10 -86 -9
0 -13 23 -13 83 0 75 6 105 17 93 3 -2 5 -43 6 -90z m721 -14 c-33 -8 -10 -21
44 -25 l57 -3 -67 -2 -66 -2 4 33 c9 57 15 65 29 32 11 -25 11 -31 -1 -33z
m926 -65 c20 -62 -12 -188 -56 -220 -35 -26 -41 -14 -11 22 14 17 31 47 37 67
12 37 9 153 -5 189 l-7 20 14 -20 c8 -11 21 -37 28 -58z m-781 -138 c-7 -4
-14 -7 -15 -6 0 1 2 47 5 102 l5 100 9 -94 c7 -75 7 -95 -4 -102z m-1604 70
c0 -97 -1 -104 -20 -104 -16 0 -19 6 -17 25 4 29 11 135 12 168 0 14 5 22 13
19 8 -3 12 -34 12 -108z m472 49 c-2 -13 -4 -3 -4 22 0 25 2 35 4 23 2 -13 2
-33 0 -45z m-1397 40 c-3 -9 -10 -16 -15 -16 -6 0 -5 9 1 21 13 24 24 20 14 -5z m2571
-31 c44 -37 22 -42 -27 -6 -30 23 -37 31 -22 31 10 -1 32 -12 49 -25z m72 -32
c-3 -10 -5 -2 -5 17 0 19 2 27 5 18 2 -10 2 -26 0 -35z m-664 -93 c14 0 67
-60 67 -76 0 -25 -12 -43 -26 -37 -8 3 -14 15 -14 28 0 12 -9 30 -20 40 -20
18 -20 17 -21 0 -21 -4 -57 -8 -79 -6 -27 -8 7 -7 105 1 120 3 136 10 93
5 -29 13 -53 19 -53z m947 20 c-17 -11 -10 -13 50 -11 19 1 42 -3 50 -9 11 -7
-4 -10 -52 -10 -65 0 -68 1 -68 23 0 29 10 41 24 27 8 -8 6 -14 -4 -20z
m-1496 -15 c28 -12 36 -21 36 -40 0 -16 -6 -25 -15 -25 -18 0 -20 -16 -2 -23
9 -4 9 -6 0 -6 -7 -1 -19 14 -26 32 -8 17 -21 38 -30 46 -18 15 -22 31 -8 31
5 0 25 -7 45 -15z m757 -90 l-8 -90 -2 75 c0 41 2 86 6 100 11 43 13 8 4 -85z
m947 49 l-3 -39 -5 47 c-3 26 -1 43 3 39 5 -5 7 -26 5 -47z m31 -67 c1 -30 -3
-46 -9 -42 -5 3 -10 1 -10 -4 0 -7 -20 -10 -47 -9 l-48 1 42 4 c35 3 44 9 49
27 3 12 4 26 3 32 -1 5 0 34 1 64 l2 55 9 -40 c4 -22 8 -62 8 -88z m748 1 c-2
-18 -4 -4 -4 32 0 36 2 50 4 33 2 -18 2 -48 0 -65z m-2570 -40 c-3 -8 -6 -5
-6 6 -1 11 2 17 5 13 3 -3 4 -12 1 -19z m1310 -35 c-3 -10 -5 -2 -5 17 0 19 2
27 5 18 2 -10 2 -26 0 -35z m-680 -20 c-3 -10 -5 -2 -5 17 0 19 2 27 5 18 2
-10 2 -26 0 -35z m303 27 c0 -5 -11 -10 -25 -10 -14 0 -25 5 -25 10 0 6 11 10
25 10 14 0 25 -4 25 -10z m683 3 c-13 -2 -35 -2 -50 0 -16 2 -5 4 22 4 28 0
40 -2 28 -4z m-183 -13 c0 -5 -17 -10 -37 -10 -28 0 -34 3 -23 10 20 13 60 13
60 0z m-830 -14 c0 -11 -19 -15 -25 -6 -3 5 1 10 9 10 9 0 16 -2 16 -4z m1395
-71 c-1 -16 -3 -73 -4 -125 -1 -66 -4 -90 -11 -80 -11 17 -13 110 -3 200 6 60
22 65 18 5z m31 -60 c1 -8 -2 -15 -7 -15 -5 0 -9 10 -9 22 0 23 12 17 16 -7z
m-2399 -1 c-3 -3 -12 -4 -19 -1 -8 3 -5 6 6 6 11 1 17 -2 13 -5z m641 -111 c2
-32 0 -43 -11 -43 -8 0 -18 8 -22 18 -6 15 -8 15 -25 -5 -26 -33 -37 -28 -45
18 -9 50 3 60 60 57 39 -3 40 -4 43 -45z m-142 22 c3 -8 7 -29 8 -46 1 -30 0
-30 -47 -34 l-48 -3 7 42 c3 22 12 44 18 48 19 13 56 9 62 -7z m-109 -41 c3
-46 -8 -54 -74 -54 -32 0 -33 1 -33 44 0 50 7 56 65 53 39 -2 40 -3 42 -43z
m-139 24 c28 -28 -3 -98 -43 -98 -21 0 -55 36 -55 59 0 42 68 69 98 39z m-116
-44 c4 -50 -8 -67 -27 -41 -17 23 -42 21 -48 -4 -10 -37 -32 -15 -35 34 -3 50
10 62 33 30 11 -15 14 -15 31 5 29 34 42 27 46 -24z m1877 -151 c39 -98 71
-184 71 -190 0 -9 -17 -13 -49 -13 -27 0 -57 -3 -65 -6 -12 -4 -20 4 -31 30
-16 37 -26 41 -83 30 -25 -5 -31 -12 -37 -40 l-6 -34 -70 0 c-67 0 -69 1 -64
23 3 12 19 90 35 172 17 83 35 160 40 172 9 23 7 22 156 31 l32 2 71 -177z
m-345 110 c3 -21 6 -57 6 -80 0 -40 -1 -42 -32 -45 l-33 -3 3 -106 4 -107 -62
-7 c-34 -4 -63 -5 -66 -2 -4 4 -33 313 -34 359 0 18 26 22 151 26 l56 2 7 -37z
m-355 0 c24 -46 133 -344 128 -350 -4 -3 -35 -6 -69 -7 -58 -1 -62 1 -68 24
-5 22 -12 25 -57 28 -50 3 -51 3 -57 -31 -6 -34 -7 -34 -69 -40 -34 -3 -64 -4
-66 -2 -6 7 70 359 81 370 5 6 39 13 76 16 37 3 72 7 79 7 7 1 16 -6 22 -15z
m-345 -100 c13 -176 16 -193 36 -193 15 0 18 -11 22 -77 3 -48 0 -81 -6 -85
-6 -4 -32 -8 -58 -8 -45 0 -47 1 -50 33 -3 37 13 35 -209 23 l-135 -8 -11 179
c-5 98 -9 180 -7 182 2 2 28 6 58 9 l54 4 6 -93 c3 -52 7 -112 9 -134 1 -29 7
-41 20 -43 17 -3 18 2 13 65 -4 37 -7 99 -9 138 l-2 69 53 9 c30 5 55 7 57 5
2 -2 7 -64 12 -138 6 -110 11 -135 23 -135 16 0 17 58 5 207 l-6 67 38 4 c89
9 81 17 87 -80z m-486 -5 l3 -47 -63 -3 c-60 -3 -63 -4 -66 -30 -3 -26 -2 -27
30 -17 72 21 138 -28 138 -101 0 -90 -37 -116 -181 -130 -56 -5 -104 -9 -105
-7 -6 6 6 -21 353 -15 360 7 7 196 26 236 23 17 -1 21 -9 23 -48z m-359 -5 c84
-61 94 -214 20 -298 -98 -111 -243 -31 -244 135 0 79 31 143 85 172 42 23 100
19 139 -9z m-679 -119 c0 -2 -7 -4 -15 -4 -8 0 -15 4 -15 10 0 5 7 7 15 4 8
-4 15 -8 15 -10z m248 -8 c3 -11 0 -16 -7 -12 -6 4 -11 3 -11 -2 0 -15 -40 -7
-58 12 -16 17 -16 18 6 11 14 -4 22 -2 22 5 0 19 45 6 48 -14z m-333 -6 c-3
-5 3 -10 13 -10 11 0 37 -7 57 -16 29 -12 35 -18 24 -25 -20 -12 -92 -12 -84
1 8 13 -11 13 -35 0 -14 -8 -21 -5 -34 14 -13 20 -13 25 -1 30 7 2 16 0 19 -7
4 -8 9 -7 18 6 13 18 34 24 23 7z m3005 -201 c0 -12 -37 -12 -45 0 -3 5 3 11
12 13 21 5 33 0 33 -13z m30 -24 c-7 -9 -15 -13 -17 -11 -7 7 7 26 19 26 6 0
6 -6 -2 -15z m507 9 c-3 -3 -12 -4 -19 -1 -8 3 -5 6 6 6 11 1 17 -2 13 -5z
m201 -1 c-10 -2 -26 -2 -35 0 -10 3 -2 5 17 5 19 0 27 -2 18 -5z m-648 -18
c25 -14 25 -14 3 -15 -13 0 -23 4 -23 10 0 5 -7 6 -17 3 -11 -4 -14 -3 -9 5 9
15 15 15 15 46 -3z m187 9 c-3 -3 -12 -4 -19 -1 -8 3 -5 6 6 6 11 1 17 -2 13 -5z
m-317 -14 c0 -13 -11 -13 -30 0 -12 8 -11 10 8 10 12 0 22 -4 22 -10z m850 -4
c0 -2 -7 -6 -15 -10 -8 -3 -15 -1 -15 4 0 6 7 10 15 10 8 0 15 -2 15 -4z m37
-2 c-3 -3 -12 -4 -19 -1 -8 3 -5 6 6 6 11 1 17 -2 13 -5z m-791 -34 c0 -6 3
-21 6 -33 5 -18 2 -23 -14 -23 -27 0 -48 26 -27 34 8 3 15 11 15 18 0 9 -3 9
-10 -2 -7 -11 -9 -11 -8 6 2 15 7 20 20 16 10 -2 18 -9 18 -16z
m3130 14 c12 -8 9 -10 -12 -10 -16 0 -28 5 -28 10 0 13 20 13 40 0z m-558 -15
c11 -14 10 -55 -1 -55 -5 0 -14 7 -21 15 -10 12 -10 15 0 15 10 0 9 4 -1 16
-12 14 -14 14 -20 -3 -7 -16 -8 -15 -8 4 -1 18 4 22 22 20 12 -1 25 -6 29 -12z
m-1327 -15 c-3 -10 -1 -28 5 -40 9 -16 8 -20 -5 -20 -8 0 -15 -7 -15 -15 0 -8
-5 -15 -11 -15 -7 0 -18 -8 -25 -17 -12 -17 -15 -16 -40 9 -26 26 -27 28 -13
65 13 33 20 39 54 44 22 3 44 7 48 8 5 0 6 -8 2 -19z m1405 -34 c0 -39 -2 -44
-20 -39 -13 4 -20 14 -20 30 0 13 4 21 10 18 9 -6 14 8 11 28 0 4 4 7 9 7 6 0
10 -20 10 -44z m214 25 c21 -9 23 -14 17 -38 -6 -20 -13 -27 -27 -25 -28 5
-33 14 -27 45 6 31 4 30 37 18z m216 -1 c0 -5 -7 -10 -16 -10 -8 0 -12 5 -9
10 3 6 10 10 16 10 5 0 9 -4 9 -10z m-3010 -47 c0 -6 -8 -9 -20 -6 -22 6 -27
29 -7 36 13 4 27 -10 27 -30z m2685 -14 c21 -10 31 -22 33 -43 5 -42 -15 -47
-64 -17 -41 24 -43 29 -44 70 l0 44 23 -20 c12 -11 36 -27 52 -34z m221 34
l37 -18 -29 -6 -29 -6 25 -11 c23 -10 22 -11 -17 -11 -48 -1 -53 4 -46 42 6
32 11 33 59 10z m-496 -3 c0 -5 -5 -10 -11 -10 -5 0 -7 5 -4 10 3 6 8 10 11
10 2 0 4 -4 4 -10z m25 0 c3 -5 1 -10 -4 -10 -6 0 -11 5 -11 10 0 6 2 10 4 10
3 0 8 -4 11 -10z m543 -50 c-1 -16 -2 -30 -4 -30 -1 0 -9 3 -18 6 -21 8 -21
24 0 24 14 0 14 3 4 15 -10 12 -10 15 3 15 11 0 15 -9 15 -30z m-908 -3 c0 -7
-9 -13 -20 -14 -12 -1 -20 4 -20 13 0 8 5 12 10 9 6 -3 10 -1 10 5 0 6 5 8 10
5 6 -3 10 -1 10 5 0 6 5 8 10 5 6 -3 10 -18 10 -33z m717 -20 c19 7 33 -13 33
49 0 -21 -5 -28 -19 -28 -34 0 -51 12 -51 35 0 29 12 63 17 48 3 -7 11 -9 20 -6z m106 -19 c18 -13 41 -23
52 -23 16 0 21 -8 23 -43 3 -44 -15 -65 -41 -44 -6 5 -29 15 -51 22 -37 12
-38 14 -32 49 3 20 6 42 6 49 0 17 7 15 43 -10z m-898 2 c4 -6 1 -18 -7 -27
-7 -9 -11 -19 -9 -22 3 -3 -3 -7 -12 -9 -21 -4 -23 17 -2 24 8 4 15 10 15 15
0 13 -34 11 -48 -3 -8 -8 -12 -9 -12 -1 0 6 12 16 28 21 36 14 40 14 47 2z
m-125 -32 c0 -5 -4 -8 -10 -8 -5 0 -10 10 -10 23 0 18 2 19 10 7 5 -8 10 -18
10 -22z m20 10 c0 -18 -2 -20 -9 -8 -6 8 -7 18 -5 22 9 14 14 9 14 -14z"/>
<path d="M1620 1095 c0 -8 5 -15 10 -15 6 0 10 7 10 15 0 8 -4 15 -10 15 -5 0
-10 -7 -10 -15z"/>
<path d="M1498 1093 c7 -3 16 -2 19 1 4 3 -2 6 -13 5 -11 0 -14 -3 -6 -6z"/>
<path d="M1367 1083 c-13 -12 -7 -33 8 -33 8 0 15 9 15 20 0 20 -11 26 -23 13z"/>
<path d="M3020 920 c0 -8 -3 -25 -6 -37 -5 -19 -2 -23 16 -23 19 0 21 4 15 28
-8 32 -25 53 -25 32z"/>
<path d="M2386 850 c-7 -35 4 -57 23 -46 15 10 14 38 -2 61 -13 17 -14 15 -21
-15z"/>
<path d="M1524 737 c-9 -25 0 -62 15 -62 22 0 38 32 25 52 -14 23 -33 28 -40
10z"/>
<path d="M1192 774 c-13 -24 -3 -54 18 -54 23 0 36 36 20 55 -16 19 -27 19
-38 -1z"/>
<path d="M3720 394 c0 -10 28 -34 39 -34 6 0 11 7 11 16 0 8 -4 12 -10 9
-5 -3 -10 -1 -10 4 0 6 -7 11 -15 11 -8 0 -15 -3 -15 -6z"/>
<path d="M2152 258 c-7 -7 -12 -20 -12 -31 0 -13 6 -18 23 -15 16 2 22 10 22
27 0 28 -15 37 -33 19z"/>
<path d="M3830 230 c0 -5 5 -10 10 -10 6 0 10 5 10 10 0 6 -4 10 -10 10 -5 0
-10 -4 -10 -10z"/>
<path d="M4588 1648 c-22 -22 -22 -35 -3 -81 18 -43 18 -47 5 -47 -5 0 -10 7
-10 15 0 10 -7 15 -17 13 -15 -2 -19 6 -23 47 -3 28 -9 50 -15 50 -39 -2 -164
-19 -180 -25 -19 -7 -20 -14 -15 -176 l5 -169 38 -3 c29 -3 37 -7 37 -22 0
-11 9 -24 20 -30 19 -10 20 -9 14 14 -5 21 -2 27 21 36 14 5 31 10 36 10 5 0
9 -34 9 -75 l0 -75 -20 20 c-11 11 -24 20 -30 20 -5 0 -10 7 -10 15 0 15 -21
21 -32 9 -11 -11 5 -45 18 -40 8 3 29 -5 48 -17 28 -17 35 -29 36 -53 l0 -32
121 -1 120 0 -2 79 c-2 44 0 82 3 85 3 3 17 8 30 10 18 4 25 0 24 -13 0 -59 5
-82 18 -82 8 0 17 11 20 25 l6 24 36 -21 35 -21 -3 44 c-3 42 -4 44 -33 43
-23 -1 -31 3 -32 17 -2 19 29 35 47 24 5 -3 10 -13 10 -21 0 -10 12 -14 40
-14 l40 0 0 44 c0 59 -10 107 -22 100 -6 -4 -7 11 -3 39 6 36 4 45 -10 51 -17
6 -17 8 0 26 26 29 9 85 -26 84 -55 -2 -195 -26 -206 -36 -9 -7 -13 -7 -13 1
0 7 -4 10 -9 7 -4 -3 -6 -17 -4 -31 3 -13 9 -22 14 -19 5 3 9 -3 9 -13 0 -10
3 -29 7 -42 4 -18 2 -22 -8 -19 -8 3 -14 18 -14 34 0 22 -5 29 -20 29 -15 0
-22 11 -33 55 -7 30 -11 72 -8 92 4 35 3 37 -22 35 -15 -1 -35 -10 -44 -19z
m-178 -103 c0 -8 -6 -12 -14 -9 -14 5 -29 -27 -27 -56 1 -11 -2 -10 -10 3 -8
14 -8 22 0 30 6 11 19 11 29 0 11 7 18 20 18 11 0 20 -7 20 -15z m19 -39
c-9 -8 -10 -7 -5 7 3 10 7 24 7 30 1 7 3 4 6 -7 3 -10 -1 -23 -8 -30z m65 9
c-4 -8 -9 -15 -13 -15 -4 0 -8 7 -8 15 0 8 6 15 13 15 8 0 11 -6 8 -15z m111
-15 c3 -5 2 -10 -4 -10 -6 0 -8 -7 -5 -15 5 -11 2 -13 -10 -9 -9 4 -14 9 -12
12 3 3 1 11 -5 19 -9 10 -7 13 9 13 12 0 24 -4 27 -10z m335 -91 c0 -27 -12
-32 -37 -16 -13 8 -37 -28 -28 -43 3 -5 1 -11 -4 -14 -5 -3 -7 -14 -4 -25 6
-23 -21 -35 -48 -21 -14 8 -19 21 -19 51 0 36 -2 40 -20 34 -22 -7 -25 2 -10
39 8 22 13 24 44 19 28 -4 35 -2 40 15 6 19 8 19 46 5 33 -13 40 -21 40 -44z
m-476 4 c-4 -21 -11 -40 -15 -41 -5 -2 -7 -8 -3 -13 3 -5 1 -9 -4 -9 -20 0
-23 50 -5 75 26 35 35 31 27 -12z m236 28 c0 -5 -7 -14 -15 -21 -13 -10 -15
-9 -15 9 0 12 6 21 15 21 8 0 15 -4 15 -9z m-61 -105 l-25 -23 -11 23 c-10 21
-8 23 21 26 42 4 44 1 15 -26z m15 -67 c-3 -5 -12 -9 -20 -9 -8 0 -14 -7 -14
-15 0 -17 55 -21 65 -5 5 5 8 11 7 21 -1 19 -16 18 -33 -2 -25 -11 -18 -1 -19
-14 -6 -24 -7 -24 -39 -4 -20 9 -26 8 -30 4 -7 18 3 35 22 35 9 0 14 8 13 18
-2 27 -1 29 31 24 16 -2 27 -8 24 -13z m-34 -79 c0 -5 -2 -10 -4 -10 -3 0 -8
-5 -11 10 -3 6 -1 10 4 10 6 0 11 -4 11 -10z m-14 -31
c3 -6 0 -16 -7 -21 -10 -7 -6 -8 14 -4 24 6 27 4 26 -21 -1 -17 -3 -21 -6 -10
-6 22 -32 22 -63 0 l-24 -17 17 24 c9 14 17 32 17 42 0 20 15 24 26 7z m73
-54 c0 -5 -4 -3 -9 5 -5 8 -9 22 -9 30 0 16 17 -16 18 -35z"/>
<path d="M4670 1621 c-13 -26 -13 -38 3 -44 10 -4 13 5 13 29 -1 40 -2 40 -16
15z"/>
<path d="M4783 1094 c-14 -30 -13 -30 69 -37 32 -3 60 -2 63 3 3 5 0 21 -6 37
-6 15 -13 22 -16 16 -6 -15 -83 -18 -83 -3 0 19 -15 10 -27 -16z"/>
<path d="M4838 1043 c7 -3 16 -2 19 1 4 3 -2 6 -13 5 -11 0 -14 -3 -6 -6z"/>
<path d="M4875 1030 c3 -5 17 -10 31 -10 13 0 24 5 24 10 0 6 -14 10 -31 10
-17 0 -28 -4 -24 -10z"/>
<path d="M3709 983 c-18 -63 -18 -66 11 -70 24 -3 25 -1 25 54 0 71 -18 79
-36 16z"/>
<path d="M3367 520 c-3 -13 0 -20 9 -20 15 0 19 26 5 34 -5 3 -11 -3 -14 -14z"/>
<path d="M4396 491 c-4 -5 3 -7 14 -4 23 6 26 13 6 13 -8 0 -17 -4 -20 -9z"/>
<path d="M4240 350 c0 -5 19 -10 43 -9 36 1 38 2 17 9 -36 12 -60 12 -60 0z"/>
<path d="M4910 280 c-97 -10 -122 -22 -162 -81 -18 -27 -39 -49 -45 -49 -11 0
-15 -12 -15 -40 0 -3 3 -26 6 -53 7 -46 -6 -68 -17 -27 -3 12 -14 20 -25 20
-20 0 -36 -25 -26 -41 3 -5 88 -9 190 -9 l184 0 0 145 c0 80 -3 144 -7 144 -5
-1 -42 -5 -83 -9z"/>
<path d="M4258 234 c-16 -8 -28 -21 -28 -30 0 -8 -7 -17 -15 -20 -8 -4 -15
-18 -15 -34 0 -16 -10 -41 -23 -57 -24 -31 -26 -93 -2 -93 16 0 25 22 25 62 0
20 9 39 30 58 17 15 30 37 30 48 0 27 36 70 63 75 17 3 15 5 -8 5 -16 1 -42
-6 -57 -14z"/>
<path d="M4520 130 c0 -13 28 -25 38 -16 3 4 0 11 -8 16 -20 13 -30 12 -30 0z"/>
<path d="M4387 33 c-14 -13 -6 -33 13 -33 11 0 20 4 20 9 0 13 -26 32 -33 24z"/>
</g>
</svg>
